<svg width="29" height="36" viewBox="0 0 29 36" fill="none" xmlns="http://www.w3.org/2000/svg">
<g clip-path="url(#clip0_1_2851)">
<path d="M5.28053 34V27.592H6.65753V34H5.28053ZM0.933531 34V27.592H2.31053V34H0.933531ZM1.38353 31.3V30.193H6.10853V31.3H1.38353ZM11.2902 34.081C10.6482 34.081 10.0932 33.946 9.6252 33.676C9.1572 33.406 8.7942 33.025 8.5362 32.533C8.2842 32.041 8.1582 31.459 8.1582 30.787C8.1582 30.121 8.2842 29.542 8.5362 29.05C8.7942 28.558 9.1572 28.18 9.6252 27.916C10.0932 27.646 10.6482 27.511 11.2902 27.511C11.9322 27.511 12.4842 27.646 12.9462 27.916C13.4142 28.18 13.7742 28.558 14.0262 29.05C14.2782 29.542 14.4042 30.121 14.4042 30.787C14.4042 31.459 14.2782 32.041 14.0262 32.533C13.7742 33.025 13.4142 33.406 12.9462 33.676C12.4842 33.946 11.9322 34.081 11.2902 34.081ZM11.2902 32.992C11.8182 32.992 12.2352 32.806 12.5412 32.434C12.8532 32.056 13.0092 31.507 13.0092 30.787C13.0092 30.067 12.8532 29.524 12.5412 29.158C12.2352 28.786 11.8182 28.6 11.2902 28.6C10.7562 28.6 10.3362 28.786 10.0302 29.158C9.7242 29.524 9.5712 30.067 9.5712 30.787C9.5712 31.513 9.7242 32.062 10.0302 32.434C10.3362 32.806 10.7562 32.992 11.2902 32.992ZM15.9195 34V27.592H17.0355L19.3485 32.875H18.8535L21.1575 27.592H22.2645V34H21.0225L21.0135 29.671L21.3375 29.752L19.5465 34H18.6375L16.8105 29.752L17.1525 29.671V34H15.9195ZM23.9568 34V27.592H28.3758V28.681H25.3338V30.193H28.1868V31.291H25.3338V32.911H28.3758V34H23.9568Z" fill="#202244"/>
<path fill-rule="evenodd" clip-rule="evenodd" d="M12.9219 18.2581H8.92188C7.62488 18.2541 6.57388 17.2071 6.56588 15.9101V7.95305C6.56588 7.51905 6.76188 7.10905 7.09388 6.83205L7.80088 6.30805C8.05888 6.03505 8.08188 5.61705 7.86288 5.31205C7.64088 5.00805 7.23388 4.90605 6.89488 5.06605L6.17588 5.60505C5.44488 6.16805 5.01588 7.03105 4.99988 7.95305V15.9181C5.00388 18.0821 6.75788 19.8361 8.92188 19.8401H12.9219C13.3549 19.8401 13.7029 19.4881 13.7029 19.0591C13.7029 18.6251 13.3549 18.2741 12.9219 18.2741V18.2581Z" fill="#202244"/>
<path fill-rule="evenodd" clip-rule="evenodd" d="M23.7931 7.93425C23.7811 7.02325 23.3631 6.16025 22.6521 5.58625L16.6451 0.79725C15.3241 -0.26575 13.4411 -0.26575 12.1211 0.79725L10.2191 2.18025C9.85905 2.43725 9.77705 2.93425 10.0351 3.29325C10.2931 3.64825 10.7891 3.73025 11.1481 3.47325L13.0781 2.03125C13.8361 1.40625 14.9301 1.40625 15.6881 2.03125L21.6951 6.82025C22.0431 7.09825 22.2461 7.51225 22.2541 7.95325V15.9183C22.2541 17.2153 21.1991 18.2663 19.9061 18.2663H18.1211C17.9381 18.2663 17.7931 18.1173 17.7931 17.9342V14.3442C17.7931 13.1992 16.8671 12.2692 15.7231 12.2662H13.1131C12.5621 12.2662 12.0351 12.4843 11.6451 12.8752C11.2541 13.2662 11.0351 13.7933 11.0351 14.3442V15.7192C11.0351 16.1483 11.3871 16.5002 11.8161 16.5002C12.2501 16.5002 12.6021 16.1483 12.6021 15.7192V14.3442C12.5981 14.2072 12.6481 14.0782 12.7461 13.9803C12.8401 13.8872 12.9691 13.8322 13.1051 13.8322H15.7151C15.9921 13.8322 16.2191 14.0592 16.2191 14.3363V17.9342C16.2231 18.9842 17.0741 19.8323 18.1211 19.8323H19.8591C22.0271 19.8323 23.7811 18.0742 23.7811 15.9102L23.7931 7.93425Z" fill="#202244"/>
</g>
<defs>
<clipPath id="clip0_1_2851">
<rect width="29" height="36" fill="white"/>
</clipPath>
</defs>
</svg>
