<svg width="65" height="36" viewBox="0 0 65 36" fill="none" xmlns="http://www.w3.org/2000/svg">
<path d="M2.19831 34V27.592H3.31431L5.62731 32.875H5.13231L7.43631 27.592H8.54331V34H7.30131L7.29231 29.671L7.61631 29.752L5.82531 34H4.91631L3.08931 29.752L3.43131 29.671V34H2.19831ZM11.7746 34V31.12L12.0716 31.93L9.13758 27.592H10.7306L12.6656 30.625H12.2876L14.2406 27.592H15.8426L12.9086 31.93L13.1876 31.12V34H11.7746ZM22.3472 34.081C21.6932 34.081 21.1262 33.946 20.6462 33.676C20.1662 33.406 19.7972 33.025 19.5392 32.533C19.2812 32.035 19.1522 31.453 19.1522 30.787C19.1522 30.127 19.2812 29.551 19.5392 29.059C19.7972 28.567 20.1662 28.186 20.6462 27.916C21.1262 27.646 21.6932 27.511 22.3472 27.511C22.7732 27.511 23.1782 27.577 23.5622 27.709C23.9462 27.835 24.2642 28.015 24.5162 28.249L24.0752 29.257C23.7872 29.041 23.5052 28.885 23.2292 28.789C22.9592 28.687 22.6742 28.636 22.3742 28.636C21.8042 28.636 21.3632 28.819 21.0512 29.185C20.7392 29.545 20.5832 30.079 20.5832 30.787C20.5832 31.495 20.7392 32.035 21.0512 32.407C21.3632 32.773 21.8042 32.956 22.3742 32.956C22.6742 32.956 22.9592 32.908 23.2292 32.812C23.5052 32.71 23.7872 32.551 24.0752 32.335L24.5162 33.343C24.2642 33.577 23.9462 33.76 23.5622 33.892C23.1782 34.018 22.7732 34.081 22.3472 34.081ZM28.7135 34.081C28.0715 34.081 27.5165 33.946 27.0485 33.676C26.5805 33.406 26.2175 33.025 25.9595 32.533C25.7075 32.041 25.5815 31.459 25.5815 30.787C25.5815 30.121 25.7075 29.542 25.9595 29.05C26.2175 28.558 26.5805 28.18 27.0485 27.916C27.5165 27.646 28.0715 27.511 28.7135 27.511C29.3555 27.511 29.9075 27.646 30.3695 27.916C30.8375 28.18 31.1975 28.558 31.4495 29.05C31.7015 29.542 31.8275 30.121 31.8275 30.787C31.8275 31.459 31.7015 32.041 31.4495 32.533C31.1975 33.025 30.8375 33.406 30.3695 33.676C29.9075 33.946 29.3555 34.081 28.7135 34.081ZM28.7135 32.992C29.2415 32.992 29.6585 32.806 29.9645 32.434C30.2765 32.056 30.4325 31.507 30.4325 30.787C30.4325 30.067 30.2765 29.524 29.9645 29.158C29.6585 28.786 29.2415 28.6 28.7135 28.6C28.1795 28.6 27.7595 28.786 27.4535 29.158C27.1475 29.524 26.9945 30.067 26.9945 30.787C26.9945 31.513 27.1475 32.062 27.4535 32.434C27.7595 32.806 28.1795 32.992 28.7135 32.992ZM36.0518 34.081C35.1458 34.081 34.4588 33.85 33.9908 33.388C33.5288 32.926 33.2978 32.248 33.2978 31.354V27.592H34.6658V31.417C34.6658 31.927 34.7828 32.317 35.0168 32.587C35.2508 32.857 35.5958 32.992 36.0518 32.992C36.4898 32.992 36.8258 32.857 37.0598 32.587C37.2938 32.317 37.4108 31.927 37.4108 31.417V27.592H38.8058V31.354C38.8058 32.242 38.5688 32.92 38.0948 33.388C37.6208 33.85 36.9398 34.081 36.0518 34.081ZM40.4397 34V27.592H43.2927C44.0427 27.592 44.6097 27.757 44.9937 28.087C45.3777 28.411 45.5697 28.873 45.5697 29.473C45.5697 30.043 45.3717 30.502 44.9757 30.85C44.5797 31.192 44.0277 31.363 43.3197 31.363L44.0577 31.21C44.2797 31.21 44.4777 31.276 44.6517 31.408C44.8317 31.54 44.9727 31.741 45.0747 32.011L45.8487 34H44.3637L43.5447 31.867C43.4787 31.693 43.3737 31.576 43.2297 31.516C43.0857 31.45 42.9207 31.417 42.7347 31.417H41.8257V34H40.4397ZM41.8167 30.346H43.0857C43.4877 30.346 43.7817 30.277 43.9677 30.139C44.1537 30.001 44.2467 29.791 44.2467 29.509C44.2467 29.221 44.1537 29.011 43.9677 28.879C43.7877 28.741 43.4937 28.672 43.0857 28.672H41.8167V30.346ZM49.4088 34.081C49.0848 34.081 48.7668 34.054 48.4548 34C48.1488 33.94 47.8608 33.856 47.5908 33.748C47.3208 33.634 47.0868 33.499 46.8888 33.343L47.3478 32.335C47.6658 32.557 47.9958 32.722 48.3378 32.83C48.6798 32.938 49.0398 32.992 49.4178 32.992C49.8258 32.992 50.1378 32.926 50.3538 32.794C50.5758 32.662 50.6868 32.479 50.6868 32.245C50.6868 32.107 50.6418 31.99 50.5518 31.894C50.4618 31.798 50.3178 31.714 50.1198 31.642C49.9218 31.57 49.6578 31.498 49.3278 31.426C48.9138 31.342 48.5598 31.243 48.2658 31.129C47.9718 31.015 47.7318 30.883 47.5458 30.733C47.3658 30.583 47.2338 30.409 47.1498 30.211C47.0658 30.007 47.0238 29.773 47.0238 29.509C47.0238 29.131 47.1288 28.792 47.3388 28.492C47.5548 28.186 47.8518 27.946 48.2298 27.772C48.6138 27.598 49.0608 27.511 49.5708 27.511C49.8768 27.511 50.1738 27.541 50.4618 27.601C50.7558 27.661 51.0258 27.745 51.2718 27.853C51.5178 27.961 51.7248 28.093 51.8928 28.249L51.4428 29.257C51.1548 29.035 50.8548 28.87 50.5428 28.762C50.2308 28.654 49.9128 28.6 49.5888 28.6C49.2228 28.6 48.9318 28.675 48.7158 28.825C48.4998 28.969 48.3918 29.167 48.3918 29.419C48.3918 29.557 48.4338 29.674 48.5178 29.77C48.6018 29.866 48.7398 29.953 48.9318 30.031C49.1298 30.103 49.3998 30.178 49.7418 30.256C50.1438 30.34 50.4918 30.439 50.7858 30.553C51.0798 30.667 51.3198 30.799 51.5058 30.949C51.6978 31.093 51.8388 31.264 51.9288 31.462C52.0188 31.654 52.0638 31.876 52.0638 32.128C52.0638 32.53 51.9588 32.878 51.7488 33.172C51.5388 33.46 51.2358 33.685 50.8398 33.847C50.4438 34.003 49.9668 34.081 49.4088 34.081ZM53.4828 34V27.592H57.9018V28.681H54.8598V30.193H57.7128V31.291H54.8598V32.911H57.9018V34H53.4828ZM61.4237 34.081C61.0997 34.081 60.7817 34.054 60.4697 34C60.1637 33.94 59.8757 33.856 59.6057 33.748C59.3357 33.634 59.1017 33.499 58.9037 33.343L59.3627 32.335C59.6807 32.557 60.0107 32.722 60.3527 32.83C60.6947 32.938 61.0547 32.992 61.4327 32.992C61.8407 32.992 62.1527 32.926 62.3687 32.794C62.5907 32.662 62.7017 32.479 62.7017 32.245C62.7017 32.107 62.6567 31.99 62.5667 31.894C62.4767 31.798 62.3327 31.714 62.1347 31.642C61.9367 31.57 61.6727 31.498 61.3427 31.426C60.9287 31.342 60.5747 31.243 60.2807 31.129C59.9867 31.015 59.7467 30.883 59.5607 30.733C59.3807 30.583 59.2487 30.409 59.1647 30.211C59.0807 30.007 59.0387 29.773 59.0387 29.509C59.0387 29.131 59.1437 28.792 59.3537 28.492C59.5697 28.186 59.8667 27.946 60.2447 27.772C60.6287 27.598 61.0757 27.511 61.5857 27.511C61.8917 27.511 62.1887 27.541 62.4767 27.601C62.7707 27.661 63.0407 27.745 63.2867 27.853C63.5327 27.961 63.7397 28.093 63.9077 28.249L63.4577 29.257C63.1697 29.035 62.8697 28.87 62.5577 28.762C62.2457 28.654 61.9277 28.6 61.6037 28.6C61.2377 28.6 60.9467 28.675 60.7307 28.825C60.5147 28.969 60.4067 29.167 60.4067 29.419C60.4067 29.557 60.4487 29.674 60.5327 29.77C60.6167 29.866 60.7547 29.953 60.9467 30.031C61.1447 30.103 61.4147 30.178 61.7567 30.256C62.1587 30.34 62.5067 30.439 62.8007 30.553C63.0947 30.667 63.3347 30.799 63.5207 30.949C63.7127 31.093 63.8537 31.264 63.9437 31.462C64.0337 31.654 64.0787 31.876 64.0787 32.128C64.0787 32.53 63.9737 32.878 63.7637 33.172C63.5537 33.46 63.2507 33.685 62.8547 33.847C62.4587 34.003 61.9817 34.081 61.4237 34.081Z" fill="#202244"/>
<path fill-rule="evenodd" clip-rule="evenodd" d="M31.133 5.043C31.5 5.082 31.777 5.398 31.777 5.77C31.777 6.145 31.5 6.457 31.133 6.5H28.391C28.023 6.457 27.746 6.145 27.746 5.77C27.746 5.398 28.023 5.082 28.391 5.043H31.133ZM35.594 9.273C35.867 9.242 36.137 9.371 36.285 9.609C36.43 9.848 36.43 10.152 36.285 10.391C36.137 10.629 35.867 10.758 35.594 10.727H28.383C28.016 10.688 27.738 10.375 27.738 10C27.738 9.625 28.016 9.312 28.383 9.273H35.594ZM35.594 13.512C35.988 13.512 36.305 13.836 36.305 14.234C36.305 14.633 35.988 14.957 35.594 14.957H28.383C27.988 14.957 27.668 14.633 27.668 14.234C27.668 13.836 27.988 13.512 28.383 13.512H35.594ZM35.852 0C39.067 0 40.992 1.953 41 5.211V14.789C41 18.047 39.086 20 35.863 20H33.004C32.641 19.961 32.363 19.645 32.363 19.273C32.363 18.898 32.641 18.586 33.004 18.543H35.852C38.309 18.543 39.547 17.281 39.547 14.789V5.211C39.547 2.719 38.309 1.457 35.852 1.457H28.137C25.684 1.457 24.438 2.719 24.438 5.211V14.789C24.438 17.281 25.684 18.543 28.137 18.543C28.504 18.586 28.781 18.898 28.781 19.273C28.781 19.645 28.504 19.961 28.137 20C24.926 20 23 18.047 23 14.789V5.211C23 1.941 24.926 0 28.137 0H35.852Z" fill="#202244"/>
</svg>
