<svg width="71" height="35" viewBox="0 0 71 35" fill="none" xmlns="http://www.w3.org/2000/svg">
<g clip-path="url(#clip0_1_1683)">
<path d="M2.36598 33V27.735H0.358977V26.592H5.79498V27.735H3.78798V33H2.36598ZM6.94134 33V26.592H9.79434C10.5443 26.592 11.1113 26.757 11.4953 27.087C11.8793 27.411 12.0713 27.873 12.0713 28.473C12.0713 29.043 11.8733 29.502 11.4773 29.85C11.0813 30.192 10.5293 30.363 9.82134 30.363L10.5593 30.21C10.7813 30.21 10.9793 30.276 11.1533 30.408C11.3333 30.54 11.4743 30.741 11.5763 31.011L12.3503 33H10.8653L10.0463 30.867C9.98034 30.693 9.87534 30.576 9.73134 30.516C9.58734 30.45 9.42234 30.417 9.23634 30.417H8.32734V33H6.94134ZM8.31834 29.346H9.58734C9.98934 29.346 10.2833 29.277 10.4693 29.139C10.6553 29.001 10.7483 28.791 10.7483 28.509C10.7483 28.221 10.6553 28.011 10.4693 27.879C10.2893 27.741 9.99534 27.672 9.58734 27.672H8.31834V29.346ZM14.3005 33H12.8875L15.8305 26.592H16.9645L19.9075 33H18.5125L16.2445 27.708H16.5865L14.3005 33ZM14.2195 31.578L14.7595 30.507H17.9635L18.4945 31.578H14.2195ZM20.8546 33V26.592H21.8896L25.3456 31.002L25.0846 31.173V26.592H26.4076V33H25.3636L21.9256 28.608L22.1686 28.419V33H20.8546ZM30.3335 33.081C30.0095 33.081 29.6915 33.054 29.3795 33C29.0735 32.94 28.7855 32.856 28.5155 32.748C28.2455 32.634 28.0115 32.499 27.8135 32.343L28.2725 31.335C28.5905 31.557 28.9205 31.722 29.2625 31.83C29.6045 31.938 29.9645 31.992 30.3425 31.992C30.7505 31.992 31.0625 31.926 31.2785 31.794C31.5005 31.662 31.6115 31.479 31.6115 31.245C31.6115 31.107 31.5665 30.99 31.4765 30.894C31.3865 30.798 31.2425 30.714 31.0445 30.642C30.8465 30.57 30.5825 30.498 30.2525 30.426C29.8385 30.342 29.4845 30.243 29.1905 30.129C28.8965 30.015 28.6565 29.883 28.4705 29.733C28.2905 29.583 28.1585 29.409 28.0745 29.211C27.9905 29.007 27.9485 28.773 27.9485 28.509C27.9485 28.131 28.0535 27.792 28.2635 27.492C28.4795 27.186 28.7765 26.946 29.1545 26.772C29.5385 26.598 29.9855 26.511 30.4955 26.511C30.8015 26.511 31.0985 26.541 31.3865 26.601C31.6805 26.661 31.9505 26.745 32.1965 26.853C32.4425 26.961 32.6495 27.093 32.8175 27.249L32.3675 28.257C32.0795 28.035 31.7795 27.87 31.4675 27.762C31.1555 27.654 30.8375 27.6 30.5135 27.6C30.1475 27.6 29.8565 27.675 29.6405 27.825C29.4245 27.969 29.3165 28.167 29.3165 28.419C29.3165 28.557 29.3585 28.674 29.4425 28.77C29.5265 28.866 29.6645 28.953 29.8565 29.031C30.0545 29.103 30.3245 29.178 30.6665 29.256C31.0685 29.34 31.4165 29.439 31.7105 29.553C32.0045 29.667 32.2445 29.799 32.4305 29.949C32.6225 30.093 32.7635 30.264 32.8535 30.462C32.9435 30.654 32.9885 30.876 32.9885 31.128C32.9885 31.53 32.8835 31.878 32.6735 32.172C32.4635 32.46 32.1605 32.685 31.7645 32.847C31.3685 33.003 30.8915 33.081 30.3335 33.081ZM35.0035 33H33.5905L36.5335 26.592H37.6675L40.6105 33H39.2155L36.9475 27.708H37.2895L35.0035 33ZM34.9225 31.578L35.4625 30.507H38.6665L39.1975 31.578H34.9225ZM44.3878 33.081C43.7338 33.081 43.1668 32.946 42.6868 32.676C42.2068 32.406 41.8378 32.025 41.5798 31.533C41.3218 31.035 41.1928 30.453 41.1928 29.787C41.1928 29.127 41.3218 28.551 41.5798 28.059C41.8378 27.567 42.2068 27.186 42.6868 26.916C43.1668 26.646 43.7338 26.511 44.3878 26.511C44.8138 26.511 45.2188 26.577 45.6028 26.709C45.9868 26.835 46.3048 27.015 46.5568 27.249L46.1158 28.257C45.8278 28.041 45.5458 27.885 45.2698 27.789C44.9998 27.687 44.7148 27.636 44.4148 27.636C43.8448 27.636 43.4038 27.819 43.0918 28.185C42.7798 28.545 42.6238 29.079 42.6238 29.787C42.6238 30.495 42.7798 31.035 43.0918 31.407C43.4038 31.773 43.8448 31.956 44.4148 31.956C44.7148 31.956 44.9998 31.908 45.2698 31.812C45.5458 31.71 45.8278 31.551 46.1158 31.335L46.5568 32.343C46.3048 32.577 45.9868 32.76 45.6028 32.892C45.2188 33.018 44.8138 33.081 44.3878 33.081ZM49.331 33V27.735H47.324V26.592H52.76V27.735H50.753V33H49.331ZM53.9064 33V26.592H55.3104V33H53.9064ZM59.9388 33.081C59.2968 33.081 58.7418 32.946 58.2738 32.676C57.8058 32.406 57.4428 32.025 57.1848 31.533C56.9328 31.041 56.8068 30.459 56.8068 29.787C56.8068 29.121 56.9328 28.542 57.1848 28.05C57.4428 27.558 57.8058 27.18 58.2738 26.916C58.7418 26.646 59.2968 26.511 59.9388 26.511C60.5808 26.511 61.1328 26.646 61.5948 26.916C62.0628 27.18 62.4228 27.558 62.6748 28.05C62.9268 28.542 63.0528 29.121 63.0528 29.787C63.0528 30.459 62.9268 31.041 62.6748 31.533C62.4228 32.025 62.0628 32.406 61.5948 32.676C61.1328 32.946 60.5808 33.081 59.9388 33.081ZM59.9388 31.992C60.4668 31.992 60.8838 31.806 61.1898 31.434C61.5018 31.056 61.6578 30.507 61.6578 29.787C61.6578 29.067 61.5018 28.524 61.1898 28.158C60.8838 27.786 60.4668 27.6 59.9388 27.6C59.4048 27.6 58.9848 27.786 58.6788 28.158C58.3728 28.524 58.2198 29.067 58.2198 29.787C58.2198 30.513 58.3728 31.062 58.6788 31.434C58.9848 31.806 59.4048 31.992 59.9388 31.992ZM64.5501 33V26.592H65.5851L69.0411 31.002L68.7801 31.173V26.592H70.1031V33H69.0591L65.6211 28.608L65.8641 28.419V33H64.5501Z" fill="#202244"/>
<path fill-rule="evenodd" clip-rule="evenodd" d="M40.832 8.625C41.199 8.625 41.496 8.93 41.496 9.309C41.496 9.684 41.199 9.988 40.832 9.988H40.527C40.16 9.988 39.859 9.684 39.859 9.309C39.859 8.93 40.16 8.625 40.527 8.625H40.832ZM39.215 0C42.406 0 45 2.656 45 5.918V13.082C45 16.344 42.406 19 39.215 19C38.848 19 38.547 18.695 38.547 18.316C38.547 17.941 38.848 17.637 39.215 17.637C41.668 17.637 43.668 15.594 43.668 13.082V7.363H40.383C39.305 7.367 38.426 8.266 38.426 9.367C38.426 10.473 39.305 11.371 40.383 11.371H41.746C42.117 11.371 42.414 11.68 42.414 12.055C42.414 12.43 42.117 12.738 41.746 12.738H40.383C38.57 12.734 37.094 11.227 37.09 9.367C37.094 7.512 38.57 6 40.383 6H43.668V5.918C43.668 3.406 41.668 1.363 39.215 1.363H30.785C28.805 1.363 27.145 2.699 26.566 4.527H35.355C35.723 4.527 36.02 4.832 36.02 5.211C36.02 5.586 35.723 5.891 35.355 5.891H26.336L26.332 5.918V13.082C26.332 15.594 28.328 17.637 30.785 17.637H35.027C35.395 17.637 35.691 17.941 35.691 18.316C35.691 18.695 35.395 19 35.027 19H30.785C27.594 19 25 16.344 25 13.082V5.918C25 2.656 27.594 0 30.785 0H39.215Z" fill="#202244"/>
</g>
<defs>
<clipPath id="clip0_1_1683">
<rect width="71" height="35" fill="white"/>
</clipPath>
</defs>
</svg>
