<svg width="13" height="19" viewBox="0 0 13 19" fill="none" xmlns="http://www.w3.org/2000/svg">
<path fill-rule="evenodd" clip-rule="evenodd" d="M9.90579 15.58L12.4829 8.49953C12.6014 8.17383 12.4333 7.81328 12.1076 7.69474C11.7819 7.57619 11.4213 7.74432 11.3028 8.07002L8.72571 15.1505C8.05409 16.9957 6.01045 17.9487 4.1652 17.2771C2.31994 16.6055 1.36698 14.5618 2.03859 12.7166L5.33153 3.66931C5.76548 2.47704 7.09018 1.85932 8.28245 2.29327C9.47473 2.72723 10.0924 4.05192 9.65849 5.24419L6.58031 13.7014C6.38287 14.2439 5.78142 14.5243 5.23898 14.3269C4.69654 14.1295 4.41608 13.528 4.61351 12.9856L7.40535 5.31506C7.52389 4.98936 7.35577 4.62881 7.03007 4.51026C6.70436 4.39172 6.34381 4.55984 6.22527 4.88554L3.43343 12.5561C2.99948 13.7483 3.61719 15.073 4.80947 15.507C6.00174 15.9409 7.32643 15.3232 7.76039 14.1309L10.8386 5.67371C11.5102 3.82846 10.5572 1.78481 8.71197 1.1132C6.86672 0.441579 4.82307 1.39455 4.15145 3.2398L0.858515 12.2871C-0.0491911 14.781 1.24178 17.5495 3.73568 18.4572C6.22958 19.3649 8.99808 18.0739 9.90579 15.58Z" fill="#202244"/>
</svg>
