<svg width="68" height="68" viewBox="0 0 68 68" fill="none" xmlns="http://www.w3.org/2000/svg">
<g filter="url(#filter0_d_1_250)">
<circle cx="33" cy="32" r="24" fill="white"/>
</g>
<mask id="mask0_1_250" style="mask-type:luminance" maskUnits="userSpaceOnUse" x="25" y="22" width="17" height="21">
<path fill-rule="evenodd" clip-rule="evenodd" d="M25 22.0005H41.2848V42.0014H25V22.0005Z" fill="white"/>
</mask>
<g mask="url(#mask0_1_250)">
<path fill-rule="evenodd" clip-rule="evenodd" d="M38.6048 32.629C38.6168 31.07 39.4328 29.633 40.7648 28.82C39.9248 27.613 38.5698 26.871 37.1048 26.82C35.5418 26.66 34.1048 27.73 33.2728 27.73C32.4448 27.73 31.2728 26.84 29.9718 26.859C28.2458 26.918 26.6748 27.879 25.8348 29.391C24.0738 32.449 25.3818 37 27.1438 39.469C27.9448 40.68 28.9448 42.051 30.2648 42C31.5848 41.949 32.0148 41.18 33.5428 41.18C35.0738 41.18 35.5418 42 36.8428 41.969C38.1438 41.942 39.0658 40.731 39.9058 39.52C40.4998 38.641 40.9638 37.68 41.2848 36.672C39.6638 35.981 38.6088 34.391 38.6048 32.629ZM36.0848 25.191C36.8468 24.309 37.2298 23.16 37.1438 22C35.9838 22.094 34.9058 22.641 34.1438 23.52C33.4058 24.371 33.0458 25.488 33.1438 26.609C34.2928 26.621 35.3778 26.094 36.0848 25.191Z" fill="#1D1D1B"/>
</g>
<defs>
<filter id="filter0_d_1_250" x="0" y="0" width="68" height="68" filterUnits="userSpaceOnUse" color-interpolation-filters="sRGB">
<feFlood flood-opacity="0" result="BackgroundImageFix"/>
<feColorMatrix in="SourceAlpha" type="matrix" values="0 0 0 0 0 0 0 0 0 0 0 0 0 0 0 0 0 0 127 0" result="hardAlpha"/>
<feOffset dx="1" dy="2"/>
<feGaussianBlur stdDeviation="5"/>
<feColorMatrix type="matrix" values="0 0 0 0 0 0 0 0 0 0 0 0 0 0 0 0 0 0 0.1 0"/>
<feBlend mode="normal" in2="BackgroundImageFix" result="effect1_dropShadow_1_250"/>
<feBlend mode="normal" in="SourceGraphic" in2="effect1_dropShadow_1_250" result="shape"/>
</filter>
</defs>
</svg>
