<svg width="14" height="14" viewBox="0 0 14 14" fill="none" xmlns="http://www.w3.org/2000/svg">
<path fill-rule="evenodd" clip-rule="evenodd" d="M1.96 13.955H10.36C11.4447 13.9528 12.32 13.0713 12.32 11.9883V7.76645C12.32 7.45789 12.0686 7.20645 11.76 7.20645C11.4514 7.20645 11.2 7.45789 11.2 7.76645V11.9883C11.2022 12.4542 10.8259 12.8328 10.36 12.835H1.96C1.49408 12.8328 1.11776 12.4542 1.12 11.9883V3.60173C1.11776 3.13581 1.49408 2.75725 1.96 2.75501H6.16C6.46856 2.75501 6.72 2.50357 6.72 2.19501C6.72 1.88645 6.46856 1.63501 6.16 1.63501H1.96C0.87472 1.63725 0 2.51869 0 3.60173V11.9883C0 13.0713 0.87472 13.9528 1.96 13.955Z" fill="white"/>
<path fill-rule="evenodd" clip-rule="evenodd" d="M6.35275 6.81935L10.1456 3.01751L10.9285 3.80487L7.13339 7.60895L6.12931 7.83015L6.35275 6.81935ZM11.3356 1.82751C11.5563 1.61527 11.9063 1.61527 12.1275 1.82751C12.3442 2.04815 12.3442 2.39815 12.1275 2.61935L11.7316 3.01527L10.9397 2.22343L11.3356 1.82751ZM5.29379 6.41895L4.85195 8.44223C4.81275 8.63039 4.86931 8.82527 5.00539 8.95855C5.14091 9.09015 5.33299 9.14671 5.51891 9.10975L7.54051 8.66791C7.64299 8.64383 7.73931 8.59119 7.81603 8.51447L12.9193 3.41119C13.5756 2.75487 13.5756 1.69199 12.9193 1.03567C12.2546 0.401194 11.2085 0.401194 10.5438 1.03567L5.44891 6.14343C5.37275 6.22015 5.31787 6.31367 5.29379 6.41895Z" fill="white"/>
</svg>
