<svg width="13" height="16" viewBox="0 0 13 16" fill="none" xmlns="http://www.w3.org/2000/svg">
<path fill-rule="evenodd" clip-rule="evenodd" d="M9.2219 0H3.70351C1.42831 0 0.000305176 1.5872 0.000305176 4.1376V14.6592C0.000305176 15.4 0.587505 16 1.30991 16C1.52831 16 1.74431 15.944 1.93791 15.8376L6.42831 13.344L11.6563 15.8528C11.7971 15.9128 11.9563 15.9128 12.1003 15.8528C12.2403 15.7936 12.3531 15.6784 12.4123 15.5344C12.5003 15.2656 12.3939 14.972 12.1595 14.828L6.96591 12.344C6.62431 12.1504 6.2163 12.1504 5.8755 12.344L1.37871 14.828C1.32831 14.856 1.26591 14.856 1.21311 14.828C1.16591 14.7968 1.13791 14.7408 1.13791 14.6784V4.1376C1.14431 2.2528 2.06911 1.1784 3.72431 1.1784H9.2403C11.3659 1.1784 11.6747 2.944 11.6747 4.0032V4.484H5.70351C5.5531 4.4904 5.4099 4.556 5.3035 4.6688C5.2003 4.784 5.14751 4.9344 5.15311 5.0904C5.15871 5.4 5.4035 5.6472 5.70351 5.656H11.6563V11.8344C11.6563 12.156 11.9123 12.4184 12.2283 12.4184C12.5403 12.4184 12.7971 12.1624 12.8003 11.8408V4.0032C12.8003 1.5312 11.4347 0 9.2219 0Z" fill="#200E32"/>
</svg>
