<svg width="68" height="68" viewBox="0 0 68 68" fill="none" xmlns="http://www.w3.org/2000/svg">
<g filter="url(#filter0_d_1_239)">
<circle cx="33" cy="32" r="24" fill="white"/>
</g>
<mask id="mask0_1_239" style="mask-type:luminance" maskUnits="userSpaceOnUse" x="24" y="28" width="5" height="10">
<path fill-rule="evenodd" clip-rule="evenodd" d="M24 28.4011H28.4324V37.7389H24V28.4011Z" fill="white"/>
</mask>
<g mask="url(#mask0_1_239)">
<path fill-rule="evenodd" clip-rule="evenodd" d="M28.4324 35.0861L27.7362 37.6851L25.1917 37.7389C24.4314 36.3285 24 34.7147 24 33C24 31.3418 24.4033 29.7779 25.1182 28.4011H25.1186L27.3839 28.8163L28.3764 31.068C28.1687 31.6737 28.0555 32.3235 28.0555 33C28.0555 33.7341 28.1886 34.4373 28.4324 35.0861Z" fill="#FBBB00"/>
</g>
<mask id="mask1_1_239" style="mask-type:luminance" maskUnits="userSpaceOnUse" x="34" y="31" width="10" height="10">
<path fill-rule="evenodd" clip-rule="evenodd" d="M34.2198 31.1318H44V40.7983H34.2198V31.1318Z" fill="white"/>
</mask>
<g mask="url(#mask1_1_239)">
<path fill-rule="evenodd" clip-rule="evenodd" d="M43.8252 31.1318C43.9401 31.7367 44 32.3615 44 33C44 33.7159 43.9247 34.4143 43.7813 35.0878C43.2945 37.3802 42.0226 39.3818 40.2605 40.7983L40.2599 40.7978L37.4066 40.6523L37.0027 38.1313C38.172 37.4456 39.0857 36.3725 39.5671 35.0878H34.2198V31.1318H43.8252Z" fill="#518EF8"/>
</g>
<path fill-rule="evenodd" clip-rule="evenodd" d="M40.26 40.7979L40.2604 40.7984C38.5467 42.176 36.3697 43.0001 34.0001 43.0001C30.1918 43.0001 26.8808 40.8715 25.1918 37.7392L28.4324 35.0864C29.277 37.3401 31.4511 38.9446 34.0001 38.9446C35.0956 38.9446 36.1221 38.6485 37.0028 38.1315L40.26 40.7979Z" fill="#28B446"/>
<path fill-rule="evenodd" clip-rule="evenodd" d="M40.3829 25.3023L37.1434 27.9544C36.2319 27.3846 35.1543 27.0555 34 27.0555C31.3934 27.0555 29.1785 28.7335 28.3764 31.0681L25.1186 28.4012H25.1182C26.7824 25.1922 30.1351 23 34 23C36.4263 23 38.651 23.8643 40.3829 25.3023Z" fill="#F14336"/>
<defs>
<filter id="filter0_d_1_239" x="0" y="0" width="68" height="68" filterUnits="userSpaceOnUse" color-interpolation-filters="sRGB">
<feFlood flood-opacity="0" result="BackgroundImageFix"/>
<feColorMatrix in="SourceAlpha" type="matrix" values="0 0 0 0 0 0 0 0 0 0 0 0 0 0 0 0 0 0 127 0" result="hardAlpha"/>
<feOffset dx="1" dy="2"/>
<feGaussianBlur stdDeviation="5"/>
<feColorMatrix type="matrix" values="0 0 0 0 0 0 0 0 0 0 0 0 0 0 0 0 0 0 0.1 0"/>
<feBlend mode="normal" in2="BackgroundImageFix" result="effect1_dropShadow_1_239"/>
<feBlend mode="normal" in="SourceGraphic" in2="effect1_dropShadow_1_239" result="shape"/>
</filter>
</defs>
</svg>
