<svg width="23" height="23" viewBox="0 0 23 23" fill="none" xmlns="http://www.w3.org/2000/svg">
<path fill-rule="evenodd" clip-rule="evenodd" d="M9.21852 22.771C8.81962 22.6926 8.56446 22.3052 8.6428 21.9092C8.72115 21.5103 9.10855 21.2551 9.50387 21.3335C14.6508 22.3383 19.7072 19.2225 21.1253 14.174C22.5406 9.12261 19.8395 3.83333 14.9175 2.01704C9.99908 0.20292 4.50999 2.46914 2.3063 7.22798C0.0990224 11.9868 1.92105 17.6412 6.48655 20.2187C6.83155 20.4185 6.95015 20.8591 6.75321 21.2041C6.55412 21.5498 6.1128 21.6677 5.7678 21.4707C0.573398 18.4807 -1.45707 12.0041 1.10455 6.5847C3.66762 1.16892 9.95955 -1.37474 15.5665 0.744857C21.1728 2.86158 24.2138 8.93286 22.5513 14.6908C20.8896 20.4494 15.0835 23.9641 9.2099 22.771H9.21852Z" fill="#202244"/>
<path fill-rule="evenodd" clip-rule="evenodd" d="M11.5176 4.31372C7.54792 4.31372 4.33008 7.53156 4.33008 11.5012C4.33008 15.4709 7.54792 18.6887 11.5176 18.6887C15.4872 18.6887 18.7051 15.4709 18.7051 11.5012C18.7051 7.53156 15.4872 4.31372 11.5176 4.31372ZM11.5176 20.1262C6.75298 20.1262 2.89258 16.2658 2.89258 11.5012C2.89258 6.73663 6.75298 2.87622 11.5176 2.87622C16.2822 2.87622 20.1426 6.73663 20.1426 11.5012C20.1426 16.2658 16.2822 20.1262 11.5176 20.1262Z" fill="#202244"/>
<path fill-rule="evenodd" clip-rule="evenodd" d="M11.5175 17.2513C11.1215 17.2513 10.7988 16.9286 10.7988 16.5325C10.7988 16.1365 11.1215 15.8138 11.5175 15.8138C11.9136 15.8138 12.2363 16.1365 12.2363 16.5325C12.2363 16.9286 11.9136 17.2513 11.5175 17.2513ZM11.5175 14.3763C11.1215 14.3763 10.7988 14.0536 10.7988 13.6575C10.7988 12.6441 11.4083 11.7284 12.3427 11.336C13.4208 10.909 13.9685 9.7044 13.5811 8.6119C13.1937 7.51725 12.0113 6.92787 10.9052 7.27287C9.79901 7.62147 9.16507 8.78081 9.46767 9.89847C9.56901 10.283 9.33614 10.6762 8.95161 10.7739C8.56707 10.8752 8.17392 10.6424 8.07545 10.2578C7.59532 8.39915 8.66195 6.49231 10.4955 5.92809C12.329 5.361 14.2833 6.3349 14.9345 8.1404C15.5857 9.9459 14.7045 11.9447 12.9328 12.6807C12.5224 12.8324 12.2449 13.2198 12.2363 13.6575C12.2363 14.0536 11.9136 14.3763 11.5175 14.3763Z" fill="#202244"/>
</svg>
