<svg width="16" height="20" viewBox="0 0 16 20" fill="none" xmlns="http://www.w3.org/2000/svg">
<path fill-rule="evenodd" clip-rule="evenodd" d="M7.99225 1.53109C6.98025 1.52709 6.01225 1.93009 5.29725 2.64809C4.58225 3.36709 4.18025 4.34409 4.18025 5.35909C4.17625 6.91009 5.10225 8.31209 6.52725 8.91009C7.94925 9.50409 9.59025 9.18009 10.6833 8.08209C11.7733 6.98809 12.1013 5.33609 11.5123 3.90209C10.9223 2.46909 9.53125 1.53109 7.99225 1.53109ZM5.96525 0.406086C7.95325 -0.421914 10.2463 0.0390863 11.7652 1.57409C13.2892 3.10509 13.7422 5.41409 12.9142 7.41409C12.0903 9.41809 10.1442 10.7231 7.99225 10.7191C5.05525 10.7111 2.67625 8.31609 2.67625 5.35909L2.68425 5.12909C2.77025 3.05209 4.04725 1.20709 5.96525 0.406086ZM5.88325 12.7661C7.32025 12.6451 8.76625 12.6451 10.2032 12.7661C10.9882 12.8211 11.7692 12.9341 12.5352 13.1101C14.1952 13.4461 15.2812 14.1061 15.7343 15.0741C16.0972 15.8751 16.0863 16.8011 15.7072 17.5981C15.2462 18.5671 14.1602 19.2271 12.4722 19.5711C11.7113 19.7421 10.9332 19.8521 10.1482 19.9031C9.28525 20.0001 8.55125 20.0001 7.86725 20.0001H7.59825C7.21125 19.9571 6.91825 19.6291 6.91825 19.2391C6.91825 18.8481 7.21125 18.5201 7.59825 18.4771H8.19525C8.79325 18.4691 9.39825 18.4421 10.0002 18.3911C10.7113 18.3441 11.4183 18.2421 12.1173 18.0901C13.3123 17.8281 14.0663 17.4491 14.3013 16.9461C14.4843 16.5631 14.4843 16.1171 14.3013 15.7351C14.0663 15.2231 13.3123 14.8281 12.1403 14.5901C11.4333 14.4301 10.7153 14.3241 9.99225 14.2811C8.64125 14.1561 7.28125 14.1561 5.93025 14.2811C5.21525 14.3281 4.50425 14.4261 3.80525 14.5781C2.60525 14.8441 1.86325 15.2231 1.62125 15.7231C1.53125 15.9141 1.48825 16.1211 1.48825 16.3321C1.48825 16.5431 1.53125 16.7541 1.62125 16.9461C2.03525 17.5201 2.66825 17.8911 3.36725 17.9771L3.46925 18.0041C3.69925 18.0821 3.87925 18.2701 3.94925 18.5121C4.03125 18.7811 3.95325 19.0781 3.75025 19.2781C3.54725 19.4771 3.25025 19.5431 2.98425 19.4531C1.85525 19.2701 0.86725 18.5941 0.28125 17.6061C-0.09375 16.8091 -0.09375 15.8791 0.28125 15.0821C0.74625 14.0861 1.82825 13.4461 3.50025 13.1021C4.28525 12.9301 5.08225 12.8211 5.88325 12.7661Z" fill="#202244"/>
</svg>
