<svg width="185" height="70" viewBox="0 0 185 70" fill="none" xmlns="http://www.w3.org/2000/svg">
<path fill-rule="evenodd" clip-rule="evenodd" d="M66.5 53.6667H3.5C1.568 53.6667 0 52.0987 0 50.1667V3.5C0 1.568 1.568 0 3.5 0H66.5C68.432 0 70 1.568 70 3.5V50.1667C70 52.0987 68.432 53.6667 66.5 53.6667Z" fill="#0455BF"/>
<path fill-rule="evenodd" clip-rule="evenodd" d="M59.5 49.0001H6.99996C5.71196 49.0001 4.66663 47.9547 4.66663 46.6667V7.00008C4.66663 5.71208 5.71196 4.66675 6.99996 4.66675H58.3333C59.6213 4.66675 60.6666 5.71208 60.6666 7.00008V47.8334C60.6666 48.4774 60.144 49.0001 59.5 49.0001Z" fill="#FDFEFF"/>
<path fill-rule="evenodd" clip-rule="evenodd" d="M6.99996 46.6667V7.00008C6.99996 5.71208 8.04529 4.66675 9.33329 4.66675H6.99996C5.71196 4.66675 4.66663 5.71208 4.66663 7.00008V46.6667C4.66663 47.9547 5.71196 49.0001 6.99996 49.0001H9.33329C8.04529 49.0001 6.99996 47.9547 6.99996 46.6667Z" fill="#DFEAEF"/>
<path fill-rule="evenodd" clip-rule="evenodd" d="M45.5 26.8333C45.5 32.6308 40.7976 37.3333 35 37.3333C29.2024 37.3333 24.5 32.6308 24.5 26.8333C24.5 21.0357 29.2024 16.3333 35 16.3333C40.7976 16.3333 45.5 21.0357 45.5 26.8333Z" fill="#0455BF"/>
<path fill-rule="evenodd" clip-rule="evenodd" d="M39.6666 31.5C39.6666 30.6678 40.1162 29.9025 40.8333 29.4887C39.284 28.5709 37.3209 29.6956 37.3333 31.5V35C38.1173 35 38.9013 34.9082 39.6666 34.7325V31.5Z" fill="#004787"/>
<path fill-rule="evenodd" clip-rule="evenodd" d="M37.3333 34.9999C33.3838 35.0062 29.7687 32.7942 27.9751 29.2755C26.1831 25.7584 26.5176 21.535 28.8385 18.3384C26.348 20.1428 24.7738 22.9444 24.5311 26.0073C24.2869 29.0702 25.3991 32.0833 27.5753 34.2579C29.7438 36.4279 32.7585 37.5402 35.8198 37.2975C38.8827 37.0533 41.6905 35.4806 43.4887 32.9886C41.7029 34.2953 39.5453 34.9999 37.3333 34.9999Z" fill="#004787"/>
<path fill-rule="evenodd" clip-rule="evenodd" d="M32.6667 31.5C32.0227 31.5 31.5 30.9773 31.5 30.3333V23.3333C31.5 22.4637 32.4116 21.8991 33.1893 22.288L40.1893 25.788C40.9002 26.1473 41.0527 27.0946 40.4927 27.6531C40.3107 27.8366 40.3107 27.8366 33.1893 31.3724C33.0244 31.458 32.8487 31.5 32.6667 31.5Z" fill="#FEBC00"/>
<path fill-rule="evenodd" clip-rule="evenodd" d="M40.1891 25.7882L39.9605 25.6731L35.5225 27.8789C34.7447 28.2678 33.8331 27.7031 33.8331 26.8335V22.6102L33.1891 22.2882C32.4113 21.8993 31.4998 22.464 31.4998 23.3335V30.3335C31.4936 31.2031 32.4051 31.7678 33.1829 31.3851C40.298 27.8478 40.298 27.8478 40.4862 27.6658C41.0462 27.1011 40.8938 26.1522 40.1829 25.8006L40.1891 25.7882Z" fill="#EDAA03"/>
<path fill-rule="evenodd" clip-rule="evenodd" d="M22.1666 39.6667H11.6666V42.0001H44.3333V39.6667H22.1666Z" fill="#0455BF"/>
<path fill-rule="evenodd" clip-rule="evenodd" d="M65.3333 24.5C66.6213 24.5 67.6667 25.788 67.6667 26.8333C67.6667 28.1213 66.6213 29.1667 65.3333 29.1667C64.0453 29.1667 63 27.8787 63 26.8333C63 25.5453 64.0453 24.5 65.3333 24.5Z" fill="#FEBC00"/>
<path fill-rule="evenodd" clip-rule="evenodd" d="M66.5 28C64.8044 28.0062 63.6751 26.25 64.3797 24.7131C62.8848 25.3742 62.5193 27.3374 63.6751 28.4916C64.8355 29.652 66.7924 29.288 67.4597 27.7931C67.1564 27.9269 66.8282 28 66.5 28Z" fill="#EDAA03"/>
<path fill-rule="evenodd" clip-rule="evenodd" d="M56 46.6667C54.712 46.6667 53.6666 47.7121 53.6666 49.0001V45.5001C53.6666 42.389 49 42.389 49 45.5001V40.8334C49 37.7223 44.3333 37.7223 44.3333 40.8334V31.5001C44.3333 28.389 39.6666 28.389 39.6666 31.5001V55.0341C39.6666 56.3283 38.1049 56.9723 37.1933 56.0607L32.6666 51.5341C31.7613 50.5976 30.2602 50.5867 29.3424 51.5092C28.42 52.427 28.4309 53.9281 29.3673 54.8334L34.314 59.7863L36.3969 61.8645C38.5544 64.0205 39.7693 66.9496 39.7693 70.0001H55.314V69.563C55.314 67.8861 55.8413 66.2512 56.8198 64.8839C57.8044 63.5227 58.3333 61.8879 58.3333 60.211V49.0001C58.3333 47.7121 57.288 46.6667 56 46.6667Z" fill="#ECC19C"/>
<path fill-rule="evenodd" clip-rule="evenodd" d="M18.6667 43.1666C16.5884 43.1666 15.5493 40.6513 17.0147 39.1813C18.4847 37.7159 21 38.7551 21 40.8333C21 42.1213 19.9547 43.1666 18.6667 43.1666Z" fill="#FEBC00"/>
<path fill-rule="evenodd" clip-rule="evenodd" d="M19.8333 42C18.1378 42.0062 17.0084 40.25 17.7131 38.7131C16.2182 39.3742 15.8527 41.3374 17.0084 42.4916C18.1689 43.652 20.1258 43.288 20.7931 41.7931C20.4898 41.9269 20.1616 42 19.8333 42Z" fill="#EDAA03"/>
<path fill-rule="evenodd" clip-rule="evenodd" d="M29.3672 51.5338C29.5134 51.3938 29.6767 51.2724 29.8478 51.1698C28.1025 50.1478 25.976 51.6924 26.4023 53.6664H28.7356C28.5707 52.8949 28.8087 52.0922 29.3672 51.5338ZM37.3332 53.6664H39.6665V48.9998H37.3332V53.6664Z" fill="#004787"/>
<mask id="mask0_1_168" style="mask-type:luminance" maskUnits="userSpaceOnUse" x="0" y="0" width="70" height="70">
<path fill-rule="evenodd" clip-rule="evenodd" d="M0 70H70V0H0V70Z" fill="white"/>
</mask>
<g mask="url(#mask0_1_168)">
<path fill-rule="evenodd" clip-rule="evenodd" d="M37.3334 49H39.6667V42H37.3334V49ZM39.6667 36.2273C39.3929 36.3611 39.1145 36.4886 38.8345 36.5975C38.7365 36.6349 38.64 36.6706 38.5358 36.708C38.2745 36.8044 38.0085 36.8837 37.7347 36.9569C37.6196 36.9864 37.492 37.0237 37.3691 37.0533L37.3271 37.0657V39.6666H39.6605L39.6667 36.2273Z" fill="#DFEAEF"/>
<path fill-rule="evenodd" clip-rule="evenodd" d="M39.6667 34.7327C38.9014 34.9084 38.1174 35.0002 37.3334 35.0002V37.0598L37.3754 37.0536C37.8747 36.9322 38.36 36.7798 38.8345 36.5978C39.1192 36.4827 39.3992 36.3676 39.6667 36.2213V34.7327ZM37.3334 42.0002H39.6667V39.6669H37.3334V42.0002Z" fill="#004787"/>
</g>
<g clip-path="url(#clip0_1_168)">
<path d="M98.1256 13.44H92.3356V18.39H96.2056V20.31H92.3356V26.82C93.2356 27.42 94.1456 27.83 95.0656 28.05C95.9856 28.27 97.0056 28.38 98.1256 28.38L98.0056 30.3C96.0656 30.3 94.3556 29.98 92.8756 29.34C91.3956 28.7 90.1556 27.94 89.1556 27.06L90.2356 25.68V13.44L89.6356 11.52H98.1256V13.44ZM103.596 13.65L103.026 12C103.486 11.78 104.066 11.6 104.766 11.46C105.486 11.3 106.256 11.22 107.076 11.22C108.776 11.22 110.166 11.65 111.246 12.51C112.326 13.35 113.126 14.48 113.646 15.9C114.166 17.32 114.426 18.89 114.426 20.61C114.426 22.45 114.146 24.08 113.586 25.5C113.026 26.9 112.126 28 110.886 28.8C109.646 29.6 108.006 30 105.966 30H103.596V13.65ZM105.696 28.08H106.296C107.796 28.08 108.986 27.76 109.866 27.12C110.746 26.46 111.376 25.57 111.756 24.45C112.136 23.33 112.326 22.05 112.326 20.61C112.326 18.15 111.846 16.29 110.886 15.03C109.926 13.77 108.666 13.14 107.106 13.14C106.566 13.14 106.096 13.19 105.696 13.29V28.08ZM132.178 28.23C130.938 29.15 129.798 29.73 128.758 29.97C127.738 30.19 126.908 30.3 126.268 30.3C123.788 30.3 122.048 29.41 121.048 27.63C120.548 26.77 120.268 25.89 120.208 24.99C120.148 24.09 120.118 23.21 120.118 22.35V11.52H122.248V22.41C122.248 23.61 122.328 24.58 122.488 25.32C122.648 26.06 122.898 26.66 123.238 27.12C123.478 27.38 123.838 27.66 124.318 27.96C124.798 28.24 125.448 28.38 126.268 28.38C127.208 28.38 128.158 28.13 129.118 27.63V11.52H131.218V26.55L132.178 28.23ZM137.011 12.33C137.771 11.99 138.641 11.72 139.621 11.52C140.621 11.32 141.521 11.22 142.321 11.22C143.141 11.22 143.901 11.35 144.601 11.61C145.301 11.85 145.871 12.2 146.311 12.66C147.011 13.36 147.411 14.11 147.511 14.91C147.611 15.71 147.661 16.49 147.661 17.25V20.31H139.951V30H137.851V13.98L137.011 12.33ZM139.951 18.39H145.621V17.28C145.621 16.86 145.581 16.36 145.501 15.78C145.441 15.2 145.211 14.66 144.811 14.16C144.371 13.68 143.911 13.39 143.431 13.29C142.971 13.19 142.561 13.14 142.201 13.14C141.801 13.14 141.391 13.18 140.971 13.26C140.551 13.32 140.211 13.4 139.951 13.5V18.39ZM152.307 12.33C153.067 11.99 153.867 11.72 154.707 11.52C155.567 11.32 156.397 11.22 157.197 11.22C158.037 11.22 158.817 11.34 159.537 11.58C160.277 11.8 160.887 12.13 161.367 12.57C162.087 13.21 162.527 13.91 162.687 14.67C162.867 15.41 162.957 16.16 162.957 16.92V20.31H160.047L163.977 29.46L162.027 30.3L157.707 20.31H155.217V30H153.117V13.98L152.307 12.33ZM155.217 18.39H160.917V17.37C160.917 16.91 160.867 16.4 160.767 15.84C160.667 15.26 160.427 14.76 160.047 14.34C159.607 13.86 159.137 13.54 158.637 13.38C158.157 13.22 157.677 13.14 157.197 13.14C156.417 13.14 155.757 13.26 155.217 13.5V18.39ZM174.424 11.22C175.824 11.22 176.924 11.54 177.724 12.18C178.544 12.8 179.124 13.63 179.464 14.67C179.804 15.71 179.974 16.87 179.974 18.15V26.49L181.054 27.87C180.394 28.43 179.524 28.98 178.444 29.52C177.364 30.04 176.024 30.3 174.424 30.3C172.964 30.3 171.784 30.1 170.884 29.7C170.004 29.3 169.334 28.94 168.874 28.62V18.15C168.874 16.87 169.044 15.71 169.384 14.67C169.724 13.63 170.294 12.8 171.094 12.18C171.914 11.54 173.024 11.22 174.424 11.22ZM174.424 28.38C175.844 28.38 176.994 28.07 177.874 27.45V18.15C177.874 17.33 177.784 16.54 177.604 15.78C177.424 15.02 177.084 14.39 176.584 13.89C176.104 13.39 175.384 13.14 174.424 13.14C173.464 13.14 172.734 13.39 172.234 13.89C171.754 14.39 171.424 15.02 171.244 15.78C171.064 16.54 170.974 17.33 170.974 18.15V27.45C171.854 28.07 173.004 28.38 174.424 28.38Z" fill="#332DA1"/>
<path d="M84.3815 44.779H86.9115V46H82.8415V38.322H84.3815V44.779ZM89.4303 39.565V41.49H92.0153V42.711H89.4303V44.746H92.3453V46H87.8903V38.311H92.3453V39.565H89.4303ZM98.4528 44.537H95.3948L94.8888 46H93.2718L96.0328 38.311H97.8258L100.587 46H98.9588L98.4528 44.537ZM98.0348 43.305L96.9238 40.093L95.8128 43.305H98.0348ZM105.579 46L103.885 43.008H103.159V46H101.619V38.322H104.501C105.095 38.322 105.601 38.4283 106.019 38.641C106.437 38.8463 106.749 39.1287 106.954 39.488C107.167 39.84 107.273 40.236 107.273 40.676C107.273 41.182 107.126 41.6403 106.833 42.051C106.54 42.4543 106.103 42.733 105.524 42.887L107.361 46H105.579ZM103.159 41.853H104.446C104.864 41.853 105.176 41.754 105.381 41.556C105.586 41.3507 105.689 41.0683 105.689 40.709C105.689 40.357 105.586 40.0857 105.381 39.895C105.176 39.697 104.864 39.598 104.446 39.598H103.159V41.853ZM115.233 46H113.693L110.206 40.731V46H108.666V38.311H110.206L113.693 43.591V38.311H115.233V46ZM124.117 38.322V39.565H120.916V41.534H123.369V42.755H120.916V46H119.376V38.322H124.117ZM129.169 46L127.475 43.008H126.749V46H125.209V38.322H128.091C128.685 38.322 129.191 38.4283 129.609 38.641C130.027 38.8463 130.338 39.1287 130.544 39.488C130.756 39.84 130.863 40.236 130.863 40.676C130.863 41.182 130.716 41.6403 130.423 42.051C130.129 42.4543 129.693 42.733 129.114 42.887L130.951 46H129.169ZM126.749 41.853H128.036C128.454 41.853 128.765 41.754 128.971 41.556C129.176 41.3507 129.279 41.0683 129.279 40.709C129.279 40.357 129.176 40.0857 128.971 39.895C128.765 39.697 128.454 39.598 128.036 39.598H126.749V41.853ZM135.82 46.077C135.101 46.077 134.441 45.9083 133.84 45.571C133.238 45.2337 132.762 44.768 132.41 44.174C132.058 43.5727 131.882 42.8943 131.882 42.139C131.882 41.391 132.058 40.72 132.41 40.126C132.762 39.5247 133.238 39.0553 133.84 38.718C134.441 38.3807 135.101 38.212 135.82 38.212C136.546 38.212 137.206 38.3807 137.8 38.718C138.401 39.0553 138.874 39.5247 139.219 40.126C139.571 40.72 139.747 41.391 139.747 42.139C139.747 42.8943 139.571 43.5727 139.219 44.174C138.874 44.768 138.401 45.2337 137.8 45.571C137.198 45.9083 136.538 46.077 135.82 46.077ZM135.82 44.702C136.282 44.702 136.689 44.5993 137.041 44.394C137.393 44.1813 137.668 43.8807 137.866 43.492C138.064 43.1033 138.163 42.6523 138.163 42.139C138.163 41.6257 138.064 41.1783 137.866 40.797C137.668 40.4083 137.393 40.1113 137.041 39.906C136.689 39.7007 136.282 39.598 135.82 39.598C135.358 39.598 134.947 39.7007 134.588 39.906C134.236 40.1113 133.961 40.4083 133.763 40.797C133.565 41.1783 133.466 41.6257 133.466 42.139C133.466 42.6523 133.565 43.1033 133.763 43.492C133.961 43.8807 134.236 44.1813 134.588 44.394C134.947 44.5993 135.358 44.702 135.82 44.702ZM149.263 38.322V46H147.723V41.006L145.666 46H144.5L142.432 41.006V46H140.892V38.322H142.641L145.083 44.031L147.525 38.322H149.263ZM159.776 38.322V46H158.236V42.733H154.947V46H153.407V38.322H154.947V41.479H158.236V38.322H159.776ZM164.856 46.077C164.137 46.077 163.477 45.9083 162.876 45.571C162.274 45.2337 161.798 44.768 161.446 44.174C161.094 43.5727 160.918 42.8943 160.918 42.139C160.918 41.391 161.094 40.72 161.446 40.126C161.798 39.5247 162.274 39.0553 162.876 38.718C163.477 38.3807 164.137 38.212 164.856 38.212C165.582 38.212 166.242 38.3807 166.836 38.718C167.437 39.0553 167.91 39.5247 168.255 40.126C168.607 40.72 168.783 41.391 168.783 42.139C168.783 42.8943 168.607 43.5727 168.255 44.174C167.91 44.768 167.437 45.2337 166.836 45.571C166.234 45.9083 165.574 46.077 164.856 46.077ZM164.856 44.702C165.318 44.702 165.725 44.5993 166.077 44.394C166.429 44.1813 166.704 43.8807 166.902 43.492C167.1 43.1033 167.199 42.6523 167.199 42.139C167.199 41.6257 167.1 41.1783 166.902 40.797C166.704 40.4083 166.429 40.1113 166.077 39.906C165.725 39.7007 165.318 39.598 164.856 39.598C164.394 39.598 163.983 39.7007 163.624 39.906C163.272 40.1113 162.997 40.4083 162.799 40.797C162.601 41.1783 162.502 41.6257 162.502 42.139C162.502 42.6523 162.601 43.1033 162.799 43.492C162.997 43.8807 163.272 44.1813 163.624 44.394C163.983 44.5993 164.394 44.702 164.856 44.702ZM178.299 38.322V46H176.759V41.006L174.702 46H173.536L171.468 41.006V46H169.928V38.322H171.677L174.119 44.031L176.561 38.322H178.299ZM181.362 39.565V41.49H183.947V42.711H181.362V44.746H184.277V46H179.822V38.311H184.277V39.565H181.362Z" fill="black"/>
</g>
<defs>
<clipPath id="clip0_1_168">
<rect width="103" height="45" fill="white" transform="translate(82 5)"/>
</clipPath>
</defs>
</svg>
