<svg width="12" height="12" viewBox="0 0 12 12" fill="none" xmlns="http://www.w3.org/2000/svg">
<path fill-rule="evenodd" clip-rule="evenodd" d="M6.58815 0.373103L7.92435 3.0569C8.02275 3.2513 8.20995 3.3875 8.42775 3.4199L11.426 3.8561C11.6012 3.8819 11.7608 3.9731 11.8664 4.1135C11.9744 4.2545 12.0188 4.4303 11.993 4.6037C11.972 4.7465 11.9036 4.8803 11.801 4.9811L9.62775 7.0859C9.46875 7.2359 9.39615 7.4513 9.43335 7.6643L9.97035 10.6271C10.0286 10.9811 9.79215 11.3159 9.43335 11.3885C9.28815 11.4119 9.13815 11.3885 9.00675 11.3207L6.33015 9.9263C6.13095 9.8255 5.89695 9.8255 5.70015 9.9263L3.02355 11.3207C2.69235 11.4965 2.28075 11.3747 2.10195 11.0513C2.03475 10.9223 2.01135 10.7747 2.03235 10.6319L2.56815 7.6691C2.60655 7.4585 2.53395 7.2401 2.37435 7.0901L0.201153 4.9877C0.0751531 4.8635 0.00195312 4.6949 0.00195312 4.5191C0.00195312 4.3433 0.0751531 4.1747 0.201153 4.0505C0.304353 3.9473 0.439953 3.8795 0.588153 3.8609L3.58635 3.4247C3.80355 3.3917 3.99075 3.2585 4.08735 3.0617L5.37855 0.373103C5.49075 0.145703 5.72775 0.000503467 5.98815 0.00530347H6.06795C6.29295 0.0335035 6.48975 0.171503 6.58815 0.373103Z" fill="#FCCB40"/>
<path fill-rule="evenodd" clip-rule="evenodd" d="M6.00441 9.84655C5.88681 9.84655 5.77701 9.88615 5.67141 9.93775L3.00441 11.328C2.68341 11.4894 2.27781 11.3604 2.10201 11.0514C2.03421 10.9248 2.00841 10.7796 2.03181 10.6362L2.56821 7.68115C2.60361 7.46515 2.53101 7.24975 2.37381 7.09735L0.196406 4.99255C-0.0657941 4.73515 -0.0657941 4.31515 0.196406 4.05535C0.299606 3.95455 0.433406 3.88855 0.576206 3.86755L3.58581 3.42475C3.81501 3.39175 3.98181 3.26335 4.08681 3.06175L5.39481 0.342554C5.49321 0.122354 5.82861 -0.0300459 6.00921 0.00535407C6.00441 0.185954 6.00441 9.72715 6.00441 9.84655Z" fill="#FAC025"/>
</svg>
