<svg width="16" height="18" viewBox="0 0 16 18" fill="none" xmlns="http://www.w3.org/2000/svg">
<path fill-rule="evenodd" clip-rule="evenodd" d="M9.16551 7.94495C9.16022 8.30061 8.97407 8.63256 8.65986 8.82848V10.5294C8.65986 10.8751 8.36545 11.1534 7.99975 11.1534C7.63405 11.1534 7.33965 10.8751 7.33965 10.5294V8.82848C7.02543 8.63256 6.83928 8.30061 6.834 7.94495C6.834 7.33597 7.35549 6.84304 7.99975 6.84304C8.64402 6.84304 9.16551 7.33597 9.16551 7.94495ZM14.4728 10.2998C14.0648 12.9466 10.9135 15.2815 9.07705 16.442C8.42222 16.8563 7.57729 16.8563 6.92246 16.442C5.08604 15.2815 1.93468 12.9466 1.53333 10.3734L1.32078 4.2274C1.31154 3.94786 1.49637 3.69953 1.78021 3.61217C3.81731 3.05061 5.78179 2.29063 7.64858 1.33971C7.86509 1.20868 8.13442 1.20868 8.35093 1.33971C10.2177 2.29063 12.1875 3.05061 14.2246 3.61217C14.5031 3.69953 14.6893 3.94786 14.6787 4.2274L14.4728 10.2998ZM14.6167 2.42166C12.6826 1.89129 10.8158 1.16999 9.03613 0.27773C8.40242 -0.0929022 7.59709 -0.0929022 6.96339 0.27773C5.18373 1.16999 3.31695 1.89129 1.38283 2.42166C0.53789 2.67623 -0.024522 3.43122 0.000562107 4.26983L0.217078 10.4807C0.708198 13.6055 4.16849 16.2087 6.19502 17.4803C7.28816 18.1729 8.71135 18.1729 9.80449 17.4803C11.8323 16.2087 15.2926 13.6055 15.7877 10.4121L15.9989 4.26983C16.024 3.43122 15.4629 2.67623 14.6167 2.42166Z" fill="#202244"/>
</svg>
