<svg width="70" height="76" viewBox="0 0 70 76" fill="none" xmlns="http://www.w3.org/2000/svg">
<path fill-rule="evenodd" clip-rule="evenodd" d="M8.50049 20.2496V36.4136L22.4995 44.4966L36.5005 36.4136V20.2496L22.4995 12.1676L8.50049 20.2496Z" fill="#B386BC"/>
<path fill-rule="evenodd" clip-rule="evenodd" d="M22.5 44.4961L36.5 36.4141L36.48 20.2501L22.48 28.3321L22.5 44.4961Z" fill="#CBAAD0"/>
<path fill-rule="evenodd" clip-rule="evenodd" d="M8.54272 20.2271L22.4997 28.2811L36.4567 20.2271L22.4997 12.1671L8.54272 20.2271Z" fill="#EADDED"/>
<path fill-rule="evenodd" clip-rule="evenodd" d="M43.5 40.7928C43.5 46.0388 39.246 50.2928 34 50.2928C28.754 50.2928 24.5 46.0388 24.5 40.7928C24.5 35.5468 28.754 31.2928 34 31.2928C39.246 31.2928 43.5 35.5468 43.5 40.7928Z" fill="#EADDED"/>
<path fill-rule="evenodd" clip-rule="evenodd" d="M45.5 2.37109L36.5 25.3511V31.6441C40.531 32.7421 43.5 36.4141 43.5 40.7931C43.5 42.1011 43.23 43.3911 42.707 44.5901L45.5 46.2031L59.5 38.1171L45.5 2.37109Z" fill="#CBAAD0"/>
<path fill-rule="evenodd" clip-rule="evenodd" d="M45.5 2.37109L36.5 25.3511V31.6441C40.531 32.7421 43.5 36.4141 43.5 40.7931C43.5 42.1011 43.23 43.3911 42.707 44.5901L45.5 46.2031V2.37109Z" fill="#B386BC"/>
<mask id="mask0_1_896" style="mask-type:luminance" maskUnits="userSpaceOnUse" x="8" y="0" width="53" height="51">
<path fill-rule="evenodd" clip-rule="evenodd" d="M8 0.999878H60.1207V50.7929H8V0.999878Z" fill="white"/>
</mask>
<g mask="url(#mask0_1_896)">
<path fill-rule="evenodd" clip-rule="evenodd" d="M43.4298 44.0859C43.4848 43.9339 43.5388 43.7769 43.5858 43.6209C43.6328 43.4609 43.6718 43.3009 43.7108 43.1369C43.7458 42.9919 43.7818 42.8519 43.8128 42.7069C43.8518 42.5119 43.8748 42.3089 43.9028 42.1089C43.9178 41.9919 43.9378 41.8829 43.9498 41.7659C43.9808 41.4409 43.9998 41.1169 43.9998 40.7929C43.9998 40.4809 43.9808 40.1759 43.9528 39.8709C43.9418 39.7579 43.9258 39.6489 43.9098 39.5389C43.8708 39.2149 43.8168 38.8949 43.7418 38.5739C43.7068 38.4299 43.6718 38.2849 43.6288 38.1369C43.5898 37.9879 43.5468 37.8359 43.4998 37.6879C43.4688 37.5899 43.4298 37.4959 43.3948 37.4019C43.2578 37.0239 43.0978 36.6559 42.9178 36.2969C42.9028 36.2619 42.8868 36.2309 42.8708 36.1949C42.7698 36.0079 42.6678 35.8239 42.5548 35.6449L42.4498 35.4689C42.3358 35.2889 42.2188 35.1169 42.0938 34.9449L41.9848 34.8009C40.7348 33.1289 38.9928 31.8909 36.9998 31.2579V25.4489L44.9998 5.01988V45.3399L43.3358 44.3789C43.3708 44.2809 43.3988 44.1839 43.4298 44.0859ZM33.9998 49.7929C29.7228 49.7929 26.1378 46.7889 25.2298 42.7809C25.0778 42.1289 25.0038 41.4609 24.9998 40.7929C24.9998 35.8279 29.0348 31.7929 33.9998 31.7929C34.3708 31.7929 34.7458 31.8199 35.1248 31.8709L35.2578 31.8909C35.5858 31.9379 35.9178 32.0079 36.2498 32.0939L36.3678 32.1289C38.0198 32.5779 39.5078 33.4919 40.6598 34.7619L40.7028 34.8129C40.8518 34.9769 40.9918 35.1449 41.1288 35.3199L41.1798 35.3909C41.7108 36.0939 42.1328 36.8709 42.4418 37.7029C42.4728 37.7849 42.5038 37.8669 42.5318 37.9489C42.5818 38.0979 42.6208 38.2419 42.6638 38.3909C42.7348 38.6449 42.7928 38.8989 42.8438 39.1519C42.8708 39.3159 42.8988 39.4809 42.9178 39.6449C42.9338 39.7459 42.9498 39.8519 42.9568 39.9569C42.9848 40.2309 42.9998 40.5119 42.9998 40.7929C42.9998 41.1019 42.9848 41.4099 42.9528 41.7149C42.9498 41.7459 42.9418 41.7769 42.9378 41.8089C42.9098 42.0819 42.8678 42.3559 42.8128 42.6249C42.8088 42.6489 42.7968 42.6759 42.7928 42.7029C42.7348 42.9769 42.6638 43.2459 42.5778 43.5119C42.5708 43.5429 42.5548 43.5739 42.5428 43.6089C42.4608 43.8629 42.3638 44.1129 42.2578 44.3589C40.8748 47.5549 37.6958 49.7929 33.9998 49.7929ZM22.9998 43.3359V28.6599L35.9998 21.1519V30.9959C35.3438 30.8589 34.6718 30.7929 33.9998 30.7929C28.4838 30.7929 23.9998 35.2769 23.9998 40.7929C23.9998 41.1019 24.0158 41.4179 24.0468 41.7339C24.0778 42.0469 24.1208 42.3519 24.1798 42.6559L22.9998 43.3359ZM8.99976 21.1519L21.9998 28.6599V43.3359L8.99976 35.8319V21.1519ZM35.3558 20.3709L22.4998 27.7929L9.64476 20.3709L22.4998 12.9489L35.3558 20.3709ZM45.9998 45.3359V5.01988L58.8788 37.9019L45.9998 45.3359ZM60.1208 38.3399L45.4998 0.999878L36.9998 22.7029V20.1639L22.4998 11.7929L7.99976 20.1639V36.4099L22.4998 44.7769L24.4268 43.6679C25.6638 47.7849 29.4838 50.7929 33.9998 50.7929C37.8948 50.7929 41.2698 48.5509 42.9178 45.2889L45.4998 46.7769L60.1208 38.3399Z" fill="#8E5AA4"/>
</g>
<path d="M4.52452 72.14C3.84318 72.14 3.18985 72.042 2.56452 71.846C1.93918 71.6407 1.42585 71.3607 1.02452 71.006L1.61252 69.648C2.05118 69.984 2.50385 70.2313 2.97052 70.39C3.44652 70.5487 3.94585 70.628 4.46852 70.628C5.10318 70.628 5.58385 70.502 5.91052 70.25C6.23718 69.998 6.40052 69.6293 6.40052 69.144C6.40052 68.6773 6.23718 68.3273 5.91052 68.094C5.59318 67.8513 5.12652 67.73 4.51052 67.73H2.91452V66.288H4.35652C4.88852 66.288 5.31318 66.1573 5.63052 65.896C5.94785 65.6347 6.10652 65.2753 6.10652 64.818C6.10652 64.3887 5.95718 64.062 5.65852 63.838C5.36918 63.614 4.94918 63.502 4.39852 63.502C3.40918 63.502 2.53652 63.838 1.78052 64.51L1.19252 63.166C1.59385 62.7927 2.08852 62.5033 2.67652 62.298C3.27385 62.0927 3.89918 61.99 4.55252 61.99C5.57918 61.99 6.38185 62.2233 6.96052 62.69C7.54852 63.1473 7.84252 63.7867 7.84252 64.608C7.84252 65.196 7.67452 65.7047 7.33852 66.134C7.01185 66.554 6.55918 66.834 5.98052 66.974V66.806C6.66185 66.918 7.18918 67.198 7.56252 67.646C7.94518 68.0847 8.13652 68.6353 8.13652 69.298C8.13652 70.1753 7.81452 70.8707 7.17052 71.384C6.52652 71.888 5.64452 72.14 4.52452 72.14ZM9.96505 72V62.13H13.549C14.6784 62.13 15.6304 62.326 16.405 62.718C17.189 63.1007 17.7817 63.6607 18.183 64.398C18.5844 65.126 18.785 66.0127 18.785 67.058C18.785 68.094 18.5844 68.9807 18.183 69.718C17.7817 70.4553 17.189 71.02 16.405 71.412C15.6304 71.804 14.6784 72 13.549 72H9.96505ZM11.771 70.502H13.437C14.6317 70.502 15.5184 70.2173 16.097 69.648C16.6757 69.0787 16.965 68.2153 16.965 67.058C16.965 65.8913 16.6757 65.028 16.097 64.468C15.5184 63.8987 14.6317 63.614 13.437 63.614H11.771V70.502ZM24.4709 72V62.13H28.0549C29.1842 62.13 30.1362 62.326 30.9109 62.718C31.6949 63.1007 32.2876 63.6607 32.6889 64.398C33.0902 65.126 33.2909 66.0127 33.2909 67.058C33.2909 68.094 33.0902 68.9807 32.6889 69.718C32.2876 70.4553 31.6949 71.02 30.9109 71.412C30.1362 71.804 29.1842 72 28.0549 72H24.4709ZM26.2769 70.502H27.9429C29.1376 70.502 30.0242 70.2173 30.6029 69.648C31.1816 69.0787 31.4709 68.2153 31.4709 67.058C31.4709 65.8913 31.1816 65.028 30.6029 64.468C30.0242 63.8987 29.1376 63.614 27.9429 63.614H26.2769V70.502ZM38.411 72.14C37.2256 72.14 36.297 71.8133 35.625 71.16C34.953 70.5067 34.617 69.6107 34.617 68.472C34.617 67.7347 34.7616 67.0907 35.051 66.54C35.3403 65.9893 35.7416 65.56 36.255 65.252C36.7776 64.944 37.3843 64.79 38.075 64.79C38.7563 64.79 39.3256 64.9347 39.783 65.224C40.2403 65.5133 40.5856 65.9193 40.819 66.442C41.0616 66.9647 41.183 67.576 41.183 68.276V68.738H36.031V67.814H39.937L39.699 68.01C39.699 67.3567 39.559 66.8573 39.279 66.512C39.0083 66.1667 38.6116 65.994 38.089 65.994C37.5103 65.994 37.0623 66.1993 36.745 66.61C36.437 67.0207 36.283 67.5947 36.283 68.332V68.514C36.283 69.2793 36.4696 69.8533 36.843 70.236C37.2256 70.6093 37.7623 70.796 38.453 70.796C38.8543 70.796 39.2276 70.7447 39.573 70.642C39.9276 70.53 40.2636 70.3527 40.581 70.11L41.099 71.286C40.763 71.5567 40.3616 71.7667 39.895 71.916C39.4283 72.0653 38.9336 72.14 38.411 72.14ZM45.1849 72.14C44.5782 72.14 44.0182 72.07 43.5049 71.93C43.0009 71.7807 42.5762 71.5753 42.2309 71.314L42.7209 70.138C43.0756 70.3807 43.4676 70.5673 43.8969 70.698C44.3262 70.8287 44.7602 70.894 45.1989 70.894C45.6656 70.894 46.0109 70.8147 46.2349 70.656C46.4682 70.4973 46.5849 70.2827 46.5849 70.012C46.5849 69.7973 46.5102 69.6293 46.3609 69.508C46.2209 69.3773 45.9922 69.2793 45.6749 69.214L44.2749 68.948C43.6776 68.8173 43.2202 68.5933 42.9029 68.276C42.5949 67.9587 42.4409 67.5433 42.4409 67.03C42.4409 66.5913 42.5576 66.204 42.7909 65.868C43.0336 65.532 43.3742 65.2707 43.8129 65.084C44.2609 64.888 44.7836 64.79 45.3809 64.79C45.9036 64.79 46.3936 64.86 46.8509 65C47.3176 65.14 47.7096 65.35 48.0269 65.63L47.5229 66.764C47.2336 66.5307 46.9022 66.3487 46.5289 66.218C46.1556 66.0873 45.7916 66.022 45.4369 66.022C44.9516 66.022 44.5969 66.1107 44.3729 66.288C44.1489 66.456 44.0369 66.6753 44.0369 66.946C44.0369 67.1513 44.1022 67.324 44.2329 67.464C44.3729 67.5947 44.5876 67.6927 44.8769 67.758L46.2769 68.024C46.9022 68.1453 47.3736 68.36 47.6909 68.668C48.0176 68.9667 48.1809 69.3773 48.1809 69.9C48.1809 70.3667 48.0549 70.768 47.8029 71.104C47.5509 71.44 47.2009 71.6967 46.7529 71.874C46.3049 72.0513 45.7822 72.14 45.1849 72.14ZM49.6786 72V64.93H51.4286V72H49.6786ZM49.5806 63.6V61.892H51.5266V63.6H49.5806ZM56.605 75.136C55.9516 75.136 55.359 75.066 54.827 74.926C54.3043 74.786 53.8376 74.5713 53.427 74.282L53.805 73.022C54.0756 73.1993 54.3556 73.344 54.645 73.456C54.9343 73.568 55.233 73.652 55.541 73.708C55.849 73.764 56.1616 73.792 56.479 73.792C57.1323 73.792 57.6176 73.6287 57.935 73.302C58.2616 72.9847 58.425 72.5273 58.425 71.93V70.236H58.565C58.4156 70.7213 58.1123 71.1087 57.655 71.398C57.207 71.6873 56.689 71.832 56.101 71.832C55.4663 71.832 54.911 71.692 54.435 71.412C53.9683 71.1227 53.6043 70.712 53.343 70.18C53.0816 69.648 52.951 69.0227 52.951 68.304C52.951 67.5853 53.0816 66.9647 53.343 66.442C53.6043 65.91 53.9683 65.504 54.435 65.224C54.911 64.9347 55.4663 64.79 56.101 64.79C56.6983 64.79 57.2163 64.9347 57.655 65.224C58.103 65.504 58.4016 65.8867 58.551 66.372L58.425 66.288L58.565 64.93H60.259C60.2216 65.2193 60.1936 65.5133 60.175 65.812C60.1563 66.1107 60.147 66.4047 60.147 66.694V71.72C60.147 72.8307 59.8436 73.6753 59.237 74.254C58.6396 74.842 57.7623 75.136 56.605 75.136ZM56.577 70.488C57.137 70.488 57.5803 70.3013 57.907 69.928C58.243 69.5453 58.411 69.004 58.411 68.304C58.411 67.604 58.243 67.0673 57.907 66.694C57.5803 66.3207 57.137 66.134 56.577 66.134C56.0076 66.134 55.555 66.3207 55.219 66.694C54.883 67.0673 54.715 67.604 54.715 68.304C54.715 69.004 54.883 69.5453 55.219 69.928C55.555 70.3013 56.0076 70.488 56.577 70.488ZM62.0379 72V66.694C62.0379 66.4047 62.0286 66.1107 62.0099 65.812C61.9913 65.5133 61.9633 65.2193 61.9259 64.93H63.6199L63.7599 66.33H63.5919C63.8159 65.8353 64.1473 65.4573 64.5859 65.196C65.0246 64.9253 65.5333 64.79 66.1119 64.79C66.9426 64.79 67.5679 65.0233 67.9879 65.49C68.4079 65.9567 68.6179 66.6847 68.6179 67.674V72H66.8679V67.758C66.8679 67.1887 66.7559 66.7827 66.5319 66.54C66.3173 66.288 65.9906 66.162 65.5519 66.162C65.0106 66.162 64.5813 66.33 64.2639 66.666C63.9466 67.002 63.7879 67.45 63.7879 68.01V72H62.0379Z" fill="#202244" fill-opacity="0.8"/>
</svg>
