<svg width="104" height="72" viewBox="0 0 104 72" fill="none" xmlns="http://www.w3.org/2000/svg">
<path fill-rule="evenodd" clip-rule="evenodd" d="M49.7391 3.13041H36.1738C35.5989 3.13041 35.1304 2.66189 35.1304 2.08694C35.1304 1.51198 35.5989 1.04346 36.1738 1.04346H49.7391C50.314 1.04346 50.7825 1.51198 50.7825 2.08694C50.7825 2.66189 50.314 3.13041 49.7391 3.13041ZM67.4782 3.13041H53.913C53.338 3.13041 52.8695 2.66189 52.8695 2.08694C52.8695 1.51198 53.338 1.04346 53.913 1.04346H67.4782C68.0532 1.04346 68.5217 1.51198 68.5217 2.08694C68.5217 2.66189 68.0532 3.13041 67.4782 3.13041Z" fill="#DAD7E5"/>
<path fill-rule="evenodd" clip-rule="evenodd" d="M36.1738 17.7391V16.6956C36.202 8.92273 41.9046 2.33943 49.5919 1.19786C50.171 1.12064 50.7011 1.5203 50.7825 2.09943C50.8639 2.67334 50.4601 3.2076 49.8862 3.28482C43.234 4.27612 38.2973 9.97038 38.2608 16.6956V17.7391C38.2608 18.314 37.7923 18.7826 37.2173 18.7826C36.6423 18.7826 36.1738 18.314 36.1738 17.7391ZM65.3912 17.7391V16.6956C65.3912 9.95369 60.443 4.23125 53.7658 3.26499C53.1919 3.1836 52.7881 2.65351 52.8695 2.07438C52.9509 1.50047 53.481 1.09664 54.0601 1.17804C61.7714 2.29038 67.4907 8.90604 67.4782 16.6956V17.7391C67.4782 18.314 67.0097 18.7826 66.4347 18.7826C65.8597 18.7826 65.3912 18.314 65.3912 17.7391Z" fill="#DAD7E5"/>
<path fill-rule="evenodd" clip-rule="evenodd" d="M61.2174 25.0434L57.0435 36.5217H46.6087L42.4348 25.0434L51.8261 14.6086L61.2174 25.0434Z" fill="#6FABE6"/>
<path fill-rule="evenodd" clip-rule="evenodd" d="M61.2174 25.0435L57.8052 34.4348H56.3141C52.6171 34.4222 49.2665 32.2414 47.7618 28.8626C46.2581 25.488 46.8779 21.5384 49.3437 18.7826L52.4741 15.3297L61.2174 25.0435Z" fill="#82BCF4"/>
<path fill-rule="evenodd" clip-rule="evenodd" d="M52.8697 15.7659V26.0869C52.8697 26.6619 52.4011 27.1304 51.8262 27.1304C51.2512 27.1304 50.7827 26.6619 50.7827 26.0869V15.7659L51.8262 14.6086L52.8697 15.7659Z" fill="#FFDE76"/>
<path fill-rule="evenodd" clip-rule="evenodd" d="M53.913 28.1739C53.9171 29.2132 53.1512 30.0981 52.1234 30.2442C51.0924 30.3913 50.1095 29.76 49.8204 28.7604C49.5314 27.7618 50.0208 26.7026 50.9704 26.2748C51.6142 25.9847 52.3644 26.0421 52.9592 26.4251C53.5498 26.808 53.913 27.4644 53.913 28.1739Z" fill="#FFCC66"/>
<path fill-rule="evenodd" clip-rule="evenodd" d="M53.7255 29.0299C52.9345 29.3805 52.0131 29.2093 51.4027 28.5979C50.7902 27.9864 50.6201 27.065 50.9707 26.274C51.7617 25.9234 52.682 26.0946 53.2935 26.706C53.905 27.3175 54.0761 28.2389 53.7255 29.0299Z" fill="#FFDE76"/>
<mask id="mask0_1_916" style="mask-type:luminance" maskUnits="userSpaceOnUse" x="32" y="0" width="40" height="48">
<path fill-rule="evenodd" clip-rule="evenodd" d="M32 48H71.6522V0H32V48Z" fill="white"/>
</mask>
<g mask="url(#mask0_1_916)">
<path fill-rule="evenodd" clip-rule="evenodd" d="M48.6956 40.6956H54.9564V36.5217H48.6956V40.6956Z" fill="#F16F39"/>
<path fill-rule="evenodd" clip-rule="evenodd" d="M54.9566 36.5217V38.6087H52.8697C51.7166 38.6087 50.7827 37.6748 50.7827 36.5217H54.9566Z" fill="#F8834B"/>
<path fill-rule="evenodd" clip-rule="evenodd" d="M58.0869 48H45.5652L46.6087 40.6957H57.0434C57.9325 46.9565 57.6789 45.2119 58.0869 48Z" fill="#F16F39"/>
</g>
<path fill-rule="evenodd" clip-rule="evenodd" d="M57.7853 45.9131H53.9662C52.6409 45.9089 51.3815 45.3339 50.5133 44.3353C49.6451 43.3325 49.2538 42.0084 49.4375 40.6957H57.0434L57.7853 45.9131Z" fill="#F8834B"/>
<path fill-rule="evenodd" clip-rule="evenodd" d="M36.1739 2.08696C36.1739 3.24 35.24 4.17391 34.087 4.17391C32.9339 4.17391 32 3.24 32 2.08696C32 0.933913 32.9339 0 34.087 0C35.24 0 36.1739 0.933913 36.1739 2.08696Z" fill="#374F68"/>
<path fill-rule="evenodd" clip-rule="evenodd" d="M71.6522 2.08696C71.6522 3.24 70.7183 4.17391 69.5652 4.17391C68.4122 4.17391 67.4783 3.24 67.4783 2.08696C67.4783 0.933913 68.4122 0 69.5652 0C70.7183 0 71.6522 0.933913 71.6522 2.08696Z" fill="#374F68"/>
<mask id="mask1_1_916" style="mask-type:luminance" maskUnits="userSpaceOnUse" x="32" y="0" width="40" height="48">
<path fill-rule="evenodd" clip-rule="evenodd" d="M32 48H71.6522V0H32V48Z" fill="white"/>
</mask>
<g mask="url(#mask1_1_916)">
<path fill-rule="evenodd" clip-rule="evenodd" d="M64.3478 21.913H68.5217V17.7391H64.3478V21.913ZM35.1304 21.913H39.3043V17.7391H35.1304V21.913ZM49.7391 4.17391H53.913V0H49.7391V4.17391Z" fill="#DB5669"/>
<path fill-rule="evenodd" clip-rule="evenodd" d="M71.4647 2.9424C70.6738 3.293 69.7524 3.12187 69.1409 2.5104C68.5294 1.89892 68.3583 0.978569 68.7089 0.187613C69.4999 -0.162996 70.4212 0.00813454 71.0327 0.619613C71.6442 1.23109 71.8153 2.15144 71.4647 2.9424ZM35.9865 2.9424C35.1955 3.293 34.2752 3.12187 33.6637 2.5104C33.0512 1.89892 32.8811 0.978569 33.2317 0.187613C34.0226 -0.162996 34.943 0.00813454 35.5534 0.619613C36.1659 1.23109 36.336 2.15144 35.9865 2.9424Z" fill="#425B72"/>
<path fill-rule="evenodd" clip-rule="evenodd" d="M53.913 0V3.13043C52.185 3.13043 50.7825 1.728 50.7825 0H53.913ZM68.5217 17.7391V20.8696C66.7937 20.8696 65.3912 19.4671 65.3912 17.7391H68.5217ZM39.3043 17.7391V20.8696C37.5763 20.8696 36.1738 19.4671 36.1738 17.7391H39.3043Z" fill="#F26674"/>
</g>
<path d="M7.21235 68.14C6.10169 68.14 5.16835 67.9347 4.41235 67.524C3.65635 67.1133 3.08702 66.53 2.70435 65.774C2.32168 65.018 2.13035 64.122 2.13035 63.086C2.13035 62.0407 2.33568 61.14 2.74635 60.384C3.15702 59.6187 3.74502 59.0307 4.51035 58.62C5.28502 58.2 6.21369 57.99 7.29635 57.99C8.01502 57.99 8.64502 58.088 9.18635 58.284C9.72769 58.4707 10.2037 58.746 10.6144 59.11L10.0124 60.51C9.71369 60.2767 9.42902 60.09 9.15835 59.95C8.88769 59.81 8.60768 59.712 8.31835 59.656C8.02902 59.5907 7.69302 59.558 7.31035 59.558C6.22769 59.558 5.40635 59.866 4.84635 60.482C4.29569 61.0887 4.02035 61.9613 4.02035 63.1C4.02035 64.2387 4.28169 65.1067 4.80435 65.704C5.33635 66.3013 6.16702 66.6 7.29635 66.6C7.67902 66.6 8.06169 66.5627 8.44435 66.488C8.83635 66.4133 9.21902 66.306 9.59235 66.166L9.25635 66.922V63.968H6.94635V62.652H10.7544V67.398C10.297 67.6313 9.75102 67.8133 9.11635 67.944C8.48169 68.0747 7.84702 68.14 7.21235 68.14ZM12.6616 68V62.736C12.6616 62.4373 12.6523 62.134 12.6336 61.826C12.6243 61.518 12.601 61.2193 12.5636 60.93H14.2576L14.4536 62.862H14.1736C14.267 62.3953 14.421 62.008 14.6356 61.7C14.8596 61.392 15.1303 61.1633 15.4476 61.014C15.765 60.8647 16.1103 60.79 16.4836 60.79C16.6516 60.79 16.787 60.7993 16.8896 60.818C16.9923 60.8273 17.095 60.8507 17.1976 60.888L17.1836 62.428C17.0063 62.3533 16.8523 62.3067 16.7216 62.288C16.6003 62.2693 16.4463 62.26 16.2596 62.26C15.8583 62.26 15.5176 62.344 15.2376 62.512C14.967 62.68 14.7616 62.9133 14.6216 63.212C14.491 63.5107 14.4256 63.8513 14.4256 64.234V68H12.6616ZM20.8334 68.14C20.2174 68.14 19.676 67.9953 19.2094 67.706C18.7427 67.4073 18.3787 66.9827 18.1174 66.432C17.856 65.8813 17.7254 65.2233 17.7254 64.458C17.7254 63.6927 17.856 63.0393 18.1174 62.498C18.3787 61.9473 18.7427 61.5273 19.2094 61.238C19.676 60.9393 20.2174 60.79 20.8334 60.79C21.4307 60.79 21.9534 60.9393 22.4014 61.238C22.8587 61.5273 23.162 61.9193 23.3114 62.414H23.1574L23.3114 60.93H24.9914C24.9634 61.2193 24.9354 61.5133 24.9074 61.812C24.8887 62.1107 24.8794 62.4047 24.8794 62.694V68H23.1434L23.1294 66.544H23.2974C23.148 67.0293 22.8447 67.4167 22.3874 67.706C21.93 67.9953 21.412 68.14 20.8334 68.14ZM21.3234 66.796C21.874 66.796 22.3174 66.6047 22.6534 66.222C22.9894 65.83 23.1574 65.242 23.1574 64.458C23.1574 63.674 22.9894 63.0907 22.6534 62.708C22.3174 62.3253 21.874 62.134 21.3234 62.134C20.7727 62.134 20.3294 62.3253 19.9934 62.708C19.6574 63.0907 19.4894 63.674 19.4894 64.458C19.4894 65.242 19.6527 65.83 19.9794 66.222C20.3154 66.6047 20.7634 66.796 21.3234 66.796ZM26.785 71.024V62.694C26.785 62.4047 26.7757 62.1107 26.757 61.812C26.7383 61.5133 26.7103 61.2193 26.673 60.93H28.367L28.521 62.414H28.367C28.507 61.9193 28.801 61.5273 29.249 61.238C29.7063 60.9393 30.2337 60.79 30.831 60.79C31.4563 60.79 32.0023 60.9393 32.469 61.238C32.9357 61.5273 33.2997 61.9473 33.561 62.498C33.8223 63.0393 33.953 63.6927 33.953 64.458C33.953 65.2233 33.8223 65.8813 33.561 66.432C33.2997 66.9827 32.9357 67.4073 32.469 67.706C32.0023 67.9953 31.4563 68.14 30.831 68.14C30.243 68.14 29.725 67.9953 29.277 67.706C28.829 67.4167 28.5303 67.0293 28.381 66.544H28.535V71.024H26.785ZM30.341 66.796C30.901 66.796 31.349 66.6047 31.685 66.222C32.021 65.83 32.189 65.242 32.189 64.458C32.189 63.674 32.021 63.0907 31.685 62.708C31.349 62.3253 30.901 62.134 30.341 62.134C29.7903 62.134 29.347 62.3253 29.011 62.708C28.675 63.0907 28.507 63.674 28.507 64.458C28.507 65.242 28.675 65.83 29.011 66.222C29.347 66.6047 29.7903 66.796 30.341 66.796ZM35.4666 68V57.696H37.2166V62.344H37.0206C37.2353 61.84 37.5666 61.4573 38.0146 61.196C38.4626 60.9253 38.976 60.79 39.5546 60.79C40.3946 60.79 41.02 61.028 41.4306 61.504C41.8413 61.9707 42.0466 62.6847 42.0466 63.646V68H40.2966V63.73C40.2966 63.1793 40.1893 62.7827 39.9746 62.54C39.7693 62.288 39.438 62.162 38.9806 62.162C38.4486 62.162 38.0193 62.33 37.6926 62.666C37.3753 62.9927 37.2166 63.4313 37.2166 63.982V68H35.4666ZM43.9022 68V60.93H45.6522V68H43.9022ZM43.8042 59.6V57.892H45.7502V59.6H43.8042ZM50.8006 68.14C50.0726 68.14 49.4333 67.9907 48.8826 67.692C48.3413 67.3933 47.9213 66.9687 47.6226 66.418C47.3239 65.858 47.1746 65.1953 47.1746 64.43C47.1746 63.6647 47.3239 63.0113 47.6226 62.47C47.9306 61.9287 48.3553 61.5133 48.8966 61.224C49.4379 60.9347 50.0726 60.79 50.8006 60.79C51.2673 60.79 51.7199 60.8647 52.1586 61.014C52.6066 61.154 52.9706 61.3593 53.2506 61.63L52.7186 62.848C52.4666 62.6147 52.1819 62.442 51.8646 62.33C51.5566 62.2087 51.2533 62.148 50.9546 62.148C50.3293 62.148 49.8393 62.344 49.4846 62.736C49.1393 63.128 48.9666 63.6973 48.9666 64.444C48.9666 65.1907 49.1393 65.7647 49.4846 66.166C49.8393 66.5673 50.3293 66.768 50.9546 66.768C51.2439 66.768 51.5426 66.712 51.8506 66.6C52.1679 66.488 52.4573 66.3153 52.7186 66.082L53.2506 67.286C52.9613 67.5567 52.5926 67.7667 52.1446 67.916C51.7059 68.0653 51.2579 68.14 50.8006 68.14ZM58.5891 68V58.13H62.1731C63.3024 58.13 64.2544 58.326 65.0291 58.718C65.8131 59.1007 66.4057 59.6607 66.8071 60.398C67.2084 61.126 67.4091 62.0127 67.4091 63.058C67.4091 64.094 67.2084 64.9807 66.8071 65.718C66.4057 66.4553 65.8131 67.02 65.0291 67.412C64.2544 67.804 63.3024 68 62.1731 68H58.5891ZM60.3951 66.502H62.0611C63.2557 66.502 64.1424 66.2173 64.7211 65.648C65.2997 65.0787 65.5891 64.2153 65.5891 63.058C65.5891 61.8913 65.2997 61.028 64.7211 60.468C64.1424 59.8987 63.2557 59.614 62.0611 59.614H60.3951V66.502ZM72.5291 68.14C71.3438 68.14 70.4151 67.8133 69.7431 67.16C69.0711 66.5067 68.7351 65.6107 68.7351 64.472C68.7351 63.7347 68.8798 63.0907 69.1691 62.54C69.4585 61.9893 69.8598 61.56 70.3731 61.252C70.8958 60.944 71.5025 60.79 72.1931 60.79C72.8745 60.79 73.4438 60.9347 73.9011 61.224C74.3585 61.5133 74.7038 61.9193 74.9371 62.442C75.1798 62.9647 75.3011 63.576 75.3011 64.276V64.738H70.1491V63.814H74.0551L73.8171 64.01C73.8171 63.3567 73.6771 62.8573 73.3971 62.512C73.1265 62.1667 72.7298 61.994 72.2071 61.994C71.6285 61.994 71.1805 62.1993 70.8631 62.61C70.5551 63.0207 70.4011 63.5947 70.4011 64.332V64.514C70.4011 65.2793 70.5878 65.8533 70.9611 66.236C71.3438 66.6093 71.8805 66.796 72.5711 66.796C72.9725 66.796 73.3458 66.7447 73.6911 66.642C74.0458 66.53 74.3818 66.3527 74.6991 66.11L75.2171 67.286C74.8811 67.5567 74.4798 67.7667 74.0131 67.916C73.5465 68.0653 73.0518 68.14 72.5291 68.14ZM79.3031 68.14C78.6964 68.14 78.1364 68.07 77.6231 67.93C77.1191 67.7807 76.6944 67.5753 76.3491 67.314L76.8391 66.138C77.1937 66.3807 77.5857 66.5673 78.0151 66.698C78.4444 66.8287 78.8784 66.894 79.3171 66.894C79.7837 66.894 80.1291 66.8147 80.3531 66.656C80.5864 66.4973 80.7031 66.2827 80.7031 66.012C80.7031 65.7973 80.6284 65.6293 80.4791 65.508C80.3391 65.3773 80.1104 65.2793 79.7931 65.214L78.3931 64.948C77.7957 64.8173 77.3384 64.5933 77.0211 64.276C76.7131 63.9587 76.5591 63.5433 76.5591 63.03C76.5591 62.5913 76.6757 62.204 76.9091 61.868C77.1517 61.532 77.4924 61.2707 77.9311 61.084C78.3791 60.888 78.9017 60.79 79.4991 60.79C80.0217 60.79 80.5117 60.86 80.9691 61C81.4357 61.14 81.8277 61.35 82.1451 61.63L81.6411 62.764C81.3517 62.5307 81.0204 62.3487 80.6471 62.218C80.2737 62.0873 79.9097 62.022 79.5551 62.022C79.0697 62.022 78.7151 62.1107 78.4911 62.288C78.2671 62.456 78.1551 62.6753 78.1551 62.946C78.1551 63.1513 78.2204 63.324 78.3511 63.464C78.4911 63.5947 78.7057 63.6927 78.9951 63.758L80.3951 64.024C81.0204 64.1453 81.4917 64.36 81.8091 64.668C82.1357 64.9667 82.2991 65.3773 82.2991 65.9C82.2991 66.3667 82.1731 66.768 81.9211 67.104C81.6691 67.44 81.3191 67.6967 80.8711 67.874C80.4231 68.0513 79.9004 68.14 79.3031 68.14ZM83.7967 68V60.93H85.5467V68H83.7967ZM83.6987 59.6V57.892H85.6447V59.6H83.6987ZM90.7231 71.136C90.0698 71.136 89.4771 71.066 88.9451 70.926C88.4225 70.786 87.9558 70.5713 87.5451 70.282L87.9231 69.022C88.1938 69.1993 88.4738 69.344 88.7631 69.456C89.0525 69.568 89.3511 69.652 89.6591 69.708C89.9671 69.764 90.2798 69.792 90.5971 69.792C91.2505 69.792 91.7358 69.6287 92.0531 69.302C92.3798 68.9847 92.5431 68.5273 92.5431 67.93V66.236H92.6831C92.5338 66.7213 92.2305 67.1087 91.7731 67.398C91.3251 67.6873 90.8071 67.832 90.2191 67.832C89.5845 67.832 89.0291 67.692 88.5531 67.412C88.0865 67.1227 87.7225 66.712 87.4611 66.18C87.1998 65.648 87.0691 65.0227 87.0691 64.304C87.0691 63.5853 87.1998 62.9647 87.4611 62.442C87.7225 61.91 88.0865 61.504 88.5531 61.224C89.0291 60.9347 89.5845 60.79 90.2191 60.79C90.8165 60.79 91.3345 60.9347 91.7731 61.224C92.2211 61.504 92.5198 61.8867 92.6691 62.372L92.5431 62.288L92.6831 60.93H94.3771C94.3398 61.2193 94.3118 61.5133 94.2931 61.812C94.2745 62.1107 94.2651 62.4047 94.2651 62.694V67.72C94.2651 68.8307 93.9618 69.6753 93.3551 70.254C92.7578 70.842 91.8805 71.136 90.7231 71.136ZM90.6951 66.488C91.2551 66.488 91.6985 66.3013 92.0251 65.928C92.3611 65.5453 92.5291 65.004 92.5291 64.304C92.5291 63.604 92.3611 63.0673 92.0251 62.694C91.6985 62.3207 91.2551 62.134 90.6951 62.134C90.1258 62.134 89.6731 62.3207 89.3371 62.694C89.0011 63.0673 88.8331 63.604 88.8331 64.304C88.8331 65.004 89.0011 65.5453 89.3371 65.928C89.6731 66.3013 90.1258 66.488 90.6951 66.488ZM96.1561 68V62.694C96.1561 62.4047 96.1468 62.1107 96.1281 61.812C96.1094 61.5133 96.0814 61.2193 96.0441 60.93H97.7381L97.8781 62.33H97.7101C97.9341 61.8353 98.2654 61.4573 98.7041 61.196C99.1428 60.9253 99.6514 60.79 100.23 60.79C101.061 60.79 101.686 61.0233 102.106 61.49C102.526 61.9567 102.736 62.6847 102.736 63.674V68H100.986V63.758C100.986 63.1887 100.874 62.7827 100.65 62.54C100.435 62.288 100.109 62.162 99.6701 62.162C99.1288 62.162 98.6994 62.33 98.3821 62.666C98.0648 63.002 97.9061 63.45 97.9061 64.01V68H96.1561Z" fill="#202244" fill-opacity="0.8"/>
</svg>
