<svg width="125" height="65" viewBox="0 0 125 65" fill="none" xmlns="http://www.w3.org/2000/svg">
<path fill-rule="evenodd" clip-rule="evenodd" d="M43.6574 4.93152H85.7725C86.7257 4.93152 87.4985 5.70438 87.4985 6.65755V34.274C87.4985 35.2271 86.7257 36 85.7725 36H43.6574C42.7043 36 41.9314 35.2271 41.9314 34.274V6.65755C41.9314 5.70438 42.7043 4.93152 43.6574 4.93152Z" fill="#8397CC"/>
<path fill-rule="evenodd" clip-rule="evenodd" d="M43.6574 4.93152C42.7047 4.9327 41.9326 5.70478 41.9314 6.65755V33.0411H82.8136C83.7664 33.0399 84.5384 32.2678 84.5396 31.3151V4.93152H43.6574Z" fill="#6D83B5"/>
<path fill-rule="evenodd" clip-rule="evenodd" d="M38.726 0H80.8411C81.7943 0 82.5671 0.772866 82.5671 1.72603V29.3425C82.5671 30.2956 81.7943 31.0685 80.8411 31.0685H38.726C37.7729 31.0685 37 30.2956 37 29.3425V1.72603C37 0.772866 37.7729 0 38.726 0Z" fill="#3D58FF"/>
<path fill-rule="evenodd" clip-rule="evenodd" d="M38.9726 3.69863C38.9738 2.74586 39.7459 1.97379 40.6986 1.9726H82.5671V1.72603C82.5659 0.77326 81.7939 0.00118356 80.8411 0H38.726C37.7733 0.00118356 37.0012 0.77326 37 1.72603V29.3425C37.0012 30.2952 37.7733 31.0673 38.726 31.0685H38.9726V3.69863Z" fill="#3146CC"/>
<path fill-rule="evenodd" clip-rule="evenodd" d="M67.0329 22.6849H77.8822C78.8354 22.6849 79.6083 23.4578 79.6083 24.411V26.3836C79.6083 27.3367 78.8354 28.1096 77.8822 28.1096H67.0329C66.0798 28.1096 65.3069 27.3367 65.3069 26.3836V24.411C65.3069 23.4578 66.0798 22.6849 67.0329 22.6849Z" fill="#3146CC"/>
<path fill-rule="evenodd" clip-rule="evenodd" d="M66.0466 21.6986H76.8959C77.8491 21.6986 78.6219 22.4715 78.6219 23.4246V25.3972C78.6219 26.3504 77.8491 27.1233 76.8959 27.1233H66.0466C65.0934 27.1233 64.3206 26.3504 64.3206 25.3972V23.4246C64.3206 22.4715 65.0934 21.6986 66.0466 21.6986Z" fill="#F65D6D"/>
<path fill-rule="evenodd" clip-rule="evenodd" d="M65.3069 26.3835V24.4109C65.308 23.4582 66.0801 22.6861 67.0329 22.6849H77.8822C78.0952 22.6853 78.306 22.725 78.5045 22.8024C78.2466 22.1382 77.6083 21.7002 76.8959 21.6986H66.0466C65.0938 21.6998 64.3217 22.4719 64.3206 23.4246V25.3972C64.3221 26.1096 64.7602 26.748 65.4243 27.0058C65.3469 26.8074 65.3073 26.5966 65.3069 26.3835Z" fill="#E25065"/>
<path fill-rule="evenodd" clip-rule="evenodd" d="M82.5671 4.93151V1.72603C82.5659 0.77326 81.7939 0.00118356 80.8411 0H38.726C37.7733 0.00118356 37.0012 0.77326 37 1.72603V4.93151H82.5671Z" fill="white"/>
<path fill-rule="evenodd" clip-rule="evenodd" d="M38.9726 3.69863C38.9738 2.74586 39.7459 1.97379 40.6986 1.9726H82.5671V1.72603C82.5659 0.77326 81.7939 0.00118356 80.8411 0H38.726C37.7733 0.00118356 37.0012 0.77326 37 1.72603V4.93151H38.9726V3.69863Z" fill="#E8EFFF"/>
<path fill-rule="evenodd" clip-rule="evenodd" d="M51.4 19.2329C51.0778 19.2329 50.7928 19.0241 50.6956 18.717L48.0326 10.3335C47.9441 10.0791 48.0003 9.79674 48.1799 9.59603C48.3594 9.39532 48.6341 9.30823 48.8964 9.36829C49.1588 9.42885 49.368 9.6268 49.442 9.88571L52.105 18.2693C52.1771 18.4943 52.137 18.7397 51.9976 18.9305C51.8581 19.1211 51.6362 19.2333 51.4 19.2329ZM44.3529 17.8351C44.1502 17.8359 43.9564 17.7526 43.8174 17.6055L41.1493 14.8123C40.8773 14.526 40.8773 14.0768 41.1493 13.7905L43.8174 10.9973C44.0991 10.701 44.5678 10.689 44.8641 10.971C45.1604 11.2531 45.1724 11.7216 44.8904 12.0183L42.7078 14.3014L44.8904 16.5845C45.0949 16.7987 45.1519 17.1143 45.0357 17.3862C44.9193 17.6586 44.6519 17.8351 44.3556 17.8351H44.3529ZM55.784 17.8351C55.4873 17.8363 55.2188 17.6602 55.102 17.3878C54.985 17.115 55.0416 16.7991 55.2465 16.5845L57.4265 14.3014L55.2465 12.0183C54.9646 11.7216 54.9765 11.2531 55.2728 10.971C55.5691 10.689 56.0378 10.701 56.3195 10.9973L58.9876 13.7913C59.2596 14.0779 59.2596 14.5271 58.9876 14.8134L56.3195 17.6055C56.1805 17.7526 55.9867 17.8359 55.784 17.8351Z" fill="#F65D6D"/>
<path fill-rule="evenodd" clip-rule="evenodd" d="M77.8823 18.7397H63.3837C62.9752 18.7397 62.6439 18.4084 62.6439 18C62.6439 17.5916 62.9752 17.2603 63.3837 17.2603H77.8823C78.2907 17.2603 78.622 17.5916 78.622 18C78.622 18.4084 78.2907 18.7397 77.8823 18.7397ZM77.8823 14.3014H63.3837C62.9752 14.3014 62.6439 13.9701 62.6439 13.5616C62.6439 13.1532 62.9752 12.8219 63.3837 12.8219H77.8823C78.2907 12.8219 78.622 13.1532 78.622 13.5616C78.622 13.9701 78.2907 14.3014 77.8823 14.3014ZM77.8823 10.3562H68.1672C67.7588 10.3562 67.4275 10.0249 67.4275 9.61643C67.4275 9.20801 67.7588 8.87671 68.1672 8.87671H77.8823C78.2907 8.87671 78.622 9.20801 78.622 9.61643C78.622 10.0249 78.2907 10.3562 77.8823 10.3562ZM42.3754 23.1781H41.685C41.2766 23.1781 40.9453 22.8468 40.9453 22.4384C40.9453 22.0299 41.2766 21.6986 41.685 21.6986H42.3754C42.7839 21.6986 43.1152 22.0299 43.1152 22.4384C43.1152 22.8468 42.7839 23.1781 42.3754 23.1781ZM61.1152 23.1781H46.1727C45.7643 23.1781 45.433 22.8468 45.433 22.4384C45.433 22.0299 45.7643 21.6986 46.1727 21.6986H61.1152C61.5236 21.6986 61.8549 22.0299 61.8549 22.4384C61.8549 22.8468 61.5236 23.1781 61.1152 23.1781ZM61.1152 27.1233H41.685C41.2766 27.1233 40.9453 26.792 40.9453 26.3836C40.9453 25.9751 41.2766 25.6438 41.685 25.6438H61.1152C61.5236 25.6438 61.8549 25.9751 61.8549 26.3836C61.8549 26.792 61.5236 27.1233 61.1152 27.1233ZM64.7152 10.3562H63.3837C62.9752 10.3562 62.6439 10.0249 62.6439 9.61643C62.6439 9.20801 62.9752 8.87671 63.3837 8.87671H64.7152C65.1236 8.87671 65.4549 9.20801 65.4549 9.61643C65.4549 10.0249 65.1236 10.3562 64.7152 10.3562Z" fill="white"/>
<path fill-rule="evenodd" clip-rule="evenodd" d="M78.8685 3.52607H77.8822C77.4738 3.52607 77.1425 3.12299 77.1425 2.62607C77.1425 2.12915 77.4738 1.72607 77.8822 1.72607H78.8685C79.2769 1.72607 79.6082 2.12915 79.6082 2.62607C79.6082 3.12299 79.2769 3.52607 78.8685 3.52607ZM74.9233 3.52607H73.937C73.5286 3.52607 73.1973 3.12299 73.1973 2.62607C73.1973 2.12915 73.5286 1.72607 73.937 1.72607H74.9233C75.3317 1.72607 75.663 2.12915 75.663 2.62607C75.663 3.12299 75.3317 3.52607 74.9233 3.52607Z" fill="#8397CC"/>
<path d="M4.33307 61L0.84707 51.13H2.72307L5.41107 59.222H4.85107L7.74907 51.13H9.09307L11.7811 59.222H11.2631L14.0771 51.13H15.8411L12.3271 61H10.8291L8.22507 53.412H8.53307L5.83107 61H4.33307ZM19.6854 61.14C18.5 61.14 17.5714 60.8133 16.8994 60.16C16.2274 59.5067 15.8914 58.6107 15.8914 57.472C15.8914 56.7347 16.036 56.0907 16.3254 55.54C16.6147 54.9893 17.016 54.56 17.5294 54.252C18.052 53.944 18.6587 53.79 19.3494 53.79C20.0307 53.79 20.6 53.9347 21.0574 54.224C21.5147 54.5133 21.86 54.9193 22.0934 55.442C22.3361 55.9647 22.4574 56.576 22.4574 57.276V57.738H17.3054V56.814H21.2114L20.9734 57.01C20.9734 56.3567 20.8334 55.8573 20.5534 55.512C20.2827 55.1667 19.886 54.994 19.3634 54.994C18.7847 54.994 18.3367 55.1993 18.0194 55.61C17.7114 56.0207 17.5574 56.5947 17.5574 57.332V57.514C17.5574 58.2793 17.744 58.8533 18.1174 59.236C18.5 59.6093 19.0367 59.796 19.7274 59.796C20.1287 59.796 20.502 59.7447 20.8474 59.642C21.202 59.53 21.538 59.3527 21.8554 59.11L22.3734 60.286C22.0374 60.5567 21.636 60.7667 21.1694 60.916C20.7027 61.0653 20.208 61.14 19.6854 61.14ZM27.9853 61.14C27.388 61.14 26.8653 60.9953 26.4173 60.706C25.9693 60.4073 25.6706 60.006 25.5213 59.502H25.6753V61H23.9393V50.696H25.6893V55.372H25.5213C25.68 54.8867 25.9833 54.504 26.4313 54.224C26.8793 53.9347 27.3973 53.79 27.9853 53.79C28.6106 53.79 29.1566 53.9393 29.6233 54.238C30.09 54.5367 30.454 54.9613 30.7153 55.512C30.9766 56.0533 31.1073 56.7067 31.1073 57.472C31.1073 58.2373 30.9766 58.8953 30.7153 59.446C30.454 59.9873 30.0853 60.4073 29.6093 60.706C29.1426 60.9953 28.6013 61.14 27.9853 61.14ZM27.4953 59.796C28.046 59.796 28.4893 59.6047 28.8253 59.222C29.1706 58.8393 29.3433 58.256 29.3433 57.472C29.3433 56.688 29.1706 56.1047 28.8253 55.722C28.4893 55.33 28.046 55.134 27.4953 55.134C26.9446 55.134 26.5013 55.3253 26.1653 55.708C25.8293 56.0907 25.6613 56.674 25.6613 57.458C25.6613 58.242 25.8293 58.83 26.1653 59.222C26.5013 59.6047 26.9446 59.796 27.4953 59.796ZM36.6027 61V51.13H40.1867C41.3161 51.13 42.2681 51.326 43.0427 51.718C43.8267 52.1007 44.4194 52.6607 44.8207 53.398C45.2221 54.126 45.4227 55.0127 45.4227 56.058C45.4227 57.094 45.2221 57.9807 44.8207 58.718C44.4194 59.4553 43.8267 60.02 43.0427 60.412C42.2681 60.804 41.3161 61 40.1867 61H36.6027ZM38.4087 59.502H40.0747C41.2694 59.502 42.1561 59.2173 42.7347 58.648C43.3134 58.0787 43.6027 57.2153 43.6027 56.058C43.6027 54.8913 43.3134 54.028 42.7347 53.468C42.1561 52.8987 41.2694 52.614 40.0747 52.614H38.4087V59.502ZM50.5428 61.14C49.3575 61.14 48.4288 60.8133 47.7568 60.16C47.0848 59.5067 46.7488 58.6107 46.7488 57.472C46.7488 56.7347 46.8935 56.0907 47.1828 55.54C47.4721 54.9893 47.8735 54.56 48.3868 54.252C48.9095 53.944 49.5161 53.79 50.2068 53.79C50.8881 53.79 51.4575 53.9347 51.9148 54.224C52.3721 54.5133 52.7175 54.9193 52.9508 55.442C53.1935 55.9647 53.3148 56.576 53.3148 57.276V57.738H48.1628V56.814H52.0688L51.8308 57.01C51.8308 56.3567 51.6908 55.8573 51.4108 55.512C51.1401 55.1667 50.7435 54.994 50.2208 54.994C49.6421 54.994 49.1941 55.1993 48.8768 55.61C48.5688 56.0207 48.4148 56.5947 48.4148 57.332V57.514C48.4148 58.2793 48.6015 58.8533 48.9748 59.236C49.3575 59.6093 49.8941 59.796 50.5848 59.796C50.9861 59.796 51.3595 59.7447 51.7048 59.642C52.0595 59.53 52.3955 59.3527 52.7128 59.11L53.2308 60.286C52.8948 60.5567 52.4935 60.7667 52.0268 60.916C51.5601 61.0653 51.0655 61.14 50.5428 61.14ZM56.7594 61L53.7074 53.93H55.5694L57.7814 59.46H57.3474L59.6154 53.93H61.3654L58.2994 61H56.7594ZM65.5819 61.14C64.3965 61.14 63.4679 60.8133 62.7959 60.16C62.1239 59.5067 61.7879 58.6107 61.7879 57.472C61.7879 56.7347 61.9325 56.0907 62.2219 55.54C62.5112 54.9893 62.9125 54.56 63.4259 54.252C63.9485 53.944 64.5552 53.79 65.2459 53.79C65.9272 53.79 66.4965 53.9347 66.9539 54.224C67.4112 54.5133 67.7565 54.9193 67.9899 55.442C68.2325 55.9647 68.3539 56.576 68.3539 57.276V57.738H63.2019V56.814H67.1079L66.8699 57.01C66.8699 56.3567 66.7299 55.8573 66.4499 55.512C66.1792 55.1667 65.7825 54.994 65.2599 54.994C64.6812 54.994 64.2332 55.1993 63.9159 55.61C63.6079 56.0207 63.4539 56.5947 63.4539 57.332V57.514C63.4539 58.2793 63.6405 58.8533 64.0139 59.236C64.3965 59.6093 64.9332 59.796 65.6239 59.796C66.0252 59.796 66.3985 59.7447 66.7439 59.642C67.0985 59.53 67.4345 59.3527 67.7519 59.11L68.2699 60.286C67.9339 60.5567 67.5325 60.7667 67.0659 60.916C66.5992 61.0653 66.1045 61.14 65.5819 61.14ZM69.8358 61V50.696H71.5858V61H69.8358ZM76.6782 61.14C75.9502 61.14 75.3202 60.9907 74.7882 60.692C74.2562 60.3933 73.8408 59.9687 73.5422 59.418C73.2528 58.8673 73.1082 58.214 73.1082 57.458C73.1082 56.702 73.2528 56.0533 73.5422 55.512C73.8408 54.9613 74.2562 54.5367 74.7882 54.238C75.3202 53.9393 75.9502 53.79 76.6782 53.79C77.4062 53.79 78.0362 53.9393 78.5682 54.238C79.1095 54.5367 79.5248 54.9613 79.8142 55.512C80.1128 56.0533 80.2622 56.702 80.2622 57.458C80.2622 58.214 80.1128 58.8673 79.8142 59.418C79.5248 59.9687 79.1095 60.3933 78.5682 60.692C78.0362 60.9907 77.4062 61.14 76.6782 61.14ZM76.6782 59.796C77.2288 59.796 77.6675 59.6047 77.9942 59.222C78.3208 58.83 78.4842 58.242 78.4842 57.458C78.4842 56.674 78.3208 56.0907 77.9942 55.708C77.6675 55.3253 77.2288 55.134 76.6782 55.134C76.1275 55.134 75.6888 55.3253 75.3622 55.708C75.0355 56.0907 74.8722 56.674 74.8722 57.458C74.8722 58.242 75.0355 58.83 75.3622 59.222C75.6888 59.6047 76.1275 59.796 76.6782 59.796ZM81.7713 64.024V55.694C81.7713 55.4047 81.762 55.1107 81.7433 54.812C81.7247 54.5133 81.6967 54.2193 81.6593 53.93H83.3533L83.5073 55.414H83.3533C83.4933 54.9193 83.7873 54.5273 84.2353 54.238C84.6927 53.9393 85.22 53.79 85.8173 53.79C86.4427 53.79 86.9887 53.9393 87.4553 54.238C87.922 54.5273 88.286 54.9473 88.5473 55.498C88.8087 56.0393 88.9393 56.6927 88.9393 57.458C88.9393 58.2233 88.8087 58.8813 88.5473 59.432C88.286 59.9827 87.922 60.4073 87.4553 60.706C86.9887 60.9953 86.4427 61.14 85.8173 61.14C85.2293 61.14 84.7113 60.9953 84.2633 60.706C83.8153 60.4167 83.5167 60.0293 83.3673 59.544H83.5213V64.024H81.7713ZM85.3273 59.796C85.8873 59.796 86.3353 59.6047 86.6713 59.222C87.0073 58.83 87.1753 58.242 87.1753 57.458C87.1753 56.674 87.0073 56.0907 86.6713 55.708C86.3353 55.3253 85.8873 55.134 85.3273 55.134C84.7767 55.134 84.3333 55.3253 83.9973 55.708C83.6613 56.0907 83.4933 56.674 83.4933 57.458C83.4933 58.242 83.6613 58.83 83.9973 59.222C84.3333 59.6047 84.7767 59.796 85.3273 59.796ZM90.453 61V55.694C90.453 55.4047 90.4436 55.1107 90.425 54.812C90.4063 54.5133 90.3783 54.2193 90.341 53.93H92.035L92.175 55.33H92.007C92.203 54.8447 92.5016 54.4667 92.903 54.196C93.3136 53.9253 93.799 53.79 94.359 53.79C94.919 53.79 95.381 53.9253 95.745 54.196C96.1183 54.4573 96.3796 54.868 96.529 55.428H96.305C96.501 54.924 96.823 54.5273 97.271 54.238C97.719 53.9393 98.2323 53.79 98.811 53.79C99.6043 53.79 100.197 54.0233 100.589 54.49C100.981 54.9567 101.177 55.6847 101.177 56.674V61H99.427V56.744C99.427 56.184 99.3336 55.7827 99.147 55.54C98.9603 55.288 98.6616 55.162 98.251 55.162C97.7656 55.162 97.383 55.3347 97.103 55.68C96.823 56.016 96.683 56.4733 96.683 57.052V61H94.933V56.744C94.933 56.184 94.8396 55.7827 94.653 55.54C94.4663 55.288 94.1676 55.162 93.757 55.162C93.2716 55.162 92.889 55.3347 92.609 55.68C92.3383 56.016 92.203 56.4733 92.203 57.052V61H90.453ZM106.461 61.14C105.275 61.14 104.347 60.8133 103.675 60.16C103.003 59.5067 102.667 58.6107 102.667 57.472C102.667 56.7347 102.811 56.0907 103.101 55.54C103.39 54.9893 103.791 54.56 104.305 54.252C104.827 53.944 105.434 53.79 106.125 53.79C106.806 53.79 107.375 53.9347 107.833 54.224C108.29 54.5133 108.635 54.9193 108.869 55.442C109.111 55.9647 109.233 56.576 109.233 57.276V57.738H104.081V56.814H107.987L107.749 57.01C107.749 56.3567 107.609 55.8573 107.329 55.512C107.058 55.1667 106.661 54.994 106.139 54.994C105.56 54.994 105.112 55.1993 104.795 55.61C104.487 56.0207 104.333 56.5947 104.333 57.332V57.514C104.333 58.2793 104.519 58.8533 104.893 59.236C105.275 59.6093 105.812 59.796 106.503 59.796C106.904 59.796 107.277 59.7447 107.623 59.642C107.977 59.53 108.313 59.3527 108.631 59.11L109.149 60.286C108.813 60.5567 108.411 60.7667 107.945 60.916C107.478 61.0653 106.983 61.14 106.461 61.14ZM110.715 61V55.694C110.715 55.4047 110.705 55.1107 110.687 54.812C110.668 54.5133 110.64 54.2193 110.603 53.93H112.297L112.437 55.33H112.269C112.493 54.8353 112.824 54.4573 113.263 54.196C113.701 53.9253 114.21 53.79 114.789 53.79C115.619 53.79 116.245 54.0233 116.665 54.49C117.085 54.9567 117.295 55.6847 117.295 56.674V61H115.545V56.758C115.545 56.1887 115.433 55.7827 115.209 55.54C114.994 55.288 114.667 55.162 114.229 55.162C113.687 55.162 113.258 55.33 112.941 55.666C112.623 56.002 112.465 56.45 112.465 57.01V61H110.715ZM122.174 61.14C121.334 61.14 120.7 60.9207 120.27 60.482C119.841 60.0433 119.626 59.3853 119.626 58.508V55.246H118.268V53.93H119.626V52.124L121.376 51.676V53.93H123.266V55.246H121.376V58.396C121.376 58.8813 121.47 59.222 121.656 59.418C121.843 59.614 122.1 59.712 122.426 59.712C122.604 59.712 122.753 59.698 122.874 59.67C123.005 59.642 123.131 59.6047 123.252 59.558V60.944C123.094 61.0093 122.916 61.056 122.72 61.084C122.534 61.1213 122.352 61.14 122.174 61.14Z" fill="#202244" fill-opacity="0.8"/>
</svg>
