<svg width="114" height="82" viewBox="0 0 114 82" fill="none" xmlns="http://www.w3.org/2000/svg">
<path d="M57 32V42" stroke="black" stroke-width="2" stroke-linecap="round" stroke-linejoin="round"/>
<path fill-rule="evenodd" clip-rule="evenodd" d="M32 0H82C84.211 0 86 1.789 86 4V54C86 56.211 84.211 58 82 58H32C29.789 58 28 56.211 28 54V4C28 1.789 29.789 0 32 0Z" fill="#EBEBEB"/>
<path fill-rule="evenodd" clip-rule="evenodd" d="M86 4V12H28V4C28 1.789 29.789 0 32 0H82C84.211 0 86 1.789 86 4Z" fill="#232D4D"/>
<path fill-rule="evenodd" clip-rule="evenodd" d="M35 6C35 6.551 34.551 7 34 7C33.449 7 33 6.551 33 6C33 5.449 33.449 5 34 5C34.551 5 35 5.449 35 6Z" fill="white"/>
<path fill-rule="evenodd" clip-rule="evenodd" d="M40 6C40 6.551 39.551 7 39 7C38.449 7 38 6.551 38 6C38 5.449 38.449 5 39 5C39.551 5 40 5.449 40 6Z" fill="white"/>
<path fill-rule="evenodd" clip-rule="evenodd" d="M45 6C45 6.551 44.551 7 44 7C43.449 7 43 6.551 43 6C43 5.449 43.449 5 44 5C44.551 5 45 5.449 45 6Z" fill="white"/>
<path fill-rule="evenodd" clip-rule="evenodd" d="M80 5H70C69.449 5 69 5.449 69 6C69 6.551 69.449 7 70 7H80C80.551 7 81 6.551 81 6C81 5.449 80.551 5 80 5Z" fill="white"/>
<path fill-rule="evenodd" clip-rule="evenodd" d="M72 36H58V31C58 30.449 57.551 30 57 30C56.449 30 56 30.449 56 31V36H42C41.449 36 41 36.449 41 37V44C41 44.551 41.449 45 42 45C42.551 45 43 44.551 43 44V38H56V44C56 44.551 56.449 45 57 45C57.551 45 58 44.551 58 44V38H71V44C71 44.551 71.449 45 72 45C72.551 45 73 44.551 73 44V37C73 36.449 72.551 36 72 36Z" fill="#CDCDCD"/>
<path fill-rule="evenodd" clip-rule="evenodd" d="M50 17H64C65.105 17 66 17.895 66 19V31C66 32.105 65.105 33 64 33H50C48.895 33 48 32.105 48 31V19C48 17.895 48.895 17 50 17Z" fill="#1AB3FF"/>
<path fill-rule="evenodd" clip-rule="evenodd" d="M62 30H52C51.449 30 51 29.551 51 29C51 28.449 51.449 28 52 28H62C62.551 28 63 28.449 63 29C63 29.551 62.551 30 62 30ZM62 26H52C51.449 26 51 25.551 51 25C51 24.449 51.449 24 52 24H62C62.551 24 63 24.449 63 25C63 25.551 62.551 26 62 26ZM62 22H56C55.449 22 55 21.551 55 21C55 20.449 55.449 20 56 20H62C62.551 20 63 20.449 63 21C63 21.551 62.551 22 62 22Z" fill="#0094E4"/>
<path fill-rule="evenodd" clip-rule="evenodd" d="M53 21C53 21.551 52.551 22 52 22C51.449 22 51 21.551 51 21C51 20.449 51.449 20 52 20C52.551 20 53 20.449 53 21Z" fill="#0094E4"/>
<path fill-rule="evenodd" clip-rule="evenodd" d="M39 42H45C46.105 42 47 42.895 47 44V50C47 51.105 46.105 52 45 52H39C37.895 52 37 51.105 37 50V44C37 42.895 37.895 42 39 42Z" fill="#1AB3FF"/>
<path fill-rule="evenodd" clip-rule="evenodd" d="M75 52H69C67.895 52 67 51.105 67 50V44C67 42.895 67.895 42 69 42H75C76.105 42 77 42.895 77 44V50C77 51.105 76.105 52 75 52Z" fill="#1AB3FF"/>
<path fill-rule="evenodd" clip-rule="evenodd" d="M54 42H60C61.105 42 62 42.895 62 44V50C62 51.105 61.105 52 60 52H54C52.895 52 52 51.105 52 50V44C52 42.895 52.895 42 54 42Z" fill="#1AB3FF"/>
<path fill-rule="evenodd" clip-rule="evenodd" d="M73 46H71C70.449 46 70 46.449 70 47C70 47.551 70.449 48 71 48H73C73.551 48 74 47.551 74 47C74 46.449 73.551 46 73 46ZM58 46H56C55.449 46 55 46.449 55 47C55 47.551 55.449 48 56 48H58C58.551 48 59 47.551 59 47C59 46.449 58.551 46 58 46ZM43 46H41C40.449 46 40 46.449 40 47C40 47.551 40.449 48 41 48H43C43.551 48 44 47.551 44 47C44 46.449 43.551 46 43 46Z" fill="#0094E4"/>
<path d="M12.0926 78.14C11.2993 78.14 10.5666 78.042 9.89464 77.846C9.23197 77.6407 8.66264 77.3607 8.18664 77.006L8.74664 75.592C9.06397 75.816 9.39531 76.0073 9.74064 76.166C10.086 76.3153 10.4546 76.432 10.8466 76.516C11.2386 76.5907 11.654 76.628 12.0926 76.628C12.83 76.628 13.362 76.5067 13.6886 76.264C14.0153 76.0213 14.1786 75.704 14.1786 75.312C14.1786 74.9667 14.0666 74.7053 13.8426 74.528C13.6186 74.3413 13.2173 74.1873 12.6386 74.066L11.0566 73.744C10.1513 73.5573 9.47464 73.2447 9.02664 72.806C8.57864 72.3673 8.35464 71.7793 8.35464 71.042C8.35464 70.426 8.51797 69.8893 8.84464 69.432C9.17131 68.9747 9.62864 68.62 10.2166 68.368C10.8046 68.116 11.4906 67.99 12.2746 67.99C12.9746 67.99 13.6233 68.0927 14.2206 68.298C14.818 68.494 15.3173 68.7787 15.7186 69.152L15.1586 70.496C14.7573 70.16 14.3186 69.9127 13.8426 69.754C13.3666 69.586 12.8346 69.502 12.2466 69.502C11.584 69.502 11.066 69.6327 10.6926 69.894C10.3286 70.146 10.1466 70.496 10.1466 70.944C10.1466 71.2893 10.2586 71.5647 10.4826 71.77C10.716 71.9753 11.108 72.134 11.6586 72.246L13.2266 72.554C14.16 72.7407 14.8506 73.0487 15.2986 73.478C15.7466 73.898 15.9706 74.4673 15.9706 75.186C15.9706 75.774 15.812 76.292 15.4946 76.74C15.1773 77.1787 14.7293 77.524 14.1506 77.776C13.572 78.0187 12.886 78.14 12.0926 78.14ZM17.6721 78V68.13H24.3221V69.544H19.4081V72.274H24.0001V73.702H19.4081V76.572H24.3221V78H17.6721ZM25.6626 73.058C25.6626 72.022 25.8492 71.126 26.2226 70.37C26.6052 69.614 27.1512 69.0307 27.8606 68.62C28.5699 68.2 29.4146 67.99 30.3946 67.99C31.3652 67.99 32.2052 68.2 32.9146 68.62C33.6239 69.0307 34.1699 69.614 34.5526 70.37C34.9446 71.126 35.1406 72.0173 35.1406 73.044C35.1406 74.08 34.9446 74.9807 34.5526 75.746C34.1699 76.502 33.6239 77.09 32.9146 77.51C32.2052 77.93 31.3652 78.14 30.3946 78.14C29.4146 78.14 28.5699 77.93 27.8606 77.51C27.1606 77.09 26.6192 76.502 26.2366 75.746C25.8539 74.9807 25.6626 74.0847 25.6626 73.058ZM27.5526 73.058C27.5526 74.1687 27.7906 75.0367 28.2666 75.662C28.7426 76.2873 29.4519 76.6 30.3946 76.6C31.3092 76.6 32.0139 76.2873 32.5086 75.662C33.0032 75.0367 33.2506 74.1687 33.2506 73.058C33.2506 71.938 33.0032 71.07 32.5086 70.454C32.0232 69.838 31.3186 69.53 30.3946 69.53C29.4519 69.53 28.7426 69.838 28.2666 70.454C27.7906 71.07 27.5526 71.938 27.5526 73.058ZM40.8599 78V68.13H42.4419L46.0679 76.292H45.6339L49.2599 68.13H50.8279V78H49.1899V70.678H49.6939L46.3759 78H45.2979L41.9799 70.678H42.4979V78H40.8599ZM55.6175 78.14C55.0015 78.14 54.4602 77.9953 53.9935 77.706C53.5269 77.4073 53.1629 76.9827 52.9015 76.432C52.6402 75.8813 52.5095 75.2233 52.5095 74.458C52.5095 73.6927 52.6402 73.0393 52.9015 72.498C53.1629 71.9473 53.5269 71.5273 53.9935 71.238C54.4602 70.9393 55.0015 70.79 55.6175 70.79C56.2149 70.79 56.7375 70.9393 57.1855 71.238C57.6429 71.5273 57.9462 71.9193 58.0955 72.414H57.9415L58.0955 70.93H59.7755C59.7475 71.2193 59.7195 71.5133 59.6915 71.812C59.6729 72.1107 59.6635 72.4047 59.6635 72.694V78H57.9275L57.9135 76.544H58.0815C57.9322 77.0293 57.6289 77.4167 57.1715 77.706C56.7142 77.9953 56.1962 78.14 55.6175 78.14ZM56.1075 76.796C56.6582 76.796 57.1015 76.6047 57.4375 76.222C57.7735 75.83 57.9415 75.242 57.9415 74.458C57.9415 73.674 57.7735 73.0907 57.4375 72.708C57.1015 72.3253 56.6582 72.134 56.1075 72.134C55.5569 72.134 55.1135 72.3253 54.7775 72.708C54.4415 73.0907 54.2735 73.674 54.2735 74.458C54.2735 75.242 54.4369 75.83 54.7635 76.222C55.0995 76.6047 55.5475 76.796 56.1075 76.796ZM61.5552 78V72.736C61.5552 72.4373 61.5459 72.134 61.5272 71.826C61.5179 71.518 61.4945 71.2193 61.4572 70.93H63.1512L63.3472 72.862H63.0672C63.1605 72.3953 63.3145 72.008 63.5292 71.7C63.7532 71.392 64.0239 71.1633 64.3412 71.014C64.6585 70.8647 65.0039 70.79 65.3772 70.79C65.5452 70.79 65.6805 70.7993 65.7832 70.818C65.8859 70.8273 65.9885 70.8507 66.0912 70.888L66.0772 72.428C65.8999 72.3533 65.7459 72.3067 65.6152 72.288C65.4939 72.2693 65.3399 72.26 65.1532 72.26C64.7519 72.26 64.4112 72.344 64.1312 72.512C63.8605 72.68 63.6552 72.9133 63.5152 73.212C63.3845 73.5107 63.3192 73.8513 63.3192 74.234V78H61.5552ZM67.0653 78V67.696H68.8153V73.94H68.8433L71.7133 70.93H73.8273L70.2573 74.668L70.2713 73.968L74.0793 78H71.9093L68.8433 74.836H68.8153V78H67.0653ZM78.0692 78.14C76.8838 78.14 75.9552 77.8133 75.2832 77.16C74.6112 76.5067 74.2752 75.6107 74.2752 74.472C74.2752 73.7347 74.4198 73.0907 74.7092 72.54C74.9985 71.9893 75.3998 71.56 75.9132 71.252C76.4358 70.944 77.0425 70.79 77.7332 70.79C78.4145 70.79 78.9838 70.9347 79.4412 71.224C79.8985 71.5133 80.2438 71.9193 80.4772 72.442C80.7198 72.9647 80.8412 73.576 80.8412 74.276V74.738H75.6892V73.814H79.5952L79.3572 74.01C79.3572 73.3567 79.2172 72.8573 78.9372 72.512C78.6665 72.1667 78.2698 71.994 77.7472 71.994C77.1685 71.994 76.7205 72.1993 76.4032 72.61C76.0952 73.0207 75.9412 73.5947 75.9412 74.332V74.514C75.9412 75.2793 76.1278 75.8533 76.5012 76.236C76.8838 76.6093 77.4205 76.796 78.1112 76.796C78.5125 76.796 78.8858 76.7447 79.2312 76.642C79.5858 76.53 79.9218 76.3527 80.2392 76.11L80.7572 77.286C80.4212 77.5567 80.0198 77.7667 79.5532 77.916C79.0865 78.0653 78.5918 78.14 78.0692 78.14ZM85.3198 78.14C84.4798 78.14 83.8451 77.9207 83.4158 77.482C82.9864 77.0433 82.7718 76.3853 82.7718 75.508V72.246H81.4138V70.93H82.7718V69.124L84.5218 68.676V70.93H86.4118V72.246H84.5218V75.396C84.5218 75.8813 84.6151 76.222 84.8018 76.418C84.9884 76.614 85.2451 76.712 85.5718 76.712C85.7491 76.712 85.8984 76.698 86.0198 76.67C86.1504 76.642 86.2764 76.6047 86.3978 76.558V77.944C86.2391 78.0093 86.0618 78.056 85.8658 78.084C85.6791 78.1213 85.4971 78.14 85.3198 78.14ZM87.6004 78V70.93H89.3504V78H87.6004ZM87.5024 69.6V67.892H89.4484V69.6H87.5024ZM91.2508 78V72.694C91.2508 72.4047 91.2415 72.1107 91.2228 71.812C91.2042 71.5133 91.1762 71.2193 91.1388 70.93H92.8328L92.9728 72.33H92.8048C93.0288 71.8353 93.3602 71.4573 93.7988 71.196C94.2375 70.9253 94.7462 70.79 95.3248 70.79C96.1555 70.79 96.7808 71.0233 97.2008 71.49C97.6208 71.9567 97.8308 72.6847 97.8308 73.674V78H96.0808V73.758C96.0808 73.1887 95.9688 72.7827 95.7448 72.54C95.5302 72.288 95.2035 72.162 94.7648 72.162C94.2235 72.162 93.7942 72.33 93.4768 72.666C93.1595 73.002 93.0008 73.45 93.0008 74.01V78H91.2508ZM102.962 81.136C102.309 81.136 101.716 81.066 101.184 80.926C100.662 80.786 100.195 80.5713 99.7844 80.282L100.162 79.022C100.433 79.1993 100.713 79.344 101.002 79.456C101.292 79.568 101.59 79.652 101.898 79.708C102.206 79.764 102.519 79.792 102.836 79.792C103.49 79.792 103.975 79.6287 104.292 79.302C104.619 78.9847 104.782 78.5273 104.782 77.93V76.236H104.922C104.773 76.7213 104.47 77.1087 104.012 77.398C103.564 77.6873 103.046 77.832 102.458 77.832C101.824 77.832 101.268 77.692 100.792 77.412C100.326 77.1227 99.9617 76.712 99.7004 76.18C99.439 75.648 99.3084 75.0227 99.3084 74.304C99.3084 73.5853 99.439 72.9647 99.7004 72.442C99.9617 71.91 100.326 71.504 100.792 71.224C101.268 70.9347 101.824 70.79 102.458 70.79C103.056 70.79 103.574 70.9347 104.012 71.224C104.46 71.504 104.759 71.8867 104.908 72.372L104.782 72.288L104.922 70.93H106.616C106.579 71.2193 106.551 71.5133 106.532 71.812C106.514 72.1107 106.504 72.4047 106.504 72.694V77.72C106.504 78.8307 106.201 79.6753 105.594 80.254C104.997 80.842 104.12 81.136 102.962 81.136ZM102.934 76.488C103.494 76.488 103.938 76.3013 104.264 75.928C104.6 75.5453 104.768 75.004 104.768 74.304C104.768 73.604 104.6 73.0673 104.264 72.694C103.938 72.3207 103.494 72.134 102.934 72.134C102.365 72.134 101.912 72.3207 101.576 72.694C101.24 73.0673 101.072 73.604 101.072 74.304C101.072 75.004 101.24 75.5453 101.576 75.928C101.912 76.3013 102.365 76.488 102.934 76.488Z" fill="#202244" fill-opacity="0.8"/>
</svg>
