<svg width="146" height="80" viewBox="0 0 146 80" fill="none" xmlns="http://www.w3.org/2000/svg">
<path fill-rule="evenodd" clip-rule="evenodd" d="M59.7499 29.2035V41.4502C60.8453 41.837 61.5796 42.871 61.5833 44.0352V45.8685C61.5833 46.3736 61.1717 46.7852 60.6666 46.7852H51.4999C50.9948 46.7852 50.5833 46.3736 50.5833 45.8685V44.0352C50.5869 42.871 51.3212 41.837 52.4166 41.4502V29.2035C51.3212 28.8167 50.5869 27.7827 50.5833 26.6185V24.7852C50.5833 24.2801 50.9948 23.8685 51.4999 23.8685H60.6666C61.1717 23.8685 61.5833 24.2801 61.5833 24.7852V26.6185C61.5796 27.7827 60.8453 28.8167 59.7499 29.2035Z" fill="#96A1C3"/>
<path fill-rule="evenodd" clip-rule="evenodd" d="M59.7501 29.2035V41.4502C60.8455 41.837 61.5797 42.871 61.5834 44.0352V45.8685C61.5834 46.3736 61.1718 46.7852 60.6667 46.7852H54.2501C54.2464 46.7604 54.2464 46.7348 54.2501 46.7137V44.7337C54.2537 43.5301 54.9733 42.4457 56.0834 41.9837V28.7168C54.9586 28.2474 54.2317 27.141 54.2501 25.92V23.94C54.2464 23.9189 54.2464 23.8933 54.2501 23.8685H60.6667C61.1718 23.8685 61.5834 24.2801 61.5834 24.7852V26.6185C61.5797 27.7827 60.8455 28.8167 59.7501 29.2035Z" fill="#CCD3EB"/>
<path fill-rule="evenodd" clip-rule="evenodd" d="M76.2499 29.2035V41.4502C77.3453 41.837 78.0796 42.871 78.0833 44.0352V45.8685C78.0833 46.3736 77.6717 46.7852 77.1666 46.7852H67.9999C67.4948 46.7852 67.0833 46.3736 67.0833 45.8685V44.0352C67.0869 42.871 67.8212 41.837 68.9166 41.4502V29.2035C67.8212 28.8167 67.0869 27.7827 67.0833 26.6185V24.7852C67.0833 24.2801 67.4948 23.8685 67.9999 23.8685H77.1666C77.6717 23.8685 78.0833 24.2801 78.0833 24.7852V26.6185C78.0796 27.7827 77.3453 28.8167 76.2499 29.2035Z" fill="#96A1C3"/>
<path fill-rule="evenodd" clip-rule="evenodd" d="M76.2501 29.2035V41.4502C77.3455 41.837 78.0797 42.871 78.0834 44.0352V45.8685C78.0834 46.3736 77.6718 46.7852 77.1667 46.7852H70.7501C70.7464 46.7604 70.7464 46.7348 70.7501 46.7137V44.7337C70.7537 43.5301 71.4733 42.4457 72.5834 41.9837V28.7168C71.4586 28.2474 70.7317 27.141 70.7501 25.92V23.94C70.7464 23.9189 70.7464 23.8933 70.7501 23.8685H77.1667C77.6718 23.8685 78.0834 24.2801 78.0834 24.7852V26.6185C78.0797 27.7827 77.3455 28.8167 76.2501 29.2035Z" fill="#CCD3EB"/>
<path fill-rule="evenodd" clip-rule="evenodd" d="M92.7499 29.2035V41.4502C93.8453 41.837 94.5796 42.871 94.5833 44.0352V45.8685C94.5833 46.3736 94.1717 46.7852 93.6666 46.7852H84.4999C83.9948 46.7852 83.5833 46.3736 83.5833 45.8685V44.0352C83.5869 42.871 84.3212 41.837 85.4166 41.4502V29.2035C84.3212 28.8167 83.5869 27.7827 83.5833 26.6185V24.7852C83.5833 24.2801 83.9948 23.8685 84.4999 23.8685H93.6666C94.1717 23.8685 94.5833 24.2801 94.5833 24.7852V26.6185C94.5796 27.7827 93.8453 28.8167 92.7499 29.2035Z" fill="#96A1C3"/>
<path fill-rule="evenodd" clip-rule="evenodd" d="M95.5 18.3682C95.5 18.8732 95.0884 19.2848 94.5833 19.2848H50.5833C50.1965 19.2848 49.8527 19.041 49.7207 18.6798C49.5915 18.3141 49.7061 17.9062 50.0067 17.6623L50.2542 17.4515L59.0084 10.2932L68.7516 2.31549C69.1531 1.98641 69.5968 1.71416 70.0735 1.50333C70.3815 1.35299 70.7069 1.23474 71.0433 1.15224C72.0535 0.88366 73.1131 0.88366 74.1233 1.15224C74.3525 1.20541 74.578 1.28058 74.7925 1.37408L75.0931 1.50333C75.4626 1.66741 75.8127 1.87183 76.1391 2.10833L76.415 2.31549L84.665 9.07224L87.4901 11.3822L88.1666 11.9515L90.9991 14.2716L93.7491 16.5165L94.8766 17.4332L95.1241 17.6449C95.357 17.8136 95.4963 18.0822 95.5 18.3682ZM92.75 29.2032V41.4507C93.8454 41.8376 94.5796 42.8707 94.5833 44.0348V45.8682C94.5833 46.3742 94.1717 46.7848 93.6666 46.7848H87.25C87.2463 46.761 87.2463 46.7344 87.25 46.7133V44.7342C87.2536 43.5297 87.9732 42.4462 89.0833 41.9842V28.7164C87.9586 28.2471 87.2316 27.1407 87.25 25.9197V23.9397C87.2463 23.9186 87.2463 23.8929 87.25 23.8682H93.6666C94.1717 23.8682 94.5833 24.2797 94.5833 24.7848V26.6182C94.5796 27.7832 93.8454 28.8163 92.75 29.2032Z" fill="#CCD3EB"/>
<path fill-rule="evenodd" clip-rule="evenodd" d="M93.7849 16.5348H58.8333C58.4465 16.5348 58.1027 16.291 57.9707 15.9298C57.8415 15.5641 57.9561 15.1562 58.2567 14.9123L58.5042 14.7015L67.2584 7.54325L74.7925 1.37408L75.0931 1.50333C75.4626 1.66742 75.8136 1.87183 76.1391 2.10833L76.415 2.3155L84.665 9.07225L87.4901 11.3823L88.1666 11.9515L90.9991 14.2716L93.7849 16.5348Z" fill="#F5F7FF"/>
<path fill-rule="evenodd" clip-rule="evenodd" d="M49.6667 17.452H95.5001C97.0181 17.452 98.2501 18.684 98.2501 20.202V22.952C98.2501 24.47 97.0181 25.702 95.5001 25.702H49.6667C48.1487 25.702 46.9167 24.47 46.9167 22.952V20.202C46.9167 18.684 48.1487 17.452 49.6667 17.452Z" fill="#CCD3EB"/>
<path fill-rule="evenodd" clip-rule="evenodd" d="M72.9306 9.20192H72.0139C71.7628 9.20192 71.5556 8.99751 71.5556 8.74359C71.5556 8.48967 71.7628 8.28526 72.0139 8.28526H74.4165C74.9216 8.28526 75.3332 7.87367 75.3332 7.36859C75.3332 6.86351 74.9216 6.45192 74.4165 6.45192H73.4999V5.53526C73.4999 5.03017 73.0883 4.61859 72.5832 4.61859C72.0781 4.61859 71.6665 5.03017 71.6665 5.53526V6.45192C70.4024 6.54817 69.4537 7.65184 69.5499 8.91867C69.6471 10.1828 70.7499 11.1315 72.0139 11.0353H72.9306C73.1845 11.0353 73.3889 11.2397 73.3889 11.4936C73.3889 11.7475 73.1845 11.9519 72.9306 11.9519H70.7499C70.2448 11.9519 69.8332 12.3635 69.8332 12.8686C69.8332 13.3737 70.2448 13.7853 70.7499 13.7853H71.6665V14.7019C71.6665 15.207 72.0781 15.6186 72.5832 15.6186C73.0883 15.6186 73.4999 15.207 73.4999 14.7019V13.7028C74.6283 13.4305 75.3726 12.3534 75.2296 11.2003C75.0829 10.0471 74.0948 9.18359 72.9306 9.20192Z" fill="#F5F7FF"/>
<path fill-rule="evenodd" clip-rule="evenodd" d="M94.5833 44.9516H50.5833C48.0515 44.9516 46 47.0031 46 49.5349V53.2016C46 53.7076 46.4116 54.1183 46.9167 54.1183H98.25C98.7551 54.1183 99.1667 53.7076 99.1667 53.2016V49.5349C99.1667 47.0031 97.1152 44.9516 94.5833 44.9516Z" fill="#96A1C3"/>
<path fill-rule="evenodd" clip-rule="evenodd" d="M88.3315 13.2554C88.1601 13.4662 87.9016 13.5918 87.6257 13.5918C87.4148 13.5955 87.2067 13.5203 87.05 13.381L86.3332 12.797C86.0004 12.4606 85.9757 11.9308 86.2727 11.5687C86.5697 11.2039 87.0958 11.125 87.49 11.3826L88.1665 11.9519C88.3636 12.1022 88.4928 12.324 88.5249 12.5679C88.5533 12.8117 88.4855 13.062 88.3315 13.2554Z" fill="#033C59"/>
<path fill-rule="evenodd" clip-rule="evenodd" d="M72.0139 8.28483H74.4165C74.9216 8.28483 75.3332 7.87325 75.3332 7.36816C75.3332 6.86308 74.9216 6.4515 74.4165 6.4515H73.4999V5.53483C73.4999 5.02975 73.0883 4.61816 72.5832 4.61816C72.0781 4.61816 71.6665 5.02975 71.6665 5.53483V6.4515C70.4024 6.54775 69.4537 7.65141 69.5499 8.91825C69.6471 10.1823 70.7499 11.1311 72.0139 11.0348H72.9306C73.1845 11.0348 73.3889 11.2392 73.3889 11.4932C73.3889 11.7471 73.1845 11.9515 72.9306 11.9515H70.7499C70.2448 11.9515 69.8332 12.3631 69.8332 12.8682C69.8332 13.3732 70.2448 13.7848 70.7499 13.7848H71.6665V14.7015C71.6665 15.2066 72.0781 15.6182 72.5832 15.6182C73.0883 15.6182 73.4999 15.2066 73.4999 14.7015V13.7032C74.6283 13.4301 75.3726 12.353 75.2296 11.1998C75.0829 10.0467 74.0948 9.18316 72.9306 9.2015H72.0139C71.7628 9.2015 71.5556 8.99708 71.5556 8.74316C71.5556 8.48925 71.7628 8.28483 72.0139 8.28483Z" fill="#0074FF"/>
<mask id="mask0_1_1003" style="mask-type:luminance" maskUnits="userSpaceOnUse" x="46" y="0" width="54" height="55">
<path fill-rule="evenodd" clip-rule="evenodd" d="M46 0.916931H99.1667V54.1182H46V0.916931Z" fill="white"/>
</mask>
<g mask="url(#mask0_1_1003)">
<path fill-rule="evenodd" clip-rule="evenodd" d="M97.3333 52.2849H47.8333V49.5349C47.8333 48.0179 49.0653 46.7849 50.5833 46.7849H94.5833C96.1013 46.7849 97.3333 48.0179 97.3333 49.5349V52.2849ZM52.4167 44.0349C52.4167 43.5299 52.8282 43.1183 53.3333 43.1183H58.8333C59.3384 43.1183 59.75 43.5299 59.75 44.0349V44.9516H52.4167V44.0349ZM49.6667 23.8683C49.1616 23.8683 48.75 23.4567 48.75 22.9516V20.2016C48.75 19.6965 49.1616 19.2849 49.6667 19.2849H95.5C96.0051 19.2849 96.4167 19.6965 96.4167 20.2016V22.9516C96.4167 23.4567 96.0051 23.8683 95.5 23.8683H49.6667ZM87.25 41.2849H90.9167V29.3683H87.25V41.2849ZM85.4167 44.0349C85.4167 43.5299 85.8283 43.1183 86.3333 43.1183H91.8333C92.3384 43.1183 92.75 43.5299 92.75 44.0349V44.9516H85.4167V44.0349ZM75.3333 27.5349H69.8333C69.3282 27.5349 68.9167 27.1243 68.9167 26.6183V25.7016H76.25V26.6183C76.25 27.1243 75.8384 27.5349 75.3333 27.5349ZM70.75 41.2849H74.4167V29.3683H70.75V41.2849ZM68.9167 44.0349C68.9167 43.5299 69.3282 43.1183 69.8333 43.1183H75.3333C75.8384 43.1183 76.25 43.5299 76.25 44.0349V44.9516H68.9167V44.0349ZM54.25 41.2849H57.9167V29.3683H54.25V41.2849ZM53.3333 27.5349C52.8282 27.5349 52.4167 27.1243 52.4167 26.6183V25.7016H59.75V26.6183C59.75 27.1243 59.3384 27.5349 58.8333 27.5349H53.3333ZM59.75 41.4509V29.2033C60.8454 28.8164 61.5797 27.7824 61.5833 26.6183V25.7016H67.0833V26.6183C67.087 27.7824 67.8213 28.8164 68.9167 29.2033V41.4509C67.8213 41.8377 67.087 42.8708 67.0833 44.0349V44.9516H61.5833V44.0349C61.5797 42.8708 60.8454 41.8377 59.75 41.4509ZM76.25 41.4509V29.2033C77.3454 28.8164 78.0797 27.7824 78.0833 26.6183V25.7016H83.5833V26.6183C83.587 27.7824 84.3213 28.8164 85.4167 29.2033V41.4509C84.3213 41.8377 83.587 42.8708 83.5833 44.0349V44.9516H78.0833V44.0349C78.0797 42.8708 77.3454 41.8377 76.25 41.4509ZM92.75 26.6183C92.75 27.1243 92.3384 27.5349 91.8333 27.5349H86.3333C85.8283 27.5349 85.4167 27.1243 85.4167 26.6183V25.7016H92.75V26.6183ZM94.5833 44.9516V44.0349C94.5797 42.8708 93.8454 41.8377 92.75 41.4509V29.2033C93.8454 28.8164 94.5797 27.7824 94.5833 26.6183V25.7016H95.5C97.018 25.7016 98.25 24.4696 98.25 22.9516V20.2016C98.25 18.6836 97.018 17.4516 95.5 17.4516H94.9124L91.0349 14.29C90.7874 14.0425 90.4226 13.9573 90.0935 14.0682C89.7598 14.1828 89.5233 14.4724 89.4775 14.8199C89.4344 15.1673 89.5884 15.5074 89.8817 15.7008L92.0158 17.4516H53.1509L69.9048 3.70161C71.2652 2.64194 73.1242 2.48061 74.6458 3.29002C74.8603 3.40827 75.0684 3.54761 75.2618 3.70161L83.5118 10.4474C83.9023 10.7095 84.4285 10.627 84.7255 10.2659C85.0225 9.9001 84.9977 9.37027 84.665 9.0366L76.415 2.29086C76.3252 2.21569 76.2289 2.14419 76.1318 2.07911C75.81 1.83619 75.4626 1.62811 75.0932 1.46402C72.9949 0.504272 70.5355 0.822355 68.7517 2.29086L59.0084 10.2934L50.2543 17.4516H49.6667C48.1487 17.4516 46.9167 18.6836 46.9167 20.2016V22.9516C46.9167 24.4696 48.1487 25.7016 49.6667 25.7016H50.5833V26.6183C50.587 27.7824 51.3212 28.8164 52.4167 29.2033V41.4509C51.3212 41.8377 50.587 42.8708 50.5833 44.0349V44.9516C48.0515 44.9516 46 47.0031 46 49.5349V53.2016C46 53.7076 46.4116 54.1183 46.9167 54.1183H98.25C98.7551 54.1183 99.1667 53.7076 99.1667 53.2016V49.5349C99.1667 47.0031 97.1152 44.9516 94.5833 44.9516Z" fill="#033C59"/>
</g>
<path d="M1.31563 76V66.13H7.82563V67.544H3.12163V70.344H7.50363V71.758H3.12163V76H1.31563ZM9.18735 76V68.93H10.9374V76H9.18735ZM9.08935 67.6V65.892H11.0354V67.6H9.08935ZM12.8377 76V70.694C12.8377 70.4047 12.8284 70.1107 12.8097 69.812C12.7911 69.5133 12.7631 69.2193 12.7257 68.93H14.4197L14.5597 70.33H14.3917C14.6157 69.8353 14.9471 69.4573 15.3857 69.196C15.8244 68.9253 16.3331 68.79 16.9117 68.79C17.7424 68.79 18.3677 69.0233 18.7877 69.49C19.2077 69.9567 19.4177 70.6847 19.4177 71.674V76H17.6677V71.758C17.6677 71.1887 17.5557 70.7827 17.3317 70.54C17.1171 70.288 16.7904 70.162 16.3517 70.162C15.8104 70.162 15.3811 70.33 15.0637 70.666C14.7464 71.002 14.5877 71.45 14.5877 72.01V76H12.8377ZM24.0033 76.14C23.3873 76.14 22.846 75.9953 22.3793 75.706C21.9126 75.4073 21.5486 74.9827 21.2873 74.432C21.026 73.8813 20.8953 73.2233 20.8953 72.458C20.8953 71.6927 21.026 71.0393 21.2873 70.498C21.5486 69.9473 21.9126 69.5273 22.3793 69.238C22.846 68.9393 23.3873 68.79 24.0033 68.79C24.6006 68.79 25.1233 68.9393 25.5713 69.238C26.0286 69.5273 26.332 69.9193 26.4813 70.414H26.3273L26.4813 68.93H28.1613C28.1333 69.2193 28.1053 69.5133 28.0773 69.812C28.0586 70.1107 28.0493 70.4047 28.0493 70.694V76H26.3133L26.2993 74.544H26.4673C26.318 75.0293 26.0146 75.4167 25.5573 75.706C25.1 75.9953 24.582 76.14 24.0033 76.14ZM24.4933 74.796C25.044 74.796 25.4873 74.6047 25.8233 74.222C26.1593 73.83 26.3273 73.242 26.3273 72.458C26.3273 71.674 26.1593 71.0907 25.8233 70.708C25.4873 70.3253 25.044 70.134 24.4933 70.134C23.9426 70.134 23.4993 70.3253 23.1633 70.708C22.8273 71.0907 22.6593 71.674 22.6593 72.458C22.6593 73.242 22.8226 73.83 23.1493 74.222C23.4853 74.6047 23.9333 74.796 24.4933 74.796ZM29.9549 76V70.694C29.9549 70.4047 29.9456 70.1107 29.9269 69.812C29.9083 69.5133 29.8803 69.2193 29.8429 68.93H31.5369L31.6769 70.33H31.5089C31.7329 69.8353 32.0643 69.4573 32.5029 69.196C32.9416 68.9253 33.4503 68.79 34.0289 68.79C34.8596 68.79 35.4849 69.0233 35.9049 69.49C36.3249 69.9567 36.5349 70.6847 36.5349 71.674V76H34.7849V71.758C34.7849 71.1887 34.6729 70.7827 34.4489 70.54C34.2343 70.288 33.9076 70.162 33.4689 70.162C32.9276 70.162 32.4983 70.33 32.1809 70.666C31.8636 71.002 31.7049 71.45 31.7049 72.01V76H29.9549ZM41.6385 76.14C40.9105 76.14 40.2711 75.9907 39.7205 75.692C39.1791 75.3933 38.7591 74.9687 38.4605 74.418C38.1618 73.858 38.0125 73.1953 38.0125 72.43C38.0125 71.6647 38.1618 71.0113 38.4605 70.47C38.7685 69.9287 39.1931 69.5133 39.7345 69.224C40.2758 68.9347 40.9105 68.79 41.6385 68.79C42.1051 68.79 42.5578 68.8647 42.9965 69.014C43.4445 69.154 43.8085 69.3593 44.0885 69.63L43.5565 70.848C43.3045 70.6147 43.0198 70.442 42.7025 70.33C42.3945 70.2087 42.0911 70.148 41.7925 70.148C41.1671 70.148 40.6771 70.344 40.3225 70.736C39.9771 71.128 39.8045 71.6973 39.8045 72.444C39.8045 73.1907 39.9771 73.7647 40.3225 74.166C40.6771 74.5673 41.1671 74.768 41.7925 74.768C42.0818 74.768 42.3805 74.712 42.6885 74.6C43.0058 74.488 43.2951 74.3153 43.5565 74.082L44.0885 75.286C43.7991 75.5567 43.4305 75.7667 42.9825 75.916C42.5438 76.0653 42.0958 76.14 41.6385 76.14ZM48.7244 76.14C47.5391 76.14 46.6104 75.8133 45.9384 75.16C45.2664 74.5067 44.9304 73.6107 44.9304 72.472C44.9304 71.7347 45.0751 71.0907 45.3644 70.54C45.6538 69.9893 46.0551 69.56 46.5684 69.252C47.0911 68.944 47.6978 68.79 48.3884 68.79C49.0698 68.79 49.6391 68.9347 50.0964 69.224C50.5538 69.5133 50.8991 69.9193 51.1324 70.442C51.3751 70.9647 51.4964 71.576 51.4964 72.276V72.738H46.3444V71.814H50.2504L50.0124 72.01C50.0124 71.3567 49.8724 70.8573 49.5924 70.512C49.3218 70.1667 48.9251 69.994 48.4024 69.994C47.8238 69.994 47.3758 70.1993 47.0584 70.61C46.7504 71.0207 46.5964 71.5947 46.5964 72.332V72.514C46.5964 73.2793 46.7831 73.8533 47.1564 74.236C47.5391 74.6093 48.0758 74.796 48.7664 74.796C49.1678 74.796 49.5411 74.7447 49.8864 74.642C50.2411 74.53 50.5771 74.3527 50.8944 74.11L51.4124 75.286C51.0764 75.5567 50.6751 75.7667 50.2084 75.916C49.7418 76.0653 49.2471 76.14 48.7244 76.14ZM65.0802 76.14C64.6508 75.9907 64.2402 75.79 63.8482 75.538C63.4562 75.2767 63.1015 75.0013 62.7842 74.712L63.1622 74.726C62.7328 75.1647 62.2335 75.51 61.6642 75.762C61.0948 76.014 60.4882 76.14 59.8442 76.14C59.1255 76.14 58.5048 76.028 57.9822 75.804C57.4595 75.58 57.0582 75.272 56.7782 74.88C56.4982 74.4787 56.3582 74.012 56.3582 73.48C56.3582 72.8453 56.5448 72.304 56.9182 71.856C57.2915 71.408 57.8048 70.988 58.4582 70.596L58.9342 70.33L58.6682 70.652C58.2668 70.2507 57.9682 69.8633 57.7722 69.49C57.5762 69.1167 57.4782 68.7293 57.4782 68.328C57.4782 67.8613 57.5902 67.4553 57.8142 67.11C58.0475 66.7553 58.3695 66.48 58.7802 66.284C59.2002 66.088 59.6902 65.99 60.2502 65.99C60.9782 65.99 61.5708 66.186 62.0282 66.578C62.4855 66.9607 62.7142 67.4833 62.7142 68.146C62.7142 68.5007 62.6442 68.832 62.5042 69.14C62.3642 69.448 62.1355 69.742 61.8182 70.022C61.5102 70.302 61.1042 70.582 60.6002 70.862L60.6422 70.512L63.0922 73.046H62.7282C62.9708 72.6633 63.1575 72.2153 63.2882 71.702C63.4188 71.1887 63.4982 70.6473 63.5262 70.078H64.9962C64.9682 70.8433 64.8468 71.5667 64.6322 72.248C64.4175 72.9293 64.1282 73.5313 63.7642 74.054L63.7502 73.634C64.0022 73.8953 64.2915 74.1333 64.6182 74.348C64.9448 74.5627 65.2995 74.74 65.6822 74.88L65.0802 76.14ZM59.9422 74.782C60.4088 74.782 60.8242 74.6933 61.1882 74.516C61.5615 74.3387 61.8928 74.0773 62.1822 73.732L62.1402 74.152L59.2002 71.17L59.9142 71.184L59.5082 71.408C59.1908 71.604 58.9248 71.8 58.7102 71.996C58.5048 72.192 58.3508 72.402 58.2482 72.626C58.1455 72.8407 58.0942 73.088 58.0942 73.368C58.0942 73.8067 58.2528 74.152 58.5702 74.404C58.8875 74.656 59.3448 74.782 59.9422 74.782ZM60.2502 67.18C59.8955 67.18 59.6108 67.2827 59.3962 67.488C59.1815 67.6933 59.0742 67.964 59.0742 68.3C59.0742 68.4773 59.1068 68.6453 59.1722 68.804C59.2375 68.9627 59.3448 69.1353 59.4942 69.322C59.6435 69.4993 59.8395 69.7187 60.0822 69.98L59.6622 70.008C60.2408 69.6907 60.6608 69.4013 60.9222 69.14C61.1928 68.8693 61.3282 68.5613 61.3282 68.216C61.3282 67.8893 61.2302 67.6373 61.0342 67.46C60.8382 67.2733 60.5768 67.18 60.2502 67.18ZM69.3486 76L73.8146 66.13H75.3266L79.8486 76H78.0146L76.8106 73.228L77.5386 73.718H71.6166L72.3726 73.228L71.1686 76H69.3486ZM74.5566 68.062L72.5826 72.738L72.2186 72.304H76.9226L76.6286 72.738L74.6126 68.062H74.5566ZM83.9803 76.14C83.2523 76.14 82.6129 75.9907 82.0623 75.692C81.5209 75.3933 81.1009 74.9687 80.8023 74.418C80.5036 73.858 80.3543 73.1953 80.3543 72.43C80.3543 71.6647 80.5036 71.0113 80.8023 70.47C81.1103 69.9287 81.5349 69.5133 82.0763 69.224C82.6176 68.9347 83.2523 68.79 83.9803 68.79C84.4469 68.79 84.8996 68.8647 85.3383 69.014C85.7863 69.154 86.1503 69.3593 86.4303 69.63L85.8983 70.848C85.6463 70.6147 85.3616 70.442 85.0443 70.33C84.7363 70.2087 84.4329 70.148 84.1343 70.148C83.5089 70.148 83.0189 70.344 82.6643 70.736C82.3189 71.128 82.1463 71.6973 82.1463 72.444C82.1463 73.1907 82.3189 73.7647 82.6643 74.166C83.0189 74.5673 83.5089 74.768 84.1343 74.768C84.4236 74.768 84.7223 74.712 85.0303 74.6C85.3476 74.488 85.6369 74.3153 85.8983 74.082L86.4303 75.286C86.1409 75.5567 85.7723 75.7667 85.3243 75.916C84.8856 76.0653 84.4376 76.14 83.9803 76.14ZM90.8982 76.14C90.1702 76.14 89.5309 75.9907 88.9802 75.692C88.4389 75.3933 88.0189 74.9687 87.7202 74.418C87.4216 73.858 87.2722 73.1953 87.2722 72.43C87.2722 71.6647 87.4216 71.0113 87.7202 70.47C88.0282 69.9287 88.4529 69.5133 88.9942 69.224C89.5356 68.9347 90.1702 68.79 90.8982 68.79C91.3649 68.79 91.8176 68.8647 92.2562 69.014C92.7042 69.154 93.0682 69.3593 93.3482 69.63L92.8162 70.848C92.5642 70.6147 92.2796 70.442 91.9622 70.33C91.6542 70.2087 91.3509 70.148 91.0522 70.148C90.4269 70.148 89.9369 70.344 89.5822 70.736C89.2369 71.128 89.0642 71.6973 89.0642 72.444C89.0642 73.1907 89.2369 73.7647 89.5822 74.166C89.9369 74.5673 90.4269 74.768 91.0522 74.768C91.3416 74.768 91.6402 74.712 91.9482 74.6C92.2656 74.488 92.5549 74.3153 92.8162 74.082L93.3482 75.286C93.0589 75.5567 92.6902 75.7667 92.2422 75.916C91.8036 76.0653 91.3556 76.14 90.8982 76.14ZM97.7602 76.14C97.0322 76.14 96.4022 75.9907 95.8702 75.692C95.3382 75.3933 94.9229 74.9687 94.6242 74.418C94.3349 73.8673 94.1902 73.214 94.1902 72.458C94.1902 71.702 94.3349 71.0533 94.6242 70.512C94.9229 69.9613 95.3382 69.5367 95.8702 69.238C96.4022 68.9393 97.0322 68.79 97.7602 68.79C98.4882 68.79 99.1182 68.9393 99.6502 69.238C100.192 69.5367 100.607 69.9613 100.896 70.512C101.195 71.0533 101.344 71.702 101.344 72.458C101.344 73.214 101.195 73.8673 100.896 74.418C100.607 74.9687 100.192 75.3933 99.6502 75.692C99.1182 75.9907 98.4882 76.14 97.7602 76.14ZM97.7602 74.796C98.3109 74.796 98.7495 74.6047 99.0762 74.222C99.4029 73.83 99.5662 73.242 99.5662 72.458C99.5662 71.674 99.4029 71.0907 99.0762 70.708C98.7495 70.3253 98.3109 70.134 97.7602 70.134C97.2095 70.134 96.7709 70.3253 96.4442 70.708C96.1175 71.0907 95.9542 71.674 95.9542 72.458C95.9542 73.242 96.1175 73.83 96.4442 74.222C96.7709 74.6047 97.2095 74.796 97.7602 74.796ZM105.401 76.14C104.533 76.14 103.885 75.902 103.455 75.426C103.026 74.95 102.811 74.222 102.811 73.242V68.93H104.561V73.228C104.561 73.7507 104.669 74.138 104.883 74.39C105.098 74.6327 105.425 74.754 105.863 74.754C106.358 74.754 106.759 74.586 107.067 74.25C107.385 73.914 107.543 73.4707 107.543 72.92V68.93H109.293V76H107.585V74.558H107.781C107.576 75.062 107.263 75.454 106.843 75.734C106.433 76.0047 105.952 76.14 105.401 76.14ZM111.193 76V70.694C111.193 70.4047 111.184 70.1107 111.165 69.812C111.147 69.5133 111.119 69.2193 111.081 68.93H112.775L112.915 70.33H112.747C112.971 69.8353 113.303 69.4573 113.741 69.196C114.18 68.9253 114.689 68.79 115.267 68.79C116.098 68.79 116.723 69.0233 117.143 69.49C117.563 69.9567 117.773 70.6847 117.773 71.674V76H116.023V71.758C116.023 71.1887 115.911 70.7827 115.687 70.54C115.473 70.288 115.146 70.162 114.707 70.162C114.166 70.162 113.737 70.33 113.419 70.666C113.102 71.002 112.943 71.45 112.943 72.01V76H111.193ZM122.653 76.14C121.813 76.14 121.178 75.9207 120.749 75.482C120.319 75.0433 120.105 74.3853 120.105 73.508V70.246H118.747V68.93H120.105V67.124L121.855 66.676V68.93H123.745V70.246H121.855V73.396C121.855 73.8813 121.948 74.222 122.135 74.418C122.321 74.614 122.578 74.712 122.905 74.712C123.082 74.712 123.231 74.698 123.353 74.67C123.483 74.642 123.609 74.6047 123.731 74.558V75.944C123.572 76.0093 123.395 76.056 123.199 76.084C123.012 76.1213 122.83 76.14 122.653 76.14ZM124.933 76V68.93H126.683V76H124.933ZM124.835 67.6V65.892H126.781V67.6H124.835ZM128.584 76V70.694C128.584 70.4047 128.575 70.1107 128.556 69.812C128.537 69.5133 128.509 69.2193 128.472 68.93H130.166L130.306 70.33H130.138C130.362 69.8353 130.693 69.4573 131.132 69.196C131.571 68.9253 132.079 68.79 132.658 68.79C133.489 68.79 134.114 69.0233 134.534 69.49C134.954 69.9567 135.164 70.6847 135.164 71.674V76H133.414V71.758C133.414 71.1887 133.302 70.7827 133.078 70.54C132.863 70.288 132.537 70.162 132.098 70.162C131.557 70.162 131.127 70.33 130.81 70.666C130.493 71.002 130.334 71.45 130.334 72.01V76H128.584ZM140.295 79.136C139.642 79.136 139.049 79.066 138.517 78.926C137.995 78.786 137.528 78.5713 137.117 78.282L137.495 77.022C137.766 77.1993 138.046 77.344 138.335 77.456C138.625 77.568 138.923 77.652 139.231 77.708C139.539 77.764 139.852 77.792 140.169 77.792C140.823 77.792 141.308 77.6287 141.625 77.302C141.952 76.9847 142.115 76.5273 142.115 75.93V74.236H142.255C142.106 74.7213 141.803 75.1087 141.345 75.398C140.897 75.6873 140.379 75.832 139.791 75.832C139.157 75.832 138.601 75.692 138.125 75.412C137.659 75.1227 137.295 74.712 137.033 74.18C136.772 73.648 136.641 73.0227 136.641 72.304C136.641 71.5853 136.772 70.9647 137.033 70.442C137.295 69.91 137.659 69.504 138.125 69.224C138.601 68.9347 139.157 68.79 139.791 68.79C140.389 68.79 140.907 68.9347 141.345 69.224C141.793 69.504 142.092 69.8867 142.241 70.372L142.115 70.288L142.255 68.93H143.949C143.912 69.2193 143.884 69.5133 143.865 69.812C143.847 70.1107 143.837 70.4047 143.837 70.694V75.72C143.837 76.8307 143.534 77.6753 142.927 78.254C142.33 78.842 141.453 79.136 140.295 79.136ZM140.267 74.488C140.827 74.488 141.271 74.3013 141.597 73.928C141.933 73.5453 142.101 73.004 142.101 72.304C142.101 71.604 141.933 71.0673 141.597 70.694C141.271 70.3207 140.827 70.134 140.267 70.134C139.698 70.134 139.245 70.3207 138.909 70.694C138.573 71.0673 138.405 71.604 138.405 72.304C138.405 73.004 138.573 73.5453 138.909 73.928C139.245 74.3013 139.698 74.488 140.267 74.488Z" fill="#202244" fill-opacity="0.8"/>
</svg>
