<svg width="152" height="85" viewBox="0 0 152 85" fill="none" xmlns="http://www.w3.org/2000/svg">
<path fill-rule="evenodd" clip-rule="evenodd" d="M46 40H50V-0.000976562H46V40Z" fill="#41EAD4"/>
<path fill-rule="evenodd" clip-rule="evenodd" d="M54 40H58V10H54V40Z" fill="#FF9F1C"/>
<path fill-rule="evenodd" clip-rule="evenodd" d="M62 40H66V6H62V40Z" fill="#1B98E0"/>
<path fill-rule="evenodd" clip-rule="evenodd" d="M70 40H74V22H70V40Z" fill="#F71735"/>
<path fill-rule="evenodd" clip-rule="evenodd" d="M78 42H46V40H77V20C77 19.449 77.449 19 78 19C78.551 19 79 19.449 79 20V41C79 41.551 78.551 42 78 42Z" fill="#4F5D75"/>
<path fill-rule="evenodd" clip-rule="evenodd" d="M60.922 51.9102C55.777 51.0662 54.934 50.2232 54.09 45.0782C54.082 45.0312 54.047 45.0002 54 45.0002C53.953 45.0002 53.918 45.0312 53.91 45.0782C53.066 50.2232 52.223 51.0662 47.078 51.9102C47.031 51.9182 47 51.9532 47 52.0002C47 52.0472 47.031 52.0822 47.078 52.0902C52.223 52.9332 53.066 53.7772 53.91 58.9222C53.918 58.9692 53.953 59.0002 54 59.0002C54.047 59.0002 54.082 58.9692 54.09 58.9222C54.934 53.7772 55.777 52.9332 60.922 52.0902C60.969 52.0822 61 52.0472 61 52.0002C61 51.9532 60.969 51.9182 60.922 51.9102ZM104.922 7.91018C99.777 7.06618 98.934 6.22318 98.09 1.07818C98.082 1.03118 98.047 1.00018 98 1.00018C97.953 1.00018 97.918 1.03118 97.91 1.07818C97.067 6.22318 96.223 7.06618 91.078 7.91018C91.031 7.91818 91 7.95318 91 8.00018C91 8.04718 91.031 8.08218 91.078 8.09018C96.223 8.93418 97.067 9.77718 97.91 14.9222C97.918 14.9692 97.953 15.0002 98 15.0002C98.047 15.0002 98.082 14.9692 98.09 14.9222C98.934 9.77718 99.777 8.93418 104.922 8.09018C104.969 8.08218 105 8.04718 105 8.00018C105 7.95318 104.969 7.91818 104.922 7.91018Z" fill="#1B98E0"/>
<path fill-rule="evenodd" clip-rule="evenodd" d="M89.711 42H96.289C101.652 42 106 46.348 106 51.711V60H80V51.711C80 46.348 84.348 42 89.711 42Z" fill="#2D3142"/>
<path fill-rule="evenodd" clip-rule="evenodd" d="M96.1095 52L93.0005 47.715L89.8905 52L89.0005 42H97.0005L96.1095 52Z" fill="#247BA0"/>
<path fill-rule="evenodd" clip-rule="evenodd" d="M93 48L95 42H91L93 48Z" fill="#F71735"/>
<path fill-rule="evenodd" clip-rule="evenodd" d="M101 60H99V51C99 50.449 99.449 50 100 50C100.551 50 101 50.449 101 51V60ZM87 60H85V51C85 50.449 85.449 50 86 50C86.551 50 87 50.449 87 51V60Z" fill="#4F5D75"/>
<path fill-rule="evenodd" clip-rule="evenodd" d="M99.922 30.8789V31.4299C101.152 31.5199 102.082 32.5859 102 33.8199C102.008 34.4419 101.789 35.0429 101.391 35.5199C101.027 35.9569 100.488 36.2149 99.922 36.2189C99.852 38.5589 98.477 40.6599 96.359 41.6599L94.461 42.6489C93.543 43.1169 92.457 43.1169 91.539 42.6489L89.641 41.6599C88.586 41.1289 87.688 40.3319 87.031 39.3519C86.414 38.4219 86.086 37.3319 86.078 36.2189C84.887 36.0509 84 35.0309 84 33.8239C84 32.6209 84.887 31.5979 86.078 31.4299V30.9999L94.602 28.9999H97.012L99.922 30.8789Z" fill="#FFBF69"/>
<path fill-rule="evenodd" clip-rule="evenodd" d="M101 32C99.574 31.988 98.219 31.367 97.273 30.301L96 31L95.91 29C94.105 30.961 91.547 32.051 88.887 32H85V29.602C85 25.621 87.93 24 91.547 24H94.453C98.07 24 101 25.625 101 29.602V32Z" fill="#2D3142"/>
<path d="M1.10177 81V71.13H5.48377C6.56643 71.13 7.39243 71.3913 7.96177 71.914C8.5311 72.4367 8.81577 73.1553 8.81577 74.07C8.81577 74.9753 8.5311 75.694 7.96177 76.226C7.39243 76.758 6.56643 77.024 5.48377 77.024H2.90777V81H1.10177ZM2.90777 75.596H5.27377C5.8711 75.596 6.3191 75.4653 6.61777 75.204C6.91643 74.9333 7.06577 74.5553 7.06577 74.07C7.06577 73.5847 6.91643 73.2113 6.61777 72.95C6.3191 72.6793 5.8711 72.544 5.27377 72.544H2.90777V75.596ZM13.3602 81.14C12.1749 81.14 11.2462 80.8133 10.5742 80.16C9.90219 79.5067 9.56619 78.6107 9.56619 77.472C9.56619 76.7347 9.71085 76.0907 10.0002 75.54C10.2895 74.9893 10.6909 74.56 11.2042 74.252C11.7269 73.944 12.3335 73.79 13.0242 73.79C13.7055 73.79 14.2749 73.9347 14.7322 74.224C15.1895 74.5133 15.5349 74.9193 15.7682 75.442C16.0109 75.9647 16.1322 76.576 16.1322 77.276V77.738H10.9802V76.814H14.8862L14.6482 77.01C14.6482 76.3567 14.5082 75.8573 14.2282 75.512C13.9575 75.1667 13.5609 74.994 13.0382 74.994C12.4595 74.994 12.0115 75.1993 11.6942 75.61C11.3862 76.0207 11.2322 76.5947 11.2322 77.332V77.514C11.2322 78.2793 11.4189 78.8533 11.7922 79.236C12.1749 79.6093 12.7115 79.796 13.4022 79.796C13.8035 79.796 14.1769 79.7447 14.5222 79.642C14.8769 79.53 15.2129 79.3527 15.5302 79.11L16.0482 80.286C15.7122 80.5567 15.3109 80.7667 14.8442 80.916C14.3775 81.0653 13.8829 81.14 13.3602 81.14ZM17.6001 81V75.736C17.6001 75.4373 17.5908 75.134 17.5721 74.826C17.5628 74.518 17.5394 74.2193 17.5021 73.93H19.1961L19.3921 75.862H19.1121C19.2054 75.3953 19.3594 75.008 19.5741 74.7C19.7981 74.392 20.0688 74.1633 20.3861 74.014C20.7034 73.8647 21.0488 73.79 21.4221 73.79C21.5901 73.79 21.7254 73.7993 21.8281 73.818C21.9308 73.8273 22.0334 73.8507 22.1361 73.888L22.1221 75.428C21.9448 75.3533 21.7908 75.3067 21.6601 75.288C21.5388 75.2693 21.3848 75.26 21.1981 75.26C20.7968 75.26 20.4561 75.344 20.1761 75.512C19.9054 75.68 19.7001 75.9133 19.5601 76.212C19.4294 76.5107 19.3641 76.8513 19.3641 77.234V81H17.6001ZM25.5618 81.14C24.9552 81.14 24.3952 81.07 23.8818 80.93C23.3778 80.7807 22.9532 80.5753 22.6078 80.314L23.0978 79.138C23.4525 79.3807 23.8445 79.5673 24.2738 79.698C24.7032 79.8287 25.1372 79.894 25.5758 79.894C26.0425 79.894 26.3878 79.8147 26.6118 79.656C26.8452 79.4973 26.9618 79.2827 26.9618 79.012C26.9618 78.7973 26.8872 78.6293 26.7378 78.508C26.5978 78.3773 26.3692 78.2793 26.0518 78.214L24.6518 77.948C24.0545 77.8173 23.5972 77.5933 23.2798 77.276C22.9718 76.9587 22.8178 76.5433 22.8178 76.03C22.8178 75.5913 22.9345 75.204 23.1678 74.868C23.4105 74.532 23.7512 74.2707 24.1898 74.084C24.6378 73.888 25.1605 73.79 25.7578 73.79C26.2805 73.79 26.7705 73.86 27.2278 74C27.6945 74.14 28.0865 74.35 28.4038 74.63L27.8998 75.764C27.6105 75.5307 27.2792 75.3487 26.9058 75.218C26.5325 75.0873 26.1685 75.022 25.8138 75.022C25.3285 75.022 24.9738 75.1107 24.7498 75.288C24.5258 75.456 24.4138 75.6753 24.4138 75.946C24.4138 76.1513 24.4792 76.324 24.6098 76.464C24.7498 76.5947 24.9645 76.6927 25.2538 76.758L26.6538 77.024C27.2792 77.1453 27.7505 77.36 28.0678 77.668C28.3945 77.9667 28.5578 78.3773 28.5578 78.9C28.5578 79.3667 28.4318 79.768 28.1798 80.104C27.9278 80.44 27.5778 80.6967 27.1298 80.874C26.6818 81.0513 26.1592 81.14 25.5618 81.14ZM33.2475 81.14C32.5195 81.14 31.8895 80.9907 31.3575 80.692C30.8255 80.3933 30.4102 79.9687 30.1115 79.418C29.8222 78.8673 29.6775 78.214 29.6775 77.458C29.6775 76.702 29.8222 76.0533 30.1115 75.512C30.4102 74.9613 30.8255 74.5367 31.3575 74.238C31.8895 73.9393 32.5195 73.79 33.2475 73.79C33.9755 73.79 34.6055 73.9393 35.1375 74.238C35.6788 74.5367 36.0942 74.9613 36.3835 75.512C36.6822 76.0533 36.8315 76.702 36.8315 77.458C36.8315 78.214 36.6822 78.8673 36.3835 79.418C36.0942 79.9687 35.6788 80.3933 35.1375 80.692C34.6055 80.9907 33.9755 81.14 33.2475 81.14ZM33.2475 79.796C33.7982 79.796 34.2368 79.6047 34.5635 79.222C34.8902 78.83 35.0535 78.242 35.0535 77.458C35.0535 76.674 34.8902 76.0907 34.5635 75.708C34.2368 75.3253 33.7982 75.134 33.2475 75.134C32.6968 75.134 32.2582 75.3253 31.9315 75.708C31.6048 76.0907 31.4415 76.674 31.4415 77.458C31.4415 78.242 31.6048 78.83 31.9315 79.222C32.2582 79.6047 32.6968 79.796 33.2475 79.796ZM38.3407 81V75.694C38.3407 75.4047 38.3313 75.1107 38.3127 74.812C38.294 74.5133 38.266 74.2193 38.2287 73.93H39.9227L40.0627 75.33H39.8947C40.1187 74.8353 40.45 74.4573 40.8887 74.196C41.3273 73.9253 41.836 73.79 42.4147 73.79C43.2453 73.79 43.8707 74.0233 44.2907 74.49C44.7107 74.9567 44.9207 75.6847 44.9207 76.674V81H43.1707V76.758C43.1707 76.1887 43.0587 75.7827 42.8347 75.54C42.62 75.288 42.2933 75.162 41.8547 75.162C41.3133 75.162 40.884 75.33 40.5667 75.666C40.2493 76.002 40.0907 76.45 40.0907 77.01V81H38.3407ZM49.5062 81.14C48.8902 81.14 48.3489 80.9953 47.8822 80.706C47.4156 80.4073 47.0516 79.9827 46.7902 79.432C46.5289 78.8813 46.3982 78.2233 46.3982 77.458C46.3982 76.6927 46.5289 76.0393 46.7902 75.498C47.0516 74.9473 47.4156 74.5273 47.8822 74.238C48.3489 73.9393 48.8902 73.79 49.5062 73.79C50.1036 73.79 50.6262 73.9393 51.0742 74.238C51.5316 74.5273 51.8349 74.9193 51.9842 75.414H51.8302L51.9842 73.93H53.6642C53.6362 74.2193 53.6082 74.5133 53.5802 74.812C53.5616 75.1107 53.5522 75.4047 53.5522 75.694V81H51.8162L51.8022 79.544H51.9702C51.8209 80.0293 51.5176 80.4167 51.0602 80.706C50.6029 80.9953 50.0849 81.14 49.5062 81.14ZM49.9962 79.796C50.5469 79.796 50.9902 79.6047 51.3262 79.222C51.6622 78.83 51.8302 78.242 51.8302 77.458C51.8302 76.674 51.6622 76.0907 51.3262 75.708C50.9902 75.3253 50.5469 75.134 49.9962 75.134C49.4456 75.134 49.0022 75.3253 48.6662 75.708C48.3302 76.0907 48.1622 76.674 48.1622 77.458C48.1622 78.242 48.3256 78.83 48.6522 79.222C48.9882 79.6047 49.4362 79.796 49.9962 79.796ZM55.4579 81V70.696H57.2079V81H55.4579ZM63.09 81V71.13H66.674C67.8034 71.13 68.7554 71.326 69.53 71.718C70.314 72.1007 70.9067 72.6607 71.308 73.398C71.7094 74.126 71.91 75.0127 71.91 76.058C71.91 77.094 71.7094 77.9807 71.308 78.718C70.9067 79.4553 70.314 80.02 69.53 80.412C68.7554 80.804 67.8034 81 66.674 81H63.09ZM64.896 79.502H66.562C67.7567 79.502 68.6434 79.2173 69.222 78.648C69.8007 78.0787 70.09 77.2153 70.09 76.058C70.09 74.8913 69.8007 74.028 69.222 73.468C68.6434 72.8987 67.7567 72.614 66.562 72.614H64.896V79.502ZM77.0301 81.14C75.8448 81.14 74.9161 80.8133 74.2441 80.16C73.5721 79.5067 73.2361 78.6107 73.2361 77.472C73.2361 76.7347 73.3808 76.0907 73.6701 75.54C73.9594 74.9893 74.3608 74.56 74.8741 74.252C75.3968 73.944 76.0034 73.79 76.6941 73.79C77.3754 73.79 77.9448 73.9347 78.4021 74.224C78.8594 74.5133 79.2048 74.9193 79.4381 75.442C79.6808 75.9647 79.8021 76.576 79.8021 77.276V77.738H74.6501V76.814H78.5561L78.3181 77.01C78.3181 76.3567 78.1781 75.8573 77.8981 75.512C77.6274 75.1667 77.2308 74.994 76.7081 74.994C76.1294 74.994 75.6814 75.1993 75.3641 75.61C75.0561 76.0207 74.9021 76.5947 74.9021 77.332V77.514C74.9021 78.2793 75.0888 78.8533 75.4621 79.236C75.8448 79.6093 76.3814 79.796 77.0721 79.796C77.4734 79.796 77.8468 79.7447 78.1921 79.642C78.5468 79.53 78.8828 79.3527 79.2001 79.11L79.7181 80.286C79.3821 80.5567 78.9808 80.7667 78.5141 80.916C78.0474 81.0653 77.5528 81.14 77.0301 81.14ZM83.2467 81L80.1947 73.93H82.0567L84.2687 79.46H83.8347L86.1027 73.93H87.8527L84.7867 81H83.2467ZM92.0692 81.14C90.8838 81.14 89.9552 80.8133 89.2832 80.16C88.6112 79.5067 88.2752 78.6107 88.2752 77.472C88.2752 76.7347 88.4198 76.0907 88.7092 75.54C88.9985 74.9893 89.3998 74.56 89.9132 74.252C90.4358 73.944 91.0425 73.79 91.7332 73.79C92.4145 73.79 92.9838 73.9347 93.4412 74.224C93.8985 74.5133 94.2438 74.9193 94.4772 75.442C94.7198 75.9647 94.8412 76.576 94.8412 77.276V77.738H89.6892V76.814H93.5952L93.3572 77.01C93.3572 76.3567 93.2172 75.8573 92.9372 75.512C92.6665 75.1667 92.2698 74.994 91.7472 74.994C91.1685 74.994 90.7205 75.1993 90.4032 75.61C90.0952 76.0207 89.9412 76.5947 89.9412 77.332V77.514C89.9412 78.2793 90.1278 78.8533 90.5012 79.236C90.8838 79.6093 91.4205 79.796 92.1112 79.796C92.5125 79.796 92.8858 79.7447 93.2312 79.642C93.5858 79.53 93.9218 79.3527 94.2392 79.11L94.7572 80.286C94.4212 80.5567 94.0198 80.7667 93.5532 80.916C93.0865 81.0653 92.5918 81.14 92.0692 81.14ZM96.3231 81V70.696H98.0731V81H96.3231ZM103.165 81.14C102.437 81.14 101.807 80.9907 101.275 80.692C100.743 80.3933 100.328 79.9687 100.029 79.418C99.7402 78.8673 99.5955 78.214 99.5955 77.458C99.5955 76.702 99.7402 76.0533 100.029 75.512C100.328 74.9613 100.743 74.5367 101.275 74.238C101.807 73.9393 102.437 73.79 103.165 73.79C103.893 73.79 104.523 73.9393 105.055 74.238C105.597 74.5367 106.012 74.9613 106.301 75.512C106.6 76.0533 106.749 76.702 106.749 77.458C106.749 78.214 106.6 78.8673 106.301 79.418C106.012 79.9687 105.597 80.3933 105.055 80.692C104.523 80.9907 103.893 81.14 103.165 81.14ZM103.165 79.796C103.716 79.796 104.155 79.6047 104.481 79.222C104.808 78.83 104.971 78.242 104.971 77.458C104.971 76.674 104.808 76.0907 104.481 75.708C104.155 75.3253 103.716 75.134 103.165 75.134C102.615 75.134 102.176 75.3253 101.849 75.708C101.523 76.0907 101.359 76.674 101.359 77.458C101.359 78.242 101.523 78.83 101.849 79.222C102.176 79.6047 102.615 79.796 103.165 79.796ZM108.259 84.024V75.694C108.259 75.4047 108.249 75.1107 108.231 74.812C108.212 74.5133 108.184 74.2193 108.147 73.93H109.841L109.995 75.414H109.841C109.981 74.9193 110.275 74.5273 110.723 74.238C111.18 73.9393 111.707 73.79 112.305 73.79C112.93 73.79 113.476 73.9393 113.943 74.238C114.409 74.5273 114.773 74.9473 115.035 75.498C115.296 76.0393 115.427 76.6927 115.427 77.458C115.427 78.2233 115.296 78.8813 115.035 79.432C114.773 79.9827 114.409 80.4073 113.943 80.706C113.476 80.9953 112.93 81.14 112.305 81.14C111.717 81.14 111.199 80.9953 110.751 80.706C110.303 80.4167 110.004 80.0293 109.855 79.544H110.009V84.024H108.259ZM111.815 79.796C112.375 79.796 112.823 79.6047 113.159 79.222C113.495 78.83 113.663 78.242 113.663 77.458C113.663 76.674 113.495 76.0907 113.159 75.708C112.823 75.3253 112.375 75.134 111.815 75.134C111.264 75.134 110.821 75.3253 110.485 75.708C110.149 76.0907 109.981 76.674 109.981 77.458C109.981 78.242 110.149 78.83 110.485 79.222C110.821 79.6047 111.264 79.796 111.815 79.796ZM116.94 81V75.694C116.94 75.4047 116.931 75.1107 116.912 74.812C116.894 74.5133 116.866 74.2193 116.828 73.93H118.522L118.662 75.33H118.494C118.69 74.8447 118.989 74.4667 119.39 74.196C119.801 73.9253 120.286 73.79 120.846 73.79C121.406 73.79 121.868 73.9253 122.232 74.196C122.606 74.4573 122.867 74.868 123.016 75.428H122.792C122.988 74.924 123.31 74.5273 123.758 74.238C124.206 73.9393 124.72 73.79 125.298 73.79C126.092 73.79 126.684 74.0233 127.076 74.49C127.468 74.9567 127.664 75.6847 127.664 76.674V81H125.914V76.744C125.914 76.184 125.821 75.7827 125.634 75.54C125.448 75.288 125.149 75.162 124.738 75.162C124.253 75.162 123.87 75.3347 123.59 75.68C123.31 76.016 123.17 76.4733 123.17 77.052V81H121.42V76.744C121.42 76.184 121.327 75.7827 121.14 75.54C120.954 75.288 120.655 75.162 120.244 75.162C119.759 75.162 119.376 75.3347 119.096 75.68C118.826 76.016 118.69 76.4733 118.69 77.052V81H116.94ZM132.948 81.14C131.763 81.14 130.834 80.8133 130.162 80.16C129.49 79.5067 129.154 78.6107 129.154 77.472C129.154 76.7347 129.299 76.0907 129.588 75.54C129.877 74.9893 130.279 74.56 130.792 74.252C131.315 73.944 131.921 73.79 132.612 73.79C133.293 73.79 133.863 73.9347 134.32 74.224C134.777 74.5133 135.123 74.9193 135.356 75.442C135.599 75.9647 135.72 76.576 135.72 77.276V77.738H130.568V76.814H134.474L134.236 77.01C134.236 76.3567 134.096 75.8573 133.816 75.512C133.545 75.1667 133.149 74.994 132.626 74.994C132.047 74.994 131.599 75.1993 131.282 75.61C130.974 76.0207 130.82 76.5947 130.82 77.332V77.514C130.82 78.2793 131.007 78.8533 131.38 79.236C131.763 79.6093 132.299 79.796 132.99 79.796C133.391 79.796 133.765 79.7447 134.11 79.642C134.465 79.53 134.801 79.3527 135.118 79.11L135.636 80.286C135.3 80.5567 134.899 80.7667 134.432 80.916C133.965 81.0653 133.471 81.14 132.948 81.14ZM137.202 81V75.694C137.202 75.4047 137.193 75.1107 137.174 74.812C137.155 74.5133 137.127 74.2193 137.09 73.93H138.784L138.924 75.33H138.756C138.98 74.8353 139.311 74.4573 139.75 74.196C140.189 73.9253 140.697 73.79 141.276 73.79C142.107 73.79 142.732 74.0233 143.152 74.49C143.572 74.9567 143.782 75.6847 143.782 76.674V81H142.032V76.758C142.032 76.1887 141.92 75.7827 141.696 75.54C141.481 75.288 141.155 75.162 140.716 75.162C140.175 75.162 139.745 75.33 139.428 75.666C139.111 76.002 138.952 76.45 138.952 77.01V81H137.202ZM148.662 81.14C147.822 81.14 147.187 80.9207 146.758 80.482C146.328 80.0433 146.114 79.3853 146.114 78.508V75.246H144.756V73.93H146.114V72.124L147.864 71.676V73.93H149.754V75.246H147.864V78.396C147.864 78.8813 147.957 79.222 148.144 79.418C148.33 79.614 148.587 79.712 148.914 79.712C149.091 79.712 149.24 79.698 149.362 79.67C149.492 79.642 149.618 79.6047 149.74 79.558V80.944C149.581 81.0093 149.404 81.056 149.208 81.084C149.021 81.1213 148.839 81.14 148.662 81.14Z" fill="#202244" fill-opacity="0.8"/>
</svg>
