<svg width="125" height="69" viewBox="0 0 125 69" fill="none" xmlns="http://www.w3.org/2000/svg">
<path fill-rule="evenodd" clip-rule="evenodd" d="M83.0851 18.0519V23.9482L78.8822 24.3691V24.3701C77.391 23.3483 75.6252 22.8029 73.8177 22.8061C73.6668 22.8061 73.5174 22.8097 73.3683 22.8169V22.8097C74.1533 18.3015 71.9249 13.8052 67.8622 11.6999C63.7995 9.59412 58.8409 10.3655 55.6099 13.6058C52.3789 16.8461 51.6222 21.8072 53.7393 25.8635C55.8568 29.92 60.3596 32.1356 64.8652 31.3374C64.8581 31.4726 64.8552 31.6095 64.8552 31.7465C64.8524 33.5334 65.3884 35.2792 66.3938 36.7564L65.9744 41.1116H60.0782L59.6562 36.7418C57.7443 36.3184 55.9245 35.5513 54.2867 34.4774L50.9177 37.2679L46.7576 33.1089L49.5481 29.7396C48.4656 28.1061 47.6982 26.2846 47.2844 24.3691L42.9148 23.9482V18.0519L47.2844 17.6311C47.7083 15.7186 48.475 13.899 49.5481 12.2605L46.7576 8.89116L50.9177 4.73216L54.2867 7.52269C55.9199 6.43982 57.7409 5.67195 59.6562 5.25825L60.0782 0.888428H65.9744L66.3956 5.25825C68.308 5.68163 70.1277 6.44877 71.7661 7.52269L75.1352 4.73216L79.2421 8.89116L76.4516 12.2605C77.534 13.894 78.3015 15.7154 78.7153 17.6311L83.0851 18.0519Z" fill="#00ACEA"/>
<path fill-rule="evenodd" clip-rule="evenodd" d="M66.3939 36.7564C65.3885 35.2791 64.8524 33.5333 64.8552 31.7464C64.8552 31.6095 64.8582 31.4725 64.8653 31.3373C65.0814 26.7307 68.7624 23.0426 73.3684 22.8168C73.5175 22.8097 73.6668 22.8061 73.8178 22.8061C78.0741 22.815 81.7341 25.8234 82.5665 29.9978C83.399 34.172 81.1734 38.3546 77.2459 39.9956C73.3188 41.6369 68.7789 40.2819 66.3939 36.7564Z" fill="#FEDB41"/>
<mask id="mask0_1_1057" style="mask-type:luminance" maskUnits="userSpaceOnUse" x="42" y="0" width="42" height="42">
<path fill-rule="evenodd" clip-rule="evenodd" d="M42 0H84V42H42V0Z" fill="white"/>
</mask>
<g mask="url(#mask0_1_1057)">
<path fill-rule="evenodd" clip-rule="evenodd" d="M82.1739 23.1221L79.1131 23.4288C77.6975 22.529 76.0754 22.0065 74.4005 21.9116C74.4248 21.6088 74.4373 21.3046 74.4373 21.0004C74.4373 14.6982 69.3282 9.58943 63.0264 9.58943C56.7243 9.58943 51.6154 14.6985 51.6154 21.0004C51.6154 27.3025 56.7247 32.4112 63.0264 32.4112C63.3381 32.4112 63.6513 32.3981 63.9634 32.3723C64.0646 34.0077 64.5775 35.5908 65.4542 36.9751L65.1457 40.1739H60.9075L60.5651 36.6415C60.5266 36.2478 60.2366 35.9243 59.8493 35.843C58.0453 35.4432 56.3288 34.7196 54.7826 33.7074C54.4477 33.4919 54.0115 33.5183 53.7051 33.7726L50.9753 36.0334L47.9911 33.0504L50.2513 30.3223C50.5085 30.0117 50.5316 29.569 50.308 29.2335C49.2897 27.6948 48.5672 25.98 48.1769 24.1764C48.0927 23.788 47.7671 23.4987 47.3713 23.4606L43.8261 23.1189V18.8811L47.3713 18.5398C47.7671 18.5016 48.0927 18.212 48.1766 17.8236C48.5782 16.0189 49.3025 14.302 50.3151 12.7551C50.5313 12.4206 50.5052 11.9844 50.2513 11.6776L47.9911 8.94929L50.9753 5.96583L53.7041 8.22598C54.0151 8.48309 54.4577 8.50592 54.7933 8.28231C56.3316 7.26372 58.046 6.54078 59.8493 6.15054C60.2359 6.07211 60.5262 5.75072 60.5651 5.35848L60.9075 1.82609H65.1457L65.4869 5.35811C65.5255 5.75218 65.8155 6.07567 66.2031 6.15702C68.0075 6.55675 69.7247 7.28043 71.2713 8.29263C71.6062 8.50848 72.0423 8.48172 72.3487 8.22735L75.0735 5.96976L78.0124 8.94537L75.7487 11.6776C75.4915 11.9884 75.4687 12.4309 75.6924 12.7665C76.7103 14.3052 77.4328 16.02 77.8231 17.8236C77.9073 18.212 78.2332 18.5013 78.6287 18.5394L82.1739 18.8811V23.1221ZM73.8177 39.7741C71.1468 39.7756 68.6487 38.453 67.1487 36.2428C66.2467 34.9172 65.7655 33.35 65.7683 31.7464C65.7683 31.613 65.7713 31.4953 65.7777 31.3784C65.9728 27.2422 69.2779 23.9313 73.4137 23.7288C73.5467 23.7223 73.6826 23.7191 73.8177 23.7191C78.2568 23.7141 81.86 27.3075 81.8672 31.7464C81.8672 36.1729 78.2564 39.7741 73.8177 39.7741ZM64.0176 30.532C63.6883 30.5666 63.3574 30.5844 63.0264 30.5851C57.7328 30.5859 53.4409 26.2946 53.4405 21.0011C53.4398 15.7072 57.7311 11.4155 63.0247 11.4149C68.3185 11.4145 72.6101 15.7055 72.6109 20.9993V21C72.6101 21.3249 72.593 21.6498 72.5598 21.9729C68.0927 22.5419 64.5778 26.0638 64.0176 30.532ZM83.1736 17.1431L79.453 16.7847C79.0464 15.2175 78.4151 13.7174 77.5787 12.3315L79.9455 9.47356C80.2444 9.11264 80.2212 8.58371 79.892 8.25018L75.7851 4.09053C75.4524 3.75344 74.9173 3.72668 74.5528 4.02881L71.6896 6.40062C70.3033 5.56711 68.8057 4.93437 67.2421 4.5214L66.8836 0.812432C66.8369 0.347054 66.4424 -0.00565472 65.9745 6.15147e-06H60.0783C59.6103 -0.00565472 59.2159 0.347054 59.1695 0.812432L58.8103 4.52669C57.2435 4.93254 55.7438 5.56281 54.3579 6.39843L51.4999 4.03064C51.1372 3.72997 50.6054 3.75453 50.272 4.08734L46.1123 8.24588C45.7792 8.57905 45.7542 9.11081 46.0545 9.47393L48.4263 12.3371C47.5935 13.7239 46.9611 15.2211 46.5481 16.7847L42.8264 17.1431C42.3581 17.188 42.0004 17.5815 42 18.0519V23.9481C42.0004 24.4185 42.3581 24.812 42.8264 24.8569L46.547 25.2153C46.9536 26.7825 47.5849 28.2826 48.4213 29.6685L46.0545 32.5265C45.7542 32.8892 45.7792 33.4213 46.1123 33.7544L50.272 37.9134C50.6051 38.2465 51.1372 38.2715 51.4999 37.9708L54.3635 35.5994C55.7492 36.4329 57.2464 37.0656 58.81 37.4786L59.1691 41.1871C59.2155 41.653 59.6103 42.0057 60.0783 42H65.9745C66.4428 42.0057 66.8372 41.6526 66.8836 41.1869L67.0984 38.9606C68.9255 40.655 71.3255 41.597 73.8177 41.597C79.2632 41.597 83.6933 37.1779 83.6933 31.7453C83.6926 29.2691 82.7581 26.8841 81.0764 25.0666L83.1772 24.8565C83.6441 24.8101 84 24.4175 84 23.9481V18.0519C83.9996 17.5815 83.6419 17.188 83.1736 17.1431Z" fill="#083863"/>
</g>
<path fill-rule="evenodd" clip-rule="evenodd" d="M74.0479 26.1441C73.5436 26.1441 73.1349 26.5529 73.1349 27.0571V31.6095L70.9314 33.7965C70.5726 34.1507 70.569 34.7288 70.9232 35.0876C71.276 35.4425 71.8495 35.4443 72.2044 35.0916L72.2083 35.0876L74.6777 32.6331C74.8536 32.4637 74.9553 32.2315 74.9609 31.9876V27.0571C74.9609 26.5529 74.5522 26.1441 74.0479 26.1441Z" fill="#083863"/>
<path d="M1.13719 60.058C1.13719 59.022 1.32385 58.126 1.69719 57.37C2.07985 56.614 2.62585 56.0307 3.33519 55.62C4.04452 55.2 4.88919 54.99 5.86919 54.99C6.83985 54.99 7.67985 55.2 8.38919 55.62C9.09852 56.0307 9.64452 56.614 10.0272 57.37C10.4192 58.126 10.6152 59.0173 10.6152 60.044C10.6152 61.08 10.4192 61.9807 10.0272 62.746C9.64452 63.502 9.09852 64.09 8.38919 64.51C7.67985 64.93 6.83985 65.14 5.86919 65.14C4.88919 65.14 4.04452 64.93 3.33519 64.51C2.63519 64.09 2.09385 63.502 1.71119 62.746C1.32852 61.9807 1.13719 61.0847 1.13719 60.058ZM3.02719 60.058C3.02719 61.1687 3.26519 62.0367 3.74119 62.662C4.21719 63.2873 4.92652 63.6 5.86919 63.6C6.78385 63.6 7.48852 63.2873 7.98319 62.662C8.47785 62.0367 8.72519 61.1687 8.72519 60.058C8.72519 58.938 8.47785 58.07 7.98319 57.454C7.49785 56.838 6.79319 56.53 5.86919 56.53C4.92652 56.53 4.21719 56.838 3.74119 57.454C3.26519 58.07 3.02719 58.938 3.02719 60.058ZM12.8147 65V59.246H11.4567V57.93H13.3047L12.8147 58.378V57.3C12.8147 56.4227 13.0387 55.76 13.4867 55.312C13.9441 54.864 14.6114 54.64 15.4887 54.64C15.6941 54.64 15.9087 54.654 16.1327 54.682C16.3661 54.71 16.5667 54.7613 16.7347 54.836V56.208C16.6134 56.1613 16.4687 56.124 16.3007 56.096C16.1327 56.068 15.9694 56.054 15.8107 56.054C15.5681 56.054 15.3487 56.1007 15.1527 56.194C14.9661 56.2873 14.8167 56.432 14.7047 56.628C14.6021 56.8147 14.5507 57.0667 14.5507 57.384V58.238L14.2987 57.93H16.4127V59.246H14.5647V65H12.8147ZM17.6546 65V59.246H16.2966V57.93H18.1446L17.6546 58.378V57.3C17.6546 56.4227 17.8739 55.76 18.3126 55.312C18.7606 54.864 19.4092 54.64 20.2586 54.64C20.4639 54.64 20.6786 54.654 20.9026 54.682C21.1359 54.71 21.3366 54.7613 21.5046 54.836V56.208C21.3832 56.1613 21.2386 56.124 21.0706 56.096C20.9026 56.068 20.7392 56.054 20.5806 56.054C20.2166 56.054 19.9272 56.1613 19.7126 56.376C19.4979 56.5813 19.3906 56.9173 19.3906 57.384V58.238L19.1386 57.93H24.0526V65H22.3026V59.246H19.4046V65H17.6546ZM22.2046 56.6V54.892H24.1506V56.6H22.2046ZM29.2039 65.14C28.4759 65.14 27.8366 64.9907 27.2859 64.692C26.7446 64.3933 26.3246 63.9687 26.0259 63.418C25.7272 62.858 25.5779 62.1953 25.5779 61.43C25.5779 60.6647 25.7272 60.0113 26.0259 59.47C26.3339 58.9287 26.7586 58.5133 27.2999 58.224C27.8412 57.9347 28.4759 57.79 29.2039 57.79C29.6706 57.79 30.1232 57.8647 30.5619 58.014C31.0099 58.154 31.3739 58.3593 31.6539 58.63L31.1219 59.848C30.8699 59.6147 30.5852 59.442 30.2679 59.33C29.9599 59.2087 29.6566 59.148 29.3579 59.148C28.7326 59.148 28.2426 59.344 27.8879 59.736C27.5426 60.128 27.3699 60.6973 27.3699 61.444C27.3699 62.1907 27.5426 62.7647 27.8879 63.166C28.2426 63.5673 28.7326 63.768 29.3579 63.768C29.6472 63.768 29.9459 63.712 30.2539 63.6C30.5712 63.488 30.8606 63.3153 31.1219 63.082L31.6539 64.286C31.3646 64.5567 30.9959 64.7667 30.5479 64.916C30.1092 65.0653 29.6612 65.14 29.2039 65.14ZM36.2899 65.14C35.1045 65.14 34.1759 64.8133 33.5039 64.16C32.8319 63.5067 32.4959 62.6107 32.4959 61.472C32.4959 60.7347 32.6405 60.0907 32.9299 59.54C33.2192 58.9893 33.6205 58.56 34.1339 58.252C34.6565 57.944 35.2632 57.79 35.9539 57.79C36.6352 57.79 37.2045 57.9347 37.6619 58.224C38.1192 58.5133 38.4645 58.9193 38.6979 59.442C38.9405 59.9647 39.0619 60.576 39.0619 61.276V61.738H33.9099V60.814H37.8159L37.5779 61.01C37.5779 60.3567 37.4379 59.8573 37.1579 59.512C36.8872 59.1667 36.4905 58.994 35.9679 58.994C35.3892 58.994 34.9412 59.1993 34.6239 59.61C34.3159 60.0207 34.1619 60.5947 34.1619 61.332V61.514C34.1619 62.2793 34.3485 62.8533 34.7219 63.236C35.1045 63.6093 35.6412 63.796 36.3319 63.796C36.7332 63.796 37.1065 63.7447 37.4519 63.642C37.8065 63.53 38.1425 63.3527 38.4599 63.11L38.9779 64.286C38.6419 64.5567 38.2405 64.7667 37.7739 64.916C37.3072 65.0653 36.8125 65.14 36.2899 65.14ZM44.5256 65V55.13H48.9076C49.9903 55.13 50.8163 55.3913 51.3856 55.914C51.9549 56.4367 52.2396 57.1553 52.2396 58.07C52.2396 58.9753 51.9549 59.694 51.3856 60.226C50.8163 60.758 49.9903 61.024 48.9076 61.024H46.3316V65H44.5256ZM46.3316 59.596H48.6976C49.2949 59.596 49.7429 59.4653 50.0416 59.204C50.3403 58.9333 50.4896 58.5553 50.4896 58.07C50.4896 57.5847 50.3403 57.2113 50.0416 56.95C49.7429 56.6793 49.2949 56.544 48.6976 56.544H46.3316V59.596ZM53.5591 65V59.736C53.5591 59.4373 53.5498 59.134 53.5311 58.826C53.5218 58.518 53.4984 58.2193 53.4611 57.93H55.1551L55.3511 59.862H55.0711C55.1644 59.3953 55.3184 59.008 55.5331 58.7C55.7571 58.392 56.0278 58.1633 56.3451 58.014C56.6624 57.8647 57.0078 57.79 57.3811 57.79C57.5491 57.79 57.6844 57.7993 57.7871 57.818C57.8898 57.8273 57.9924 57.8507 58.0951 57.888L58.0811 59.428C57.9038 59.3533 57.7498 59.3067 57.6191 59.288C57.4978 59.2693 57.3438 59.26 57.1571 59.26C56.7558 59.26 56.4151 59.344 56.1351 59.512C55.8644 59.68 55.6591 59.9133 55.5191 60.212C55.3884 60.5107 55.3231 60.8513 55.3231 61.234V65H53.5591ZM62.1518 65.14C61.4238 65.14 60.7938 64.9907 60.2618 64.692C59.7298 64.3933 59.3145 63.9687 59.0158 63.418C58.7265 62.8673 58.5818 62.214 58.5818 61.458C58.5818 60.702 58.7265 60.0533 59.0158 59.512C59.3145 58.9613 59.7298 58.5367 60.2618 58.238C60.7938 57.9393 61.4238 57.79 62.1518 57.79C62.8798 57.79 63.5098 57.9393 64.0418 58.238C64.5831 58.5367 64.9985 58.9613 65.2878 59.512C65.5865 60.0533 65.7358 60.702 65.7358 61.458C65.7358 62.214 65.5865 62.8673 65.2878 63.418C64.9985 63.9687 64.5831 64.3933 64.0418 64.692C63.5098 64.9907 62.8798 65.14 62.1518 65.14ZM62.1518 63.796C62.7025 63.796 63.1411 63.6047 63.4678 63.222C63.7945 62.83 63.9578 62.242 63.9578 61.458C63.9578 60.674 63.7945 60.0907 63.4678 59.708C63.1411 59.3253 62.7025 59.134 62.1518 59.134C61.6011 59.134 61.1625 59.3253 60.8358 59.708C60.5091 60.0907 60.3458 60.674 60.3458 61.458C60.3458 62.242 60.5091 62.83 60.8358 63.222C61.1625 63.6047 61.6011 63.796 62.1518 63.796ZM69.989 65.14C69.373 65.14 68.827 64.9953 68.351 64.706C67.8843 64.4073 67.5203 63.9827 67.259 63.432C66.9976 62.8813 66.867 62.2233 66.867 61.458C66.867 60.6927 66.9976 60.0393 67.259 59.498C67.5203 58.9473 67.8843 58.5273 68.351 58.238C68.827 57.9393 69.373 57.79 69.989 57.79C70.577 57.79 71.095 57.9347 71.543 58.224C72.0003 58.504 72.3036 58.8867 72.453 59.372H72.271V54.696H74.021V65H72.299V63.502H72.467C72.3176 64.006 72.0143 64.4073 71.557 64.706C71.109 64.9953 70.5863 65.14 69.989 65.14ZM70.479 63.796C71.0296 63.796 71.473 63.6047 71.809 63.222C72.145 62.83 72.313 62.242 72.313 61.458C72.313 60.674 72.145 60.0907 71.809 59.708C71.473 59.3253 71.0296 59.134 70.479 59.134C69.9283 59.134 69.4803 59.3253 69.135 59.708C68.799 60.0907 68.631 60.674 68.631 61.458C68.631 62.242 68.799 62.83 69.135 63.222C69.4803 63.6047 69.9283 63.796 70.479 63.796ZM78.4746 65.14C77.6066 65.14 76.9579 64.902 76.5286 64.426C76.0993 63.95 75.8846 63.222 75.8846 62.242V57.93H77.6346V62.228C77.6346 62.7507 77.7419 63.138 77.9566 63.39C78.1713 63.6327 78.4979 63.754 78.9366 63.754C79.4313 63.754 79.8326 63.586 80.1406 63.25C80.4579 62.914 80.6166 62.4707 80.6166 61.92V57.93H82.3666V65H80.6586V63.558H80.8546C80.6493 64.062 80.3366 64.454 79.9166 64.734C79.5059 65.0047 79.0253 65.14 78.4746 65.14ZM87.5145 65.14C86.7865 65.14 86.1471 64.9907 85.5965 64.692C85.0551 64.3933 84.6351 63.9687 84.3365 63.418C84.0378 62.858 83.8885 62.1953 83.8885 61.43C83.8885 60.6647 84.0378 60.0113 84.3365 59.47C84.6445 58.9287 85.0691 58.5133 85.6105 58.224C86.1518 57.9347 86.7865 57.79 87.5145 57.79C87.9811 57.79 88.4338 57.8647 88.8725 58.014C89.3205 58.154 89.6845 58.3593 89.9645 58.63L89.4325 59.848C89.1805 59.6147 88.8958 59.442 88.5785 59.33C88.2705 59.2087 87.9671 59.148 87.6685 59.148C87.0431 59.148 86.5531 59.344 86.1985 59.736C85.8531 60.128 85.6805 60.6973 85.6805 61.444C85.6805 62.1907 85.8531 62.7647 86.1985 63.166C86.5531 63.5673 87.0431 63.768 87.6685 63.768C87.9578 63.768 88.2565 63.712 88.5645 63.6C88.8818 63.488 89.1711 63.3153 89.4325 63.082L89.9645 64.286C89.6751 64.5567 89.3065 64.7667 88.8585 64.916C88.4198 65.0653 87.9718 65.14 87.5145 65.14ZM94.3725 65.14C93.5325 65.14 92.8978 64.9207 92.4685 64.482C92.0392 64.0433 91.8245 63.3853 91.8245 62.508V59.246H90.4665V57.93H91.8245V56.124L93.5745 55.676V57.93H95.4645V59.246H93.5745V62.396C93.5745 62.8813 93.6678 63.222 93.8545 63.418C94.0412 63.614 94.2978 63.712 94.6245 63.712C94.8018 63.712 94.9512 63.698 95.0725 63.67C95.2032 63.642 95.3292 63.6047 95.4505 63.558V64.944C95.2918 65.0093 95.1145 65.056 94.9185 65.084C94.7318 65.1213 94.5498 65.14 94.3725 65.14ZM96.6532 65V57.93H98.4032V65H96.6532ZM96.5552 56.6V54.892H98.5012V56.6H96.5552ZM102.376 65L99.3236 57.93H101.186L103.398 63.46H102.964L105.232 57.93H106.982L103.916 65H102.376ZM107.919 65V57.93H109.669V65H107.919ZM107.821 56.6V54.892H109.767V56.6H107.821ZM114.593 65.14C113.753 65.14 113.119 64.9207 112.689 64.482C112.26 64.0433 112.045 63.3853 112.045 62.508V59.246H110.687V57.93H112.045V56.124L113.795 55.676V57.93H115.685V59.246H113.795V62.396C113.795 62.8813 113.889 63.222 114.075 63.418C114.262 63.614 114.519 63.712 114.845 63.712C115.023 63.712 115.172 63.698 115.293 63.67C115.424 63.642 115.55 63.6047 115.671 63.558V64.944C115.513 65.0093 115.335 65.056 115.139 65.084C114.953 65.1213 114.771 65.14 114.593 65.14ZM116.843 68.178L116.437 66.792C116.876 66.6987 117.245 66.5913 117.543 66.47C117.842 66.3487 118.089 66.19 118.285 65.994C118.481 65.798 118.645 65.546 118.775 65.238L119.125 64.412L119.083 65.098L116.003 57.93H117.865L120.077 63.446H119.671L121.897 57.93H123.661L120.441 65.392C120.227 65.896 119.993 66.3113 119.741 66.638C119.489 66.974 119.219 67.24 118.929 67.436C118.64 67.6413 118.323 67.8 117.977 67.912C117.632 68.024 117.254 68.1127 116.843 68.178Z" fill="#202244" fill-opacity="0.8"/>
</svg>
