<svg width="113" height="83" viewBox="0 0 113 83" fill="none" xmlns="http://www.w3.org/2000/svg">
<path fill-rule="evenodd" clip-rule="evenodd" d="M66.3282 38.6709C60.6412 44.3589 51.3712 44.3589 45.6722 38.6709C39.9802 32.9679 39.9802 23.6989 45.6722 18.0109C48.5122 15.1599 52.2502 13.7299 56.0002 13.7299C59.8752 13.7259 63.5902 15.2609 66.3282 17.9999C72.0312 23.6989 72.0312 32.9679 66.3282 38.6709ZM70.4882 39.2699C73.1132 35.8039 74.4022 31.5069 74.1212 27.1709C74.0782 26.5389 74.0122 25.9209 73.8982 25.2999C73.3012 21.6989 71.6212 18.2609 68.8402 15.4919C68.6092 15.2609 68.3712 15.0309 68.1292 14.8199C67.6212 14.3709 67.1092 13.9609 66.5782 13.5699C60.2812 9.04993 51.7112 9.04993 45.4102 13.5699C44.8792 13.9489 44.3592 14.3779 43.8592 14.8199C43.6292 15.0389 43.3912 15.2499 43.1602 15.4799C40.4882 18.1399 38.7152 21.5699 38.0902 25.2889C37.9882 25.9099 37.9102 26.5389 37.8712 27.1599C37.5512 32.1989 39.3092 37.3389 43.1482 41.1709C46.6912 44.7309 51.3522 46.4999 56.0002 46.4999C59.8592 46.4999 63.7112 45.2699 66.9412 42.8319L79.0582 57.0589C79.7892 57.9139 80.8402 58.4209 81.9612 58.4639C83.0782 58.5069 84.1682 58.0819 84.9612 57.2889C86.6092 55.6409 86.5002 52.9209 84.7192 51.4019L70.4882 39.2699Z" fill="#292F64"/>
<mask id="mask0_1_1071" style="mask-type:luminance" maskUnits="userSpaceOnUse" x="24" y="1" width="64" height="37">
<path fill-rule="evenodd" clip-rule="evenodd" d="M24 1.00012H87.9998V37.4919H24V1.00012Z" fill="white"/>
</mask>
<g mask="url(#mask0_1_1071)">
<path fill-rule="evenodd" clip-rule="evenodd" d="M76.2188 11.4409C79.1018 11.4409 81.4418 9.1009 81.4418 6.2179C81.4418 3.3389 79.1018 0.999898 76.2188 0.999898C73.3398 0.991898 70.9998 3.3389 70.9998 6.2179C70.9998 9.1009 73.3398 11.4409 76.2188 11.4409ZM79.8908 12.1789L79.7108 12.1599L76.8088 16.3199C76.6798 16.5109 76.4608 16.6249 76.2308 16.6209C75.9998 16.6209 75.7818 16.4999 75.6408 16.3079L72.7308 12.1519L72.5508 12.1709C71.3398 12.3079 70.1798 12.6789 69.1018 13.2889L68.7308 13.4999L69.0508 13.7889C69.3088 14.0189 69.5588 14.2609 69.8088 14.5109C72.6988 17.4019 74.5778 21.0389 75.2388 25.0579L75.2818 25.3199H83.5708L83.8088 21.0889C83.8358 20.7029 84.1638 20.4099 84.5508 20.4209H84.5588C84.9488 20.4409 85.2498 20.7809 85.2308 21.1709L85.0118 25.3199H87.9998V21.2609C87.9998 16.6089 84.5118 12.6989 79.8908 12.1789ZM35.7698 11.4409C38.6478 11.4409 40.9878 9.1009 40.9878 6.2179C40.9878 3.3389 38.6478 0.999898 35.7698 0.999898C32.8908 0.999898 30.5518 3.3389 30.5518 6.2179C30.5388 9.1009 32.8908 11.4409 35.7698 11.4409ZM42.9488 13.7999L43.2618 13.5189L42.8978 13.3079C41.8398 12.7029 40.6638 12.3199 39.4488 12.1789L39.2698 12.1599L36.3788 16.3079C36.2498 16.4799 36.0308 16.5889 35.7888 16.5889C35.5388 16.5889 35.3278 16.4919 35.2108 16.3079L32.3018 12.1519L32.1018 12.1789C27.4798 12.6789 23.9998 16.5889 23.9998 21.2689V25.3319H26.9688L26.7498 21.1789C26.7298 20.7889 27.0308 20.4489 27.4998 20.4289C27.8518 20.4289 28.1598 20.7419 28.1798 21.1089L28.4098 25.3389H36.6988L36.7378 25.0819C37.4098 21.0699 39.2888 17.4289 42.1908 14.5309C42.4408 14.2689 42.6908 14.0389 42.9488 13.7999ZM55.9998 25.9919C58.4888 25.9919 60.5118 23.9609 60.5118 21.4799C60.5118 18.9999 58.4888 16.9679 55.9998 16.9679C53.5118 16.9679 51.4878 18.9999 51.4878 21.4799C51.4878 23.9609 53.5118 25.9919 55.9998 25.9919ZM59.1598 26.7419L58.9808 26.7179L56.5898 30.1279C56.4688 30.3089 56.2388 30.4099 55.9998 30.4099C55.7618 30.4099 55.5388 30.2999 55.4218 30.1279L53.0308 26.7179L52.8518 26.7419C49.1018 27.1909 46.2698 30.4099 46.2698 34.2099V37.4919H48.5198L48.3398 34.1409C48.3198 33.7499 48.6288 33.4019 49.1018 33.3709C49.4408 33.3709 49.7498 33.6789 49.7698 34.0589L49.9608 37.4919H62.0388L62.2308 34.0589C62.2578 33.6679 62.5898 33.3669 62.9808 33.3779H62.9888C63.3788 33.4019 63.6798 33.7419 63.6598 34.1409L63.4808 37.4919H65.7308V34.2099C65.7188 30.4209 62.8988 27.2109 59.1598 26.7419Z" fill="#292F64"/>
</g>
<path d="M1.1545 79V69.13H2.9605V73.246H8.0145V69.13H9.8205V79H8.0145V74.744H2.9605V79H1.1545ZM11.9963 79V69.13H16.3083C17.391 69.13 18.2263 69.3867 18.8143 69.9C19.4116 70.4133 19.7103 71.1273 19.7103 72.042C19.7103 72.6487 19.575 73.1667 19.3043 73.596C19.043 74.0253 18.665 74.3567 18.1703 74.59C17.6756 74.814 17.0923 74.926 16.4203 74.926L16.6163 74.66H17.0923C17.4843 74.66 17.8343 74.7627 18.1423 74.968C18.4503 75.1733 18.7023 75.486 18.8983 75.906L20.3403 79H18.3523L16.8963 75.794C16.7656 75.4673 16.565 75.2527 16.2943 75.15C16.033 75.0473 15.7156 74.996 15.3423 74.996H13.8023V79H11.9963ZM13.8023 73.666H16.0143C16.649 73.666 17.1296 73.5353 17.4563 73.274C17.7923 73.0033 17.9603 72.6113 17.9603 72.098C17.9603 71.5847 17.7923 71.1973 17.4563 70.936C17.1296 70.6747 16.649 70.544 16.0143 70.544H13.8023V73.666ZM25.6822 79V69.13H27.2642L30.8902 77.292H30.4562L34.0822 69.13H35.6502V79H34.0122V71.678H34.5162L31.1982 79H30.1202L26.8022 71.678H27.3202V79H25.6822ZM40.4398 79.14C39.8238 79.14 39.2825 78.9953 38.8158 78.706C38.3491 78.4073 37.9851 77.9827 37.7238 77.432C37.4625 76.8813 37.3318 76.2233 37.3318 75.458C37.3318 74.6927 37.4625 74.0393 37.7238 73.498C37.9851 72.9473 38.3491 72.5273 38.8158 72.238C39.2825 71.9393 39.8238 71.79 40.4398 71.79C41.0371 71.79 41.5598 71.9393 42.0078 72.238C42.4651 72.5273 42.7685 72.9193 42.9178 73.414H42.7638L42.9178 71.93H44.5978C44.5698 72.2193 44.5418 72.5133 44.5138 72.812C44.4951 73.1107 44.4858 73.4047 44.4858 73.694V79H42.7498L42.7358 77.544H42.9038C42.7545 78.0293 42.4511 78.4167 41.9938 78.706C41.5365 78.9953 41.0185 79.14 40.4398 79.14ZM40.9298 77.796C41.4805 77.796 41.9238 77.6047 42.2598 77.222C42.5958 76.83 42.7638 76.242 42.7638 75.458C42.7638 74.674 42.5958 74.0907 42.2598 73.708C41.9238 73.3253 41.4805 73.134 40.9298 73.134C40.3791 73.134 39.9358 73.3253 39.5998 73.708C39.2638 74.0907 39.0958 74.674 39.0958 75.458C39.0958 76.242 39.2591 76.83 39.5858 77.222C39.9218 77.6047 40.3698 77.796 40.9298 77.796ZM46.3915 79V73.694C46.3915 73.4047 46.3821 73.1107 46.3635 72.812C46.3448 72.5133 46.3168 72.2193 46.2795 71.93H47.9735L48.1135 73.33H47.9455C48.1695 72.8353 48.5008 72.4573 48.9395 72.196C49.3781 71.9253 49.8868 71.79 50.4655 71.79C51.2961 71.79 51.9215 72.0233 52.3415 72.49C52.7615 72.9567 52.9715 73.6847 52.9715 74.674V79H51.2215V74.758C51.2215 74.1887 51.1095 73.7827 50.8855 73.54C50.6708 73.288 50.3441 73.162 49.9055 73.162C49.3641 73.162 48.9348 73.33 48.6175 73.666C48.3001 74.002 48.1415 74.45 48.1415 75.01V79H46.3915ZM57.557 79.14C56.941 79.14 56.3997 78.9953 55.933 78.706C55.4663 78.4073 55.1023 77.9827 54.841 77.432C54.5797 76.8813 54.449 76.2233 54.449 75.458C54.449 74.6927 54.5797 74.0393 54.841 73.498C55.1023 72.9473 55.4663 72.5273 55.933 72.238C56.3997 71.9393 56.941 71.79 57.557 71.79C58.1543 71.79 58.677 71.9393 59.125 72.238C59.5823 72.5273 59.8857 72.9193 60.035 73.414H59.881L60.035 71.93H61.715C61.687 72.2193 61.659 72.5133 61.631 72.812C61.6123 73.1107 61.603 73.4047 61.603 73.694V79H59.867L59.853 77.544H60.021C59.8717 78.0293 59.5683 78.4167 59.111 78.706C58.6537 78.9953 58.1357 79.14 57.557 79.14ZM58.047 77.796C58.5977 77.796 59.041 77.6047 59.377 77.222C59.713 76.83 59.881 76.242 59.881 75.458C59.881 74.674 59.713 74.0907 59.377 73.708C59.041 73.3253 58.5977 73.134 58.047 73.134C57.4963 73.134 57.053 73.3253 56.717 73.708C56.381 74.0907 56.213 74.674 56.213 75.458C56.213 76.242 56.3763 76.83 56.703 77.222C57.039 77.6047 57.487 77.796 58.047 77.796ZM66.7846 82.136C66.1313 82.136 65.5386 82.066 65.0066 81.926C64.484 81.786 64.0173 81.5713 63.6066 81.282L63.9846 80.022C64.2553 80.1993 64.5353 80.344 64.8246 80.456C65.114 80.568 65.4126 80.652 65.7206 80.708C66.0286 80.764 66.3413 80.792 66.6586 80.792C67.312 80.792 67.7973 80.6287 68.1146 80.302C68.4413 79.9847 68.6046 79.5273 68.6046 78.93V77.236H68.7446C68.5953 77.7213 68.292 78.1087 67.8346 78.398C67.3866 78.6873 66.8686 78.832 66.2806 78.832C65.646 78.832 65.0906 78.692 64.6146 78.412C64.148 78.1227 63.784 77.712 63.5226 77.18C63.2613 76.648 63.1306 76.0227 63.1306 75.304C63.1306 74.5853 63.2613 73.9647 63.5226 73.442C63.784 72.91 64.148 72.504 64.6146 72.224C65.0906 71.9347 65.646 71.79 66.2806 71.79C66.878 71.79 67.396 71.9347 67.8346 72.224C68.2826 72.504 68.5813 72.8867 68.7306 73.372L68.6046 73.288L68.7446 71.93H70.4386C70.4013 72.2193 70.3733 72.5133 70.3546 72.812C70.336 73.1107 70.3266 73.4047 70.3266 73.694V78.72C70.3266 79.8307 70.0233 80.6753 69.4166 81.254C68.8193 81.842 67.942 82.136 66.7846 82.136ZM66.7566 77.488C67.3166 77.488 67.76 77.3013 68.0866 76.928C68.4226 76.5453 68.5906 76.004 68.5906 75.304C68.5906 74.604 68.4226 74.0673 68.0866 73.694C67.76 73.3207 67.3166 73.134 66.7566 73.134C66.1873 73.134 65.7346 73.3207 65.3986 73.694C65.0626 74.0673 64.8946 74.604 64.8946 75.304C64.8946 76.004 65.0626 76.5453 65.3986 76.928C65.7346 77.3013 66.1873 77.488 66.7566 77.488ZM75.6336 79.14C74.4483 79.14 73.5196 78.8133 72.8476 78.16C72.1756 77.5067 71.8396 76.6107 71.8396 75.472C71.8396 74.7347 71.9843 74.0907 72.2736 73.54C72.563 72.9893 72.9643 72.56 73.4776 72.252C74.0003 71.944 74.607 71.79 75.2976 71.79C75.979 71.79 76.5483 71.9347 77.0056 72.224C77.463 72.5133 77.8083 72.9193 78.0416 73.442C78.2843 73.9647 78.4056 74.576 78.4056 75.276V75.738H73.2536V74.814H77.1596L76.9216 75.01C76.9216 74.3567 76.7816 73.8573 76.5016 73.512C76.231 73.1667 75.8343 72.994 75.3116 72.994C74.733 72.994 74.285 73.1993 73.9676 73.61C73.6596 74.0207 73.5056 74.5947 73.5056 75.332V75.514C73.5056 76.2793 73.6923 76.8533 74.0656 77.236C74.4483 77.6093 74.985 77.796 75.6756 77.796C76.077 77.796 76.4503 77.7447 76.7956 77.642C77.1503 77.53 77.4863 77.3527 77.8036 77.11L78.3216 78.286C77.9856 78.5567 77.5843 78.7667 77.1176 78.916C76.651 79.0653 76.1563 79.14 75.6336 79.14ZM79.8875 79V73.694C79.8875 73.4047 79.8782 73.1107 79.8595 72.812C79.8409 72.5133 79.8129 72.2193 79.7755 71.93H81.4695L81.6095 73.33H81.4415C81.6375 72.8447 81.9362 72.4667 82.3375 72.196C82.7482 71.9253 83.2335 71.79 83.7935 71.79C84.3535 71.79 84.8155 71.9253 85.1795 72.196C85.5529 72.4573 85.8142 72.868 85.9635 73.428H85.7395C85.9355 72.924 86.2575 72.5273 86.7055 72.238C87.1535 71.9393 87.6669 71.79 88.2455 71.79C89.0389 71.79 89.6315 72.0233 90.0235 72.49C90.4155 72.9567 90.6115 73.6847 90.6115 74.674V79H88.8615V74.744C88.8615 74.184 88.7682 73.7827 88.5815 73.54C88.3949 73.288 88.0962 73.162 87.6855 73.162C87.2002 73.162 86.8175 73.3347 86.5375 73.68C86.2575 74.016 86.1175 74.4733 86.1175 75.052V79H84.3675V74.744C84.3675 74.184 84.2742 73.7827 84.0875 73.54C83.9009 73.288 83.6022 73.162 83.1915 73.162C82.7062 73.162 82.3235 73.3347 82.0435 73.68C81.7729 74.016 81.6375 74.4733 81.6375 75.052V79H79.8875ZM95.8953 79.14C94.71 79.14 93.7813 78.8133 93.1093 78.16C92.4373 77.5067 92.1013 76.6107 92.1013 75.472C92.1013 74.7347 92.246 74.0907 92.5353 73.54C92.8247 72.9893 93.226 72.56 93.7393 72.252C94.262 71.944 94.8687 71.79 95.5593 71.79C96.2407 71.79 96.81 71.9347 97.2673 72.224C97.7247 72.5133 98.07 72.9193 98.3033 73.442C98.546 73.9647 98.6673 74.576 98.6673 75.276V75.738H93.5153V74.814H97.4213L97.1833 75.01C97.1833 74.3567 97.0433 73.8573 96.7633 73.512C96.4927 73.1667 96.096 72.994 95.5733 72.994C94.9947 72.994 94.5467 73.1993 94.2293 73.61C93.9213 74.0207 93.7673 74.5947 93.7673 75.332V75.514C93.7673 76.2793 93.954 76.8533 94.3273 77.236C94.71 77.6093 95.2467 77.796 95.9373 77.796C96.3387 77.796 96.712 77.7447 97.0573 77.642C97.412 77.53 97.748 77.3527 98.0653 77.11L98.5833 78.286C98.2473 78.5567 97.846 78.7667 97.3793 78.916C96.9127 79.0653 96.418 79.14 95.8953 79.14ZM100.149 79V73.694C100.149 73.4047 100.14 73.1107 100.121 72.812C100.103 72.5133 100.075 72.2193 100.037 71.93H101.731L101.871 73.33H101.703C101.927 72.8353 102.259 72.4573 102.697 72.196C103.136 71.9253 103.645 71.79 104.223 71.79C105.054 71.79 105.679 72.0233 106.099 72.49C106.519 72.9567 106.729 73.6847 106.729 74.674V79H104.979V74.758C104.979 74.1887 104.867 73.7827 104.643 73.54C104.429 73.288 104.102 73.162 103.663 73.162C103.122 73.162 102.693 73.33 102.375 73.666C102.058 74.002 101.899 74.45 101.899 75.01V79H100.149ZM111.609 79.14C110.769 79.14 110.134 78.9207 109.705 78.482C109.275 78.0433 109.061 77.3853 109.061 76.508V73.246H107.703V71.93H109.061V70.124L110.811 69.676V71.93H112.701V73.246H110.811V76.396C110.811 76.8813 110.904 77.222 111.091 77.418C111.277 77.614 111.534 77.712 111.861 77.712C112.038 77.712 112.187 77.698 112.309 77.67C112.439 77.642 112.565 77.6047 112.687 77.558V78.944C112.528 79.0093 112.351 79.056 112.155 79.084C111.968 79.1213 111.786 79.14 111.609 79.14Z" fill="#202244" fill-opacity="0.8"/>
</svg>
